<?xml version="1.0"?>
<svg xmlns="http://www.w3.org/2000/svg" width="100" height="28" viewBox="0 0 110 28" fill="none">
  <g clip-path="url(#clip0_11489_64455)" fill="#7A7A82">
    <path fill-rule="evenodd" clip-rule="evenodd" d="M12.758 4.847c.348.17.61.467.731.824.12.357.09.746-.087 1.08L3.358 25.764a1.454 1.454 0 01-.854.703 1.52 1.52 0 01-1.12-.084h-.002a1.435 1.435 0 01-.732-.825 1.37 1.37 0 01.088-1.081L10.782 5.465a1.45 1.45 0 01.854-.703c.37-.117.773-.087 1.12.083l.002.002zm2.125 6.857c.348.171.61.468.731.825.12.357.089.745-.088 1.08l-6.42 12.154a1.454 1.454 0 01-.855.703 1.52 1.52 0 01-1.12-.084h-.002a1.434 1.434 0 01-.731-.825 1.37 1.37 0 01.088-1.081l6.421-12.154a1.42 1.42 0 01.354-.433 1.52 1.52 0 011.62-.185h.002zm2.884 5.654c.348.171.61.468.731.825.121.357.09.746-.087 1.08l-3.434 6.5a1.454 1.454 0 01-.854.703 1.52 1.52 0 01-1.12-.084H13a1.435 1.435 0 01-.732-.825 1.37 1.37 0 01.088-1.081l3.434-6.5c.087-.165.208-.312.354-.433a1.522 1.522 0 011.62-.185h.002z"/>
    <path d="M20.858 1.797c.003 6.377 4.934 13.161 10.679 15.08.369.124.773.101 1.125-.062.351-.164.62-.455.75-.81a1.369 1.369 0 00-.067-1.081 1.455 1.455 0 00-.843-.72c-4.55-1.519-8.696-7.224-8.699-12.405a1.39 1.39 0 00-.43-1.002A1.502 1.502 0 0022.332.38c-.391 0-.766.149-1.042.414a1.392 1.392 0 00-.432 1.002zm-10.165-.024c-.287 12.08 8.312 22.837 20.72 25.594a1.526 1.526 0 001.11-.177c.165-.099.307-.227.42-.378a1.373 1.373 0 00.049-1.572 1.472 1.472 0 00-.918-.63c-11.04-2.453-18.692-12.025-18.438-22.77a1.39 1.39 0 00-.408-1.011 1.5 1.5 0 00-1.031-.438 1.503 1.503 0 00-1.05.391c-.282.26-.446.616-.455.991z"/>
    <path d="M15.75 1.768c-.23 9.313 6.393 18.097 15.678 20.16.38.084.78.02 1.111-.178a1.42 1.42 0 00.655-.883c.087-.366.02-.75-.187-1.068a1.472 1.472 0 00-.917-.63c-7.882-1.75-13.592-9.325-13.396-17.331A1.389 1.389 0 0018.286.83a1.5 1.5 0 00-1.028-.437c-.39-.01-.767.13-1.05.388a1.393 1.393 0 00-.458.987zm23.603 20.241c0-2.439 1.828-4.435 4.233-4.435 1.264 0 2.318.631 2.81 1.313v-1.142h1.931v8.529h-1.932V25.13c-.49.682-1.545 1.313-2.809 1.313-2.406 0-4.233-1.995-4.233-4.435zm7.2 0c0-1.535-1.053-2.73-2.616-2.73-1.563 0-2.616 1.195-2.616 2.73 0 1.536 1.053 2.73 2.616 2.73 1.563 0 2.617-1.194 2.617-2.73zm4.391 4.265V13.48h1.931v12.794h-1.93zm5.355 0v-6.858h-1.825v-1.67H56.3v-1.434c0-1.91 1.316-2.934 3.003-2.934.596 0 1.07.085 1.44.205v1.67a3.206 3.206 0 00-1.037-.17c-1 0-1.475.393-1.475 1.451v1.211h2.512v1.671H58.23v6.858h-1.932zm5.356-4.265c0-2.439 1.827-4.435 4.232-4.435 1.265 0 2.318.631 2.81 1.313v-1.142h1.932v8.529h-1.932V25.13c-.49.682-1.545 1.313-2.809 1.313-2.406 0-4.233-1.995-4.233-4.435zm7.2 0c0-1.535-1.054-2.73-2.616-2.73-1.564 0-2.616 1.195-2.616 2.73 0 1.536 1.052 2.73 2.616 2.73 1.563 0 2.616-1.194 2.616-2.73zm12.486 2.082c-.755 1.415-2.283 2.353-4.092 2.353-2.634 0-4.636-1.91-4.636-4.435 0-2.524 2.002-4.435 4.636-4.435 1.81 0 3.336.938 4.09 2.354l-1.685.887a2.62 2.62 0 00-2.405-1.501c-1.564 0-2.67 1.177-2.67 2.695 0 1.519 1.107 2.695 2.67 2.695 1.124 0 1.985-.63 2.405-1.5l1.687.887zm1.14-2.082c0-2.439 1.828-4.435 4.233-4.435 1.264 0 2.319.631 2.81 1.313v-1.142h1.931v8.529h-1.931V25.13c-.491.682-1.546 1.313-2.81 1.313-2.406 0-4.232-1.995-4.232-4.435zm7.2 0c0-1.535-1.053-2.73-2.616-2.73-1.563 0-2.616 1.195-2.616 2.73 0 1.536 1.054 2.73 2.616 2.73 1.563 0 2.617-1.194 2.617-2.73zm10.362 1.791c0 1.638-1.37 2.644-3.18 2.644-1.562 0-2.897-.596-3.529-1.807l1.422-.99c.352.75 1.212 1.177 2.108 1.177.685 0 1.264-.306 1.264-.904 0-.494-.298-.785-1.352-1.092l-.772-.205c-1.528-.41-2.319-1.347-2.3-2.61.017-1.518 1.386-2.439 3.142-2.439 1.317 0 2.353.512 2.968 1.45l-1.335.99c-.385-.53-.948-.87-1.668-.87-.58 0-1.177.29-1.177.802 0 .408.194.767 1.055 1.006l.895.255c1.545.444 2.459 1.195 2.459 2.593zm2.001 2.474V13.48h1.931v5.425c.528-.853 1.529-1.33 2.67-1.33 2.037 0 3.354 1.398 3.354 3.564v5.135h-1.932v-4.828c0-1.347-.702-2.166-1.826-2.166-1.282 0-2.266.972-2.266 2.797v4.197h-1.931z"/>
  </g>
  <defs>
    <clipPath id="clip0_11489_64455">
      <path fill="#fff" d="M0 0h110v28H0z"/>
    </clipPath>
  </defs>
</svg>
