<?xml version="1.0"?>
<svg xmlns="http://www.w3.org/2000/svg" width="98" height="40" fill="none">
  <path fill-rule="evenodd" clip-rule="evenodd" d="M50.674 1.772c-.36.294-7.997 17.289-7.997 17.793 0 .74 1.165 1.053 1.648.442.147-.186.79-1.504 1.43-2.929l1.162-2.59 4.267.036 4.267.037 1.188 2.648c.653 1.457 1.287 2.759 1.408 2.893.502.557 1.577.145 1.577-.604 0-.462-7.469-17.263-7.849-17.656-.365-.377-.7-.399-1.101-.07zm11.33.035c-.273.273-.28.464-.28 9.178 0 8.445.014 8.911.257 9.13.227.205.78.23 4.972.23 4.53 0 4.727-.01 4.996-.278.154-.153.28-.436.28-.627 0-.192-.126-.474-.28-.628-.267-.265-.467-.278-4.342-.278h-4.062V10.31c0-8.039-.006-8.23-.28-8.503-.154-.154-.437-.28-.63-.28-.192 0-.476.126-.63.28zm11.626 0c-.275.273-.28.464-.28 9.178 0 8.445.013 8.911.256 9.13.36.324 1.044.293 1.368-.062.246-.272.27-.588.307-4.252l.042-3.958h2.71c2.424 0 2.742-.027 3.028-.257.215-.174.318-.407.318-.719s-.103-.545-.318-.719c-.286-.23-.605-.257-3.035-.257H75.31V3.48h4.141c4.085 0 4.57-.047 4.856-.474.196-.292.106-.921-.173-1.198-.27-.269-.467-.28-5.252-.28s-4.983.011-5.252.28zm15.421-.035c-.356.294-7.998 17.296-7.998 17.796 0 .737 1.166 1.048 1.648.44.147-.187.79-1.505 1.43-2.93l1.162-2.59 4.267.036 4.267.037 1.188 2.648c.653 1.457 1.287 2.759 1.408 2.893.503.558 1.577.145 1.577-.608 0-.465-7.464-17.254-7.847-17.65-.367-.38-.703-.401-1.102-.072zM49.575 8.615a322.117 322.117 0 00-1.656 3.692c-.083.214.183.233 3.216.233 1.819 0 3.307-.047 3.308-.105.002-.132-3.089-7.038-3.211-7.176-.05-.057-.796 1.454-1.657 3.356zm38.38-.012a322.419 322.419 0 00-1.66 3.704c-.083.214.186.233 3.27.233h3.36l-1.587-3.52c-.873-1.936-1.638-3.602-1.7-3.704-.073-.12-.66 1.026-1.683 3.287zM47.157 24.247c-1.912.48-3.657 1.887-4.584 3.696-.513 1-.732 1.94-.732 3.136 0 5.96 7.086 9.18 11.566 5.255.729-.638.897-1.105.54-1.497-.35-.384-.504-.349-1.275.294-1.897 1.581-4.124 1.925-6.208.958-3.01-1.397-4.123-5.017-2.43-7.898.518-.88 1.742-1.924 2.67-2.276 1.112-.421 2.444-.505 3.443-.216.44.128 1.298.571 1.92.993 1.252.848 1.735.95 1.978.42.213-.465-.077-.886-1.153-1.675-1.258-.922-2.175-1.226-3.841-1.274-.77-.022-1.623.015-1.894.084zm13.868.062c-1.072.297-2.125.916-3.026 1.777-2.884 2.756-2.884 7.23 0 9.986 2.753 2.631 6.899 2.657 9.634.06 1.572-1.492 2.216-2.961 2.216-5.053s-.644-3.56-2.216-5.053c-.878-.833-1.932-1.433-3.036-1.727-.863-.23-2.726-.224-3.572.01zm10.723.11c-.19.27-.218 1.138-.218 6.66 0 6.9.008 6.97.768 6.97.787 0 .772.133.772-6.97 0-5.752-.026-6.558-.22-6.75a.728.728 0 00-1.102.09zm3.501 0c-.19.27-.218 1.138-.218 6.66s.029 6.39.218 6.66c.265.376.776.401 1.091.055.207-.228.232-.812.232-5.45v-5.196l3.97 5.415c4.174 5.692 4.324 5.854 4.906 5.274.204-.203.228-.914.228-6.758 0-7.092.013-6.97-.764-6.97-.687 0-.702.107-.777 5.575l-.07 5.114-3.571-4.883c-1.965-2.685-3.752-5.09-3.972-5.344-.469-.542-.957-.6-1.273-.152zm14.968-.023c-1.54.59-2.54 1.985-2.407 3.36.132 1.363 1.219 2.303 3.692 3.193 2.342.843 3.123 1.504 3.242 2.743.081.837-.279 1.625-1.019 2.233-1.364 1.118-3.269.926-4.636-.468-.793-.808-1.124-.913-1.518-.48-.684.752.827 2.308 2.786 2.868 1.785.51 3.522.025 4.743-1.326.823-.911 1.14-1.826 1.044-3.014-.152-1.881-1.19-2.867-4.17-3.96-2.662-.978-3.297-1.728-2.481-2.933.435-.643 1.082-.983 2.03-1.068 1.195-.107 1.875.131 2.688.94.382.38.761.692.842.692.258 0 .707-.547.707-.863 0-.508-1.386-1.729-2.254-1.985-1.006-.298-2.41-.269-3.29.068zm-28.771 1.299c-1.667.456-2.827 1.416-3.605 2.983-.498 1.004-.527 1.135-.527 2.394 0 1.206.042 1.42.443 2.262.836 1.756 2.253 2.849 4.145 3.196 1.844.338 3.829-.35 5.143-1.781.983-1.07 1.323-2.013 1.323-3.67 0-1.052-.066-1.49-.32-2.125-.372-.933-1.433-2.153-2.322-2.672-1.225-.714-2.952-.951-4.28-.587zM26.99 4.034L20.059 8.06l-.037-3.873-.038-3.873L17.43.236C16.025.193 14.868.168 14.859.181c-.01.012-.062 2.5-.116 5.527-.054 3.027-.153 5.536-.22 5.575-.066.04-3.398 1.985-7.404 4.322C2.776 18.14-.097 19.897.003 19.957a5016.4 5016.4 0 007.38 4.332l7.213 4.231.036 5.74.037 5.74h5.179v-4.112c0-2.8.047-4.112.148-4.112.082 0 3.217 1.796 6.968 3.99 3.75 2.195 6.862 4.015 6.915 4.045.052.03.671-.959 1.375-2.196.891-1.566 1.236-2.295 1.134-2.396-.08-.08-3.82-2.288-8.308-4.905-6.924-4.037-8.16-4.805-8.152-5.063.005-.168.022-2.736.037-5.707l.027-5.401 8.394-4.869 8.395-4.869-.344-.567a147.86 147.86 0 01-1.28-2.206C34.642.732 34.154-.003 34.072 0c-.082.003-3.268 1.818-7.081 4.034zM12.486 18.499c-1.16.67-2.113 1.282-2.117 1.359-.006.144 4.16 2.623 4.252 2.53.029-.028.035-1.189.014-2.58l-.038-2.53-2.111 1.22z" fill="#7A7A82"/>
</svg>
