<svg width="120" height="19" fill="none" xmlns="http://www.w3.org/2000/svg"><path fill-rule="evenodd" clip-rule="evenodd" d="M88.407 18.775V.118s8.761-.266 14.336 0c.187.029.351.048.504.067.359.044.664.081 1.089.2 1.801.502 2.867 1.16 3.983 2.665.762 1.029.964 1.805 1.274 2.997l.053.202c.632 2.416.699 3.999 0 6.396-.352 1.207-.607 1.903-1.327 2.932-1.104 1.576-2.01 2.518-3.85 3.065-.42.125-.724.16-1.079.2-.157.019-.323.038-.514.066-5.708.267-14.469-.133-14.469-.133zm5.84-14.392v10.394s2.919.146 4.78 0c.151-.012.284-.018.409-.024.303-.015.558-.027.918-.109 1.154-.261 1.906-.546 2.655-1.466.44-.54.796-1.599.796-1.599s.586-2.706 0-4.264c-.229-.61-.37-.974-.796-1.466-.76-.879-1.522-1.088-2.655-1.333a5.242 5.242 0 00-.926-.108 15.16 15.16 0 01-.401-.025c-1.861-.146-4.78 0-4.78 0zM0 18.775L7.7.118h7.433l7.433 18.657H16.46l-.796-2.932H7.168l-.796 2.932H0zm11.416-13.86h-.266l-2.654 7.197h5.575l-2.655-7.196z" fill="#7A7A82"/><path d="M25.487.118h5.84v14.66h11.15v3.997h-16.99V.118zm22.566 0h-6.372l7.7 18.657h6.902l7.7-18.657H57.61l-4.514 13.327h-.53L48.052.118z" fill="#7A7A82"/><path fill-rule="evenodd" clip-rule="evenodd" d="M62.92 18.775L70.62.118h7.168l7.699 18.657H79.38l-1.062-2.932h-8.496l-1.062 2.932h-5.84zm11.416-13.86h-.265l-2.655 7.197h5.575l-2.655-7.196z" fill="#7A7A82"/><path d="M114.159.118H120v18.657h-5.841V.118z" fill="#7A7A82"/></svg>