<svg width="100" height="12" viewBox="0 0 130 12" fill="none" xmlns="http://www.w3.org/2000/svg"><path d="M0 11.457V.504h4.443c.728 0 1.381.084 1.96.252.578.157 1.038.43 1.381.823.343.392.514.94.514 1.646 0 .482-.123.958-.37 1.428-.235.46-.567.773-.995.941v.067c.535.146.98.432 1.333.857.364.415.546.986.546 1.714 0 .75-.182 1.36-.546 1.83-.364.471-.851.824-1.462 1.06-.61.223-1.296.335-2.056.335H0zM2.205 4.89h2.412c.579 0 .996-.118 1.253-.353.268-.235.402-.55.402-.941 0-.426-.134-.728-.402-.907-.267-.18-.68-.27-1.237-.27H2.205v2.47zm0 4.653h2.35c1.296 0 1.944-.493 1.944-1.478 0-.482-.16-.823-.482-1.025-.321-.213-.808-.32-1.462-.32h-2.35v2.823zm11.761-3.486c-.187.695-.402 1.8-.402 1.8h3.128s-.292-1.251-.43-1.8c-.14-.549-.343-1.1-.575-1.8-.194-.587-.509-1.5-.509-1.5h-.064s-.365.908-.574 1.5a21.386 21.386 0 00-.574 1.8zm-4.16 5.4L13.549.504h2.843l4.317 10.953h-2.506l-.793-1.8h-4.59l-.603 1.8h-2.41zm12.049 0V.504h3.421l1.687 4.872c.107.313.209.644.305.99.097.348.198.69.305 1.026h.065c.107-.336.203-.678.289-1.025.096-.347.198-.678.305-.991L29.887.504h3.442v10.953h-2.151V4.905s-.032-.845 0-1.192h-.633l-.851 2.604-1.494 5.14h-1.301l-1.494-5.14-.835-2.604h-.639l.019 1.178v6.566h-2.095zm14.055 0V.504h4.476c.728 0 1.382.084 1.96.252.578.157 1.039.43 1.382.823.342.392.514.94.514 1.646 0 .482-.124.958-.37 1.428-.236.46-.568.773-.996.941v.067c.535.146.98.432 1.333.857.364.415.547.986.547 1.714 0 .75-.182 1.36-.547 1.83-.364.471-.851.824-1.461 1.06-.61.223-1.296.335-2.057.335h-4.78zm2.108-6.568h2.256c.578 0 .996-.118 1.253-.353.267-.235.401-.55.401-.941 0-.426-.134-.728-.401-.907-.268-.18-.68-.27-1.237-.27h-2.272v2.47zm0 4.653h2.48c1.296 0 1.944-.493 1.944-1.478 0-.482-.16-.823-.482-1.025-.32-.213-.808-.32-1.461-.32h-2.481v2.823zm41.812 2.117c-1.043-.056-1.69-.11-2.603-.639-.88-.51-1.387-1.052-1.847-1.881-.45-.84-.675-1.87-.675-3.091 0-1.21.23-2.24.69-3.091.472-.863 1.093-1.518 1.864-1.966.771-.46 1.525-.666 2.554-.689 1.124-.025 1.802.152 2.802.689.83.445 1.522 1.192 1.864 1.561l-1.577 1.2c-.268-.246-.614-.774-1.148-1.05-.657-.34-1.132-.36-1.86-.266-.848.109-1.478.313-1.992.94-.514.628-.771 1.49-.771 2.588 0 1.12.246 1.993.739 2.62.492.628 1.086.938 1.93 1.073.388.062.614.038 1.004 0 .692-.066 1.593-.356 1.721-.468V7.308h-2.868v-1.7h5.02v4.724c-.365.37-1.607.875-2.726 1.125-.813.182-1.29.247-2.122.202zm7.208-.202V.504h3.775c.739 0 1.413.106 2.024.319.61.202 1.097.549 1.462 1.042.364.492.546 1.176.546 2.05 0 .806-.172 1.472-.514 1.998a3.089 3.089 0 01-1.35 1.16l2.378 4.384h-2.65L90.7 7.51h-1.72v3.948h-1.942zm1.941-5.913h1.64c.622 0 1.093-.135 1.415-.403.332-.28.498-.69.498-1.227 0-.537-.166-.913-.498-1.125-.322-.213-.793-.32-1.414-.32h-1.64v3.075zm25.674 6.063c-1.36 0-3.083-.368-3.8-1.208-.718-.84-1.076-2.178-1.076-4.015V.504h2.151v6.132c0 1.075.098 1.6.692 2.25.571.627 1.444.621 2.033.621s1.302-.06 1.829-.62c.605-.642.753-2.251.753-2.251V.504h2.01v5.88c0 1.837-.353 3.175-1.06 4.015-.696.84-2.182 1.208-3.532 1.208zm7.014-.15V.504h4.172c.771 0 1.468.112 2.089.336a3 3 0 011.51 1.092c.375.515.562 1.215.562 2.1 0 .85-.187 1.55-.562 2.1a3.413 3.413 0 01-1.494 1.226 5.273 5.273 0 01-2.04.387h-1.875v3.712h-2.362zm2.362-5.678h1.73c1.285 0 1.928-.582 1.928-1.747 0-.571-.172-.975-.514-1.21-.343-.235-.836-.353-1.478-.353h-1.666v3.31zM57.084 6c0 3.314-2.569 6-5.738 6-3.168 0-5.737-2.686-5.737-6s2.569-6 5.737-6c3.169 0 5.738 2.686 5.738 6zm12.621 0c0 3.314-2.568 6-5.737 6-3.168 0-5.737-2.686-5.737-6s2.569-6 5.737-6c3.169 0 5.737 2.686 5.737 6zm38.439 0c0 3.314-2.568 6-5.737 6-3.168 0-5.737-2.686-5.737-6s2.569-6 5.737-6c3.169 0 5.737 2.686 5.737 6z" fill="#7A7A82"/></svg>