<?xml version="1.0"?>
<svg xmlns="http://www.w3.org/2000/svg" width="78" height="48" fill="none">
  <g clip-path="url(#clip0_11489_64372)" fill-rule="evenodd" clip-rule="evenodd" fill="#7A7A82">
    <path d="M75.42 18.659h.019l1.169-3.268H77.8v4.434h-.914v-3.027l-.018-.003-1.127 3.03h-.619l-1.125-3.036-.019.003v3.032h-.913v-4.433h1.198l1.156 3.268zm-2.856-2.583h-1.3v3.748h-.913v-3.748h-1.282v-.685h3.495v.685zm-10.016 4.56v6.354h.902c.933 0 1.7-.249 2.3-.745.601-.496.901-1.323.901-2.483 0-.674-.144-1.27-.434-1.79-.29-.52-.71-.872-1.259-1.058a4.937 4.937 0 00-1.573-.278h-.837zm-2.293-1.125a.83.83 0 01.84-.818h2.765c1.539 0 2.779.473 3.716 1.418.94.946 1.409 2.19 1.409 3.737 0 1.551-.484 2.794-1.452 3.73-.969.934-2.257 1.402-3.866 1.402h-2.571a.83.83 0 01-.84-.818v-8.65zm-7.07-.818h4.43c.418 0 .757.33.757.738v.561c0 .407-.34.738-.758.738h-2.153a.748.748 0 00-.758.738v.6c0 .408.34.738.758.738h2.153c.419 0 .758.33.758.738v.53c0 .407-.34.738-.758.738h-2.153a.748.748 0 00-.758.738v.655c0 .407.34.738.758.738h2.153c.419 0 .758.33.758.738v.56c0 .409-.34.739-.758.739h-4.43a.748.748 0 01-.757-.738V19.43c0-.408.34-.738.758-.738zm-12.443 0h1.565c.308 0 .58.195.672.482l1.573 4.902c.077.24.425.24.502 0l1.575-4.902a.703.703 0 01.673-.482h1.471a.7.7 0 01.7.599l1.178 8.914a.693.693 0 01-.7.774h-.745a.699.699 0 01-.7-.601l-.684-5.32c-.04-.308-.482-.347-.577-.05l-1.764 5.49a.703.703 0 01-.673.48.703.703 0 01-.671-.477l-1.755-5.37c-.11-.337-.616-.29-.658.062l-.624 5.18a.698.698 0 01-.7.606h-.781a.693.693 0 01-.7-.77l1.123-8.914a.698.698 0 01.7-.603zm-8.599 1.943c-.884-.016-1.598.282-2.14.893s-.812 1.4-.812 2.366c0 .914.276 1.671.828 2.272.553.6 1.25.901 2.092.901.886 0 1.6-.296 2.144-.89.545-.592.817-1.374.817-2.346 0-.956-.267-1.723-.8-2.303-.535-.58-1.243-.877-2.129-.893zm-5.326 3.196c0-1.52.516-2.774 1.549-3.764 1.032-.99 2.257-1.485 3.673-1.485 1.566 0 2.861.498 3.886 1.493 1.024.995 1.537 2.252 1.537 3.772 0 1.51-.507 2.763-1.521 3.76-1.013.998-2.29 1.497-3.83 1.497-1.539 0-2.806-.496-3.8-1.488-.997-.992-1.494-2.254-1.494-3.785zm-8.088-5.139h.78c.263 0 .507.135.642.356l1.094 1.79a.758.758 0 001.282.004l1.115-1.798a.753.753 0 01.64-.352h.791c.58 0 .94.616.641 1.101l-2.58 4.203a.713.713 0 00-.106.374v3.881a.738.738 0 01-.748.728h-.758a.738.738 0 01-.747-.728v-3.881a.712.712 0 00-.106-.374l-2.581-4.203c-.298-.485.061-1.101.641-1.101zm-6.37 1.833v2.68h.493c1.189 0 1.784-.473 1.784-1.418a1.08 1.08 0 00-.465-.92c-.31-.227-.739-.342-1.287-.342h-.525zm-2.294-1.052c0-.431.36-.781.802-.781h2.679c1.057 0 1.894.271 2.509.815.614.542.922 1.276.922 2.2 0 .527-.14 1.075-.423 1.645a2.541 2.541 0 01-.881.974c-.358.242-.422.737-.179 1.09l1.618 2.347c.358.519-.024 1.216-.666 1.216h-.683a.809.809 0 01-.667-.347L12.6 25h-.257v3.2c0 .43-.36.78-.802.78h-.674a.791.791 0 01-.802-.78v-8.726zm-1.688.217v.953c0 .49-.525.8-.984.596-.743-.33-1.415-.494-2.018-.494-.858 0-1.544.287-2.06.862-.514.574-.772 1.347-.772 2.318 0 .92.27 1.655.813 2.206.541.551 1.266.827 2.172.827.55 0 1.174-.15 1.873-.448.459-.195.976.114.976.601v.916a.67.67 0 01-.483.639c-1.027.302-1.899.454-2.615.454-1.422 0-2.629-.508-3.62-1.524-.993-1.016-1.49-2.255-1.49-3.718 0-1.488.506-2.748 1.517-3.78 1.011-1.03 2.241-1.547 3.69-1.547.806 0 1.663.172 2.57.515.26.099.43.353.43.624zm11.616 17.651l-3.384 3.867a23.49 23.49 0 003.001 2.243l2.765-4.334a18.353 18.353 0 01-2.382-1.776zm19.948-24.704l-2.632 3.642c.37.27.718.568 1.045.888l1.337.02 2.708-2.264a13.64 13.64 0 00-2.458-2.286zm1.924-2.663l-1.129 1.562c1 .727 1.907 1.574 2.698 2.522l1.478-1.235a16.936 16.936 0 00-3.047-2.849zm-.195 29.136l2.716 4.365a23.548 23.548 0 002.371-1.697l-3.236-3.992c-.588.479-1.207.92-1.851 1.324z"/>
    <path d="M43.52 37.786l3.236 3.992a23.607 23.607 0 004.625-5.049l-4.252-2.883a18.42 18.42 0 01-3.61 3.94zM38.877 6.657l1.93-4.768A23.154 23.154 0 0036.374.58l-.957 5.055c1.199.228 2.357.572 3.461 1.023zm.287 28.428l-2.375-3.816a8.94 8.94 0 01-.977.532l1.889 4.08a13.44 13.44 0 001.463-.796zM20.95 36.248l1.268-1.45a15.023 15.023 0 01-1.764-1.837l-1.497 1.213c.604.747 1.271 1.44 1.992 2.074zm17.322.867l.81 1.75a16.763 16.763 0 001.818-.99l-1.018-1.636a14.8 14.8 0 01-1.61.876zm3.118-1.955c-.478.39-.982.75-1.507 1.08l1.018 1.636a16.795 16.795 0 001.703-1.22L41.39 35.16zM35.146 7.065l-.359 1.896c.977.185 1.92.466 2.82.833l.724-1.788a16.639 16.639 0 00-3.185-.941zm15.793 11.973l.038-.009a2.245 2.245 0 012.207-1.831h1.329a23.67 23.67 0 00-.754-2.226l-4.775 1.895c.048.118.085.242.13.362.926.145 1.674.87 1.825 1.809zM30.001 5.425L29.434.312a23.206 23.206 0 00-3.022.538l1.231 4.996c.768-.19 1.555-.332 2.358-.42zm1.019 9.182l-.496-4.473c-.595.066-1.175.18-1.745.322l1.076 4.366c.38-.094.768-.17 1.165-.215zM24.305 40.17l-2.17 4.663c1.7.797 3.511 1.395 5.403 1.764l.984-5.05a18.072 18.072 0 01-4.217-1.378zm7.713 1.717v5.146c1.825 0 3.6-.218 5.307-.616l-1.166-5.01c-1.331.31-2.717.48-4.141.48zM22.315 8.118l-2.73-4.356a23.583 23.583 0 00-5.478 4.783l3.933 3.306a18.393 18.393 0 014.275-3.733zm7.972 24.36a8.92 8.92 0 01-2.084-.686l-1.896 4.076a13.36 13.36 0 003.12 1.029l.86-4.419zm4.798 4.309l-1.019-4.381a8.988 8.988 0 01-2.048.243v4.503c1.056 0 2.08-.134 3.067-.365z"/>
    <path d="M37.701 35.88l-1.888-4.08a8.98 8.98 0 01-1.083.43l1.35 4.295c.56-.177 1.096-.4 1.621-.644zM21.424 18.268l.034.054a.512.512 0 00.873.003l.043-.07a2.259 2.259 0 011.908-1.057h.12l-2.74-2.303a13.416 13.416 0 00-1.582 2.377c.553.146 1.042.5 1.344.996zm3.649-1.071c.148.002.346 0 .578-.001.475-.472 1-.893 1.57-1.252l-2.387-3.808a13.624 13.624 0 00-3.172 2.759l2.74 2.302h.67zm11.411 20.616l.579 1.84a16.433 16.433 0 002.019-.788l-.81-1.75c-.578.269-1.173.504-1.788.698zm-17.33-25.026l1.475 1.24a14.998 14.998 0 013.483-3.042L23.09 9.35a16.936 16.936 0 00-3.935 3.436zm12.864 25.714v1.93c1.311 0 2.586-.156 3.812-.443l-.437-1.879a14.815 14.815 0 01-3.375.392zm-3.496 3.046l-.983 5.05a23.35 23.35 0 004.478.436v-5.146c-1.195 0-2.363-.119-3.495-.34zM26.412.85a23.23 23.23 0 00-6.826 2.913l2.73 4.356a18.133 18.133 0 015.326-2.273L26.412.851zM38.77 11.873l-2.245 3.896c.27.157.53.327.782.51l2.632-3.641c-.376-.274-.766-.53-1.17-.764zm-8.482 20.605l-.86 4.419c.839.163 1.703.255 2.589.255v-4.503a8.998 8.998 0 01-1.729-.17z"/>
    <path d="M28.779 10.456c-1.416.35-2.743.921-3.945 1.68l2.386 3.809a8.965 8.965 0 012.635-1.123l-1.076-4.366zM27.99 7.26a16.668 16.668 0 00-4.902 2.091l1.024 1.634a14.785 14.785 0 014.34-1.852l-.462-1.874zm1.18 30.964l-.37 1.894c1.042.203 2.117.313 3.217.313V38.5a14.84 14.84 0 01-2.847-.277zm-9.218-5.922l-1.587 1.092a17 17 0 00.592.78l1.497-1.212c-.173-.216-.34-.436-.502-.66zM40.41 9.027l-.963 1.671c.445.258.875.538 1.29.839l1.128-1.562a16.87 16.87 0 00-1.455-.948zM22.374 39.118l-2.765 4.334c.81.51 1.653.971 2.525 1.38l2.17-4.663a18.153 18.153 0 01-1.93-1.051zm15.125 1.925c-.44.139-.888.258-1.34.363l1.165 5.011c.58-.135 1.154-.288 1.718-.466l-1.543-4.908zm14.247-30.009l-4.332 2.76a18.266 18.266 0 011.57 3.073l4.775-1.895a23.39 23.39 0 00-2.013-3.938zM32.016.166c-.873 0-1.734.052-2.582.146L30 5.425a18.315 18.315 0 012.015-.114c.57 0 1.135.03 1.692.082L34.184.27a23.483 23.483 0 00-2.168-.104zm2.713 32.065a8.95 8.95 0 01-.664.175l1.019 4.381c.335-.078.67-.159.995-.261l-1.35-4.295zm1.756 5.582c-.358.114-.723.21-1.092.296l.437 1.88c.417-.098.83-.207 1.234-.335l-.579-1.84zm9.702-23.239l-1.624 1.034c.324.51.614 1.041.876 1.59h2.107a16.808 16.808 0 00-1.359-2.624zm-2.767 1.762l-1.352.861h1.853a13.64 13.64 0 00-.501-.86zm3.92 14.14H45.2a14.931 14.931 0 01-.868 1.473l1.594 1.081a16.808 16.808 0 001.413-2.554zm4.22-.522a.532.532 0 00-.315.103 2.21 2.21 0 01-1.294.419h-1.028a18.244 18.244 0 01-1.794 3.37l4.252 2.884a23.361 23.361 0 002.997-6.252l-.008-.002h-1.186a2.25 2.25 0 01-1.313-.42.535.535 0 00-.312-.102z"/>
    <path d="M18.835 30.476h-2.15a16.888 16.888 0 001.68 2.918l1.588-1.092a15.027 15.027 0 01-1.118-1.826zm19.496-22.47l-.724 1.788c.637.26 1.251.562 1.84.904l.963-1.67a16.722 16.722 0 00-2.079-1.022zm11.639.592l-3.943 3.294a18.36 18.36 0 011.386 1.901l4.333-2.76a23.515 23.515 0 00-1.776-2.435zM35.417 5.634L36.373.58a23.208 23.208 0 00-2.188-.31l-.476 5.123a18.09 18.09 0 011.708.241zm5.323 11.564h1.327l1.351-.861a13.703 13.703 0 00-1.02-1.413l-2.709 2.263c.475.006.843.01 1.051.01zm4.172-4.374l-1.478 1.235c.408.49.784 1.01 1.129 1.55l1.624-1.035a16.87 16.87 0 00-1.275-1.75zM33.573 6.843l-.178 1.92c.47.044.934.111 1.39.198l.36-1.896a16.751 16.751 0 00-1.572-.222z"/>
  </g>
  <defs>
    <clipPath id="clip0_11489_64372">
      <path fill="#fff" d="M0 0h78v48H0z"/>
    </clipPath>
  </defs>
</svg>
