<svg width="100" height="20" viewBox="0 0 130 20" fill="none" xmlns="http://www.w3.org/2000/svg"><path fill-rule="evenodd" clip-rule="evenodd" d="M5.233.5c-.26.275-.555.692-.656.926-.1.234-.411.796-.69 1.249a88.7 88.7 0 00-1.1 1.852c-.326.566-.852 1.46-1.168 1.989-.317.528-.632 1.093-.7 1.255-.07.163-.189.337-.266.387C.465 8.28 0 9.263 0 9.537c0 .12.51.92 1.133 1.778a131.45 131.45 0 013.446 4.994c.595.913 1.08 1.375 1.454 1.382.302.005 1.346-.74 1.346-.962 0-.136 1.091-1.778 2.589-3.893.392-.554.8-1.145.906-1.314a4.87 4.87 0 01.328-.462c.074-.085.293-.376.486-.648.403-.566.473-1.412.153-1.845-.27-.364-.96-1.498-1.466-2.403a27.405 27.405 0 00-1.151-1.938c-.232-.361-.421-.689-.421-.728 0-.04-.19-.367-.42-.728-.664-1.036-.739-1.166-.94-1.63C7.2.584 6.484 0 6.043 0c-.218 0-.508.179-.811.5zm28.425 1.325c-.413.15-.467.232-.603.919a9.644 9.644 0 00-.163 1.303c-.019.682-.138.887-.676 1.157-.505.254-.688.886-.488 1.69.1.401.235.57.608.756l.48.24.074 3.908c.079 4.173.147 4.644.716 4.918.401.194 1.025.202 1.352.016.535-.303.574-.595.642-4.798l.064-4.046 1.295-.078c1.772-.105 2.136-.354 2.136-1.46 0-1.024-.595-1.41-2.177-1.41-1.177-.002-1.318-.117-1.32-1.07 0-1.24-.198-1.8-.715-2.03-.52-.229-.628-.23-1.225-.015zm10.163-.059c-.765.174-.774.256-.815 7.18-.04 6.836.005 7.404.632 7.76.478.273 1.386.128 1.648-.262.354-.527.38-.84.396-4.818l.015-3.807h2.566c2.903 0 3.59.14 3.874.784.115.262.162 1.303.163 3.599 0 1.8.06 3.456.134 3.74.163.622.548.931 1.156.928 1.26-.005 1.421-.54 1.425-4.719.003-4.006-.121-4.716-1.031-5.888-.286-.367-1.648-1.006-2.397-1.124-.356-.056-1.812-.14-3.236-.186l-2.59-.083-.08-1.141c-.093-1.33-.262-1.741-.799-1.94-.42-.154-.475-.155-1.06-.023zm32.604.03c-.337.103-.442.24-.615.802-.31 1.002-.313 12.14-.004 13.267.224.817.468 1.007 1.292 1.007.486 0 .892-.335 1.097-.905.184-.515.163-12.926-.023-13.492a1.002 1.002 0 00-.578-.638c-.485-.214-.594-.218-1.17-.042zm-57.784.079a9.268 9.268 0 00-.602.264c-.224.106-.469.193-.544.193-.075 0-.42.301-.768.67-.993 1.052-1.063 1.469-1.063 6.345 0 3.41.034 4.152.214 4.715.434 1.349.99 1.917 2.363 2.418.628.23 1.145.255 5.06.255 4.05 0 4.377-.017 4.575-.249.376-.44.505-1.041.352-1.643-.249-.979-.294-.988-4.501-.99-2.067 0-3.933-.06-4.19-.136a1.902 1.902 0 01-.75-.46c-.252-.286-.283-.448-.249-1.338l.038-1.014 4.402-.068c4.971-.078 5.04-.09 5.18-.978.141-.88-.038-1.62-.435-1.805-.228-.106-1.825-.184-4.745-.232l-4.402-.072-.039-.887c-.052-1.17.015-1.385.539-1.76.37-.265.666-.327 1.848-.39 2.077-.11 2.557-.408 2.557-1.588 0-.586-.055-.743-.356-1.017-.342-.312-.434-.324-2.323-.314-1.081.006-2.054.042-2.16.081zM5.948 4.154c-.11.092-.402.529-.647.97a38.74 38.74 0 01-.64 1.117 60.05 60.05 0 00-.622 1.049c-.234.404-.604 1.029-.82 1.388l-.394.653.69 1.037c.682 1.02 2.049 2.98 2.314 3.315.224.283.43.193.8-.346l1.456-2.127c.608-.889 1.106-1.754 1.106-1.924 0-.169-.204-.635-.453-1.036-.25-.401-.453-.755-.453-.787 0-.032-.19-.354-.42-.715-.542-.845-.65-1.03-1.16-1.981-.231-.434-.452-.787-.489-.785-.037.003-.157.08-.268.172zm56.465.937c-1.878.231-2.861 1.049-3.282 2.728-.191.764-.224 1.6-.227 5.86-.004 5.63.01 5.716.922 6.152.476.227.523.227 1.018-.01.285-.136.59-.339.677-.45.087-.111.189-.735.226-1.385l.067-1.182 3.3-.069c3.01-.062 3.353-.094 3.885-.358.835-.414 1.318-.888 1.681-1.65.309-.65.317-.749.32-3.822.001-2.591-.035-3.24-.204-3.635-.573-1.34-1.568-1.96-3.508-2.185-1.438-.168-3.483-.165-4.875.006zm23.414.01c-1.815.236-2.799 1.023-3.251 2.603-.24.839-.263 1.202-.216 3.576.045 2.31.085 2.722.32 3.268.384.893.944 1.422 1.947 1.839.873.362.89.363 3.919.322l3.042-.042.842-.448c1.558-.83 2.009-2.188 1.906-5.744-.091-3.178-.51-4.25-1.938-4.964-1.05-.523-4.194-.72-6.57-.41zm15.988.02c-1.805.279-2.7 1.053-3.092 2.675-.166.688-.21 1.59-.21 4.347 0 1.978.052 3.512.12 3.557.066.043.159.267.206.496.126.607 1.101.905 1.753.535.578-.328.64-.742.64-4.293 0-1.843.036-3.54.08-3.774.065-.343.182-.461.615-.624.294-.111.908-.237 1.363-.28.953-.09 1.108-.192 1.317-.861.181-.581-.016-1.47-.37-1.67-.399-.227-1.368-.27-2.422-.107zm9.451-.022c-1.282.155-2.235.613-2.774 1.334-.705.943-.787 1.407-.787 4.42 0 2.335.035 2.821.243 3.404.427 1.189.917 1.668 2.259 2.209.537.216.989.269 2.288.267.889-.001 1.684-.047 1.764-.103.081-.055.267-.327.413-.604.216-.408.243-.592.144-.96-.26-.973-.571-1.124-2.494-1.21-1.758-.08-1.94-.194-1.872-1.167l.038-.549 4.237-.069 4.237-.068.358-.38c.327-.346.363-.487.405-1.557.103-2.623-.309-3.864-1.505-4.527-.991-.55-4.307-.76-6.954-.44zm15.921-.006c-1.203.16-2.087.629-2.673 1.419-.145.195-.379.855-.519 1.467-.224.98-.25 1.503-.214 4.352.037 2.914.067 3.293.3 3.782.297.625.797.85 1.554.7.394-.079.512-.188.718-.669.222-.517.246-.933.249-4.16l.003-3.585.346-.24c.203-.141.801-.293 1.455-.37.61-.07 1.173-.184 1.251-.253.314-.276.443-1.133.257-1.707-.147-.455-.262-.575-.675-.709-.579-.187-.823-.19-2.052-.027zM62.232 8.104l-.488.273.035 2.705.035 2.704 2.654.04c3.346.05 3.41.04 3.676-.664.243-.643.29-3.58.07-4.418-.212-.81-.626-.926-3.277-.919-1.957.005-2.274.038-2.705.28zm23.466-.042l-.453.24-.035 2.49-.036 2.49.344.286c.322.268.504.287 2.834.287 2.322 0 2.512-.02 2.83-.285l.341-.284V8.374l-.35-.243c-.297-.207-.7-.248-2.686-.276-2.002-.027-2.4.002-2.79.207zm25.243-.007c-.404.218-.453.304-.453.793v.548h6.473l-.016-.526c-.028-.945-.125-.978-2.998-1.02-2.237-.034-2.609-.009-3.006.205z" fill="#7A7A82"/></svg>