<svg width="100" height="38" viewBox="0 0 120 38" fill="none" xmlns="http://www.w3.org/2000/svg"><g clip-path="url(#clip0_11489_64542)" fill-rule="evenodd" clip-rule="evenodd" fill="#7A7A82"><path opacity=".397" d="M9.361 19.094L6.083 20.92l-1.565-.632-3.649-2.994 8.492-4.728a.747.747 0 01.352-.087c.123 0 .245.03.353.087l8.444 4.705-3.99 3.354-1.147.313-3.307-1.843a.746.746 0 00-.353-.087.746.746 0 00-.352.087zm1.627-9.403l-3.036-.53L.869 4.814 9.361.087A.746.746 0 019.713 0c.123 0 .245.029.353.087l8.444 4.705-2.745 2.731-4.777 2.168zM8.002 35.362l-7.133-5.01.084-.047 8.408-4.682a.749.749 0 01.705 0l8.444 4.705-1.9 2-3.731 2.408-4.877.626z"/><path d="M0 19.058v-.461c.03-.225.103-.448.224-.657.167-.277.382-.485.645-.647l.083-.046c.55-.278 1.23-.29 1.804.034l4.909 2.728 1.294.721c.47.262 1.05.262 1.52 0l6.192-3.449a1.893 1.893 0 011.839-.011c.274.15.513.381.693.67A1.745 1.745 0 0119 20.01a2.165 2.165 0 01-.478.37l-7.68 4.288c-.347.185-.74.289-1.123.289a2.38 2.38 0 01-1.122-.29L.905 20.38A1.762 1.762 0 010 19.06zM0 6.58v-.462c.03-.225.103-.448.224-.656a1.89 1.89 0 01.645-.648l.083-.046a1.92 1.92 0 011.804.035L7.665 7.53l1.294.72c.47.263 1.05.263 1.52 0l6.192-3.448a1.894 1.894 0 011.839-.012c.274.15.513.382.693.67A1.745 1.745 0 0119 7.532a2.16 2.16 0 01-.478.37l-7.68 4.288c-.347.185-.74.29-1.123.29a2.38 2.38 0 01-1.122-.29L.905 7.901a1.842 1.842 0 01-.466-.37A1.762 1.762 0 010 6.58zm0 19.008v-.462c.03-.225.103-.448.224-.657.167-.277.382-.485.645-.647l.083-.046a1.92 1.92 0 011.804.034l4.909 2.728 1.294.721c.47.262 1.05.262 1.52 0l6.192-3.449a1.893 1.893 0 011.839-.011c.274.15.513.381.693.67a1.745 1.745 0 01-.203 2.07 2.163 2.163 0 01-.478.37l-7.68 4.288a2.42 2.42 0 01-1.123.289c-.394 0-.776-.104-1.122-.29L.905 26.909a1.845 1.845 0 01-.466-.37 1.761 1.761 0 01-.439-.95zM9.972 38h-.51a2.423 2.423 0 01-.865-.274L.905 33.437A1.762 1.762 0 010 32.117v-.462c.03-.225.103-.448.224-.657a1.89 1.89 0 01.645-.647l.083-.046a1.92 1.92 0 011.804.034l4.909 2.728 1.294.721c.47.262 1.05.262 1.52 0l6.192-3.449a1.893 1.893 0 011.839-.011c.274.15.513.381.693.67a1.745 1.745 0 01-.203 2.07 2.16 2.16 0 01-.478.37l-7.68 4.288c-.27.144-.57.24-.87.274z"/></g><path fill-rule="evenodd" clip-rule="evenodd" d="M31.422 15.807c0-.154.047-.283.14-.386.093-.104.23-.155.41-.155h1.55a.6.6 0 01.21.04.596.596 0 01.191.115c.056.05.103.108.14.173a.423.423 0 01.056.213v10.192c0 .355-.196.533-.588.533h-1.549c-.373 0-.56-.178-.56-.533V15.807zm0-3.928c0-.356.183-.534.55-.534h1.568c.175 0 .315.044.42.133.106.09.16.223.16.4v1.327c0 .137-.05.266-.15.388a.512.512 0 01-.42.182h-1.568c-.373 0-.56-.19-.56-.57V11.88zm5.609 3.644a.511.511 0 01.214-.178c.05-.047.125-.072.225-.075.099-.003.192-.004.28-.004h.942c.18 0 .314.056.401.168a.942.942 0 01.177.373l.103.94c.143-.201.319-.4.527-.595.209-.194.456-.37.742-.523.286-.154.613-.278.98-.372a4.963 4.963 0 011.241-.142c.734 0 1.388.125 1.96.377a4.167 4.167 0 011.447 1.033c.391.438.688.952.891 1.544a5.86 5.86 0 01.303 1.907v5.917c0 .213-.053.372-.158.479-.107.106-.259.16-.458.16H45.43c-.25 0-.415-.045-.5-.134-.083-.088-.126-.245-.126-.47V20.02a2.6 2.6 0 00-.168-.918 2.373 2.373 0 00-1.288-1.37 2.67 2.67 0 00-1.1-.213c-.287 0-.584.055-.892.164-.308.11-.59.264-.844.466a2.588 2.588 0 00-.635.731 1.954 1.954 0 00-.261.972V25.6c0 .112-.006.225-.019.337a.996.996 0 01-.08.302.523.523 0 01-.172.213.486.486 0 01-.29.08h-1.54c-.204 0-.355-.046-.452-.138-.096-.092-.144-.223-.144-.395V15.79a.44.44 0 01.112-.266zm13.13-.222c0-.526.084-1.033.252-1.521a3.88 3.88 0 01.737-1.291c.324-.373.72-.67 1.19-.892.47-.221 1.003-.332 1.6-.332h.094c.18 0 .32.052.42.155a.585.585 0 01.148.421v1.225a.666.666 0 01-.143.434.486.486 0 01-.398.178c-.093 0-.21.022-.354.066-.143.045-.28.114-.41.209a1.279 1.279 0 00-.336.364.957.957 0 00-.14.523v1.437h1.352c.18 0 .321.044.42.133.1.089.15.236.15.443v1.092c0 .207-.05.362-.15.465-.099.104-.24.156-.42.156h-1.352v7.39a.505.505 0 01-.197.43.701.701 0 01-.429.146h-1.447c-.186 0-.33-.055-.433-.165a.578.578 0 01-.154-.412v-7.39h-.924a.62.62 0 01-.439-.155c-.112-.103-.168-.258-.168-.465v-1.092c0-.207.056-.354.168-.443a.686.686 0 01.439-.133h.924V15.3zm8.212 5.589a3.493 3.493 0 002.086 3.215c.42.187.878.28 1.376.28a3.629 3.629 0 002.557-1.038 3.57 3.57 0 00.765-1.113c.187-.423.28-.87.28-1.344 0-.468-.093-.912-.28-1.335a3.575 3.575 0 00-.764-1.114 3.708 3.708 0 00-1.144-.762 3.53 3.53 0 00-1.414-.284c-.498 0-.956.094-1.376.284a3.49 3.49 0 00-1.825 1.876 3.469 3.469 0 00-.261 1.335zm9.706 5.118a.452.452 0 01-.07.262.483.483 0 01-.182.16.822.822 0 01-.257.08 1.96 1.96 0 01-.303.021H66.1c-.2 0-.338-.05-.415-.15a.998.998 0 01-.173-.382l-.056-.754a5.76 5.76 0 01-.723.581 5.195 5.195 0 01-1.825.781 4.968 4.968 0 01-1.054.111c-.56 0-1.1-.07-1.62-.209a6.424 6.424 0 01-1.46-.585 5.908 5.908 0 01-2.188-2.09 5.782 5.782 0 01-.616-1.392 5.465 5.465 0 01-.22-1.552c0-.538.074-1.056.22-1.553a5.778 5.778 0 011.568-2.568 6 6 0 011.236-.904 6.415 6.415 0 011.46-.586c.52-.14 1.06-.209 1.62-.209.398 0 .778.04 1.138.12.361.08.699.192 1.013.337.314.145.605.32.872.524.268.204.51.427.728.67l.131-.95c.031-.106.06-.194.089-.262a.51.51 0 01.102-.164.312.312 0 01.154-.084 1.02 1.02 0 01.233-.022h.934c.1 0 .199.009.298.027.1.018.19.045.271.084a.432.432 0 01.261.412v10.246zm6.457.524a4.775 4.775 0 01-1.386-.213 3.417 3.417 0 01-1.13-.591 2.804 2.804 0 01-.76-.95 2.845 2.845 0 01-.28-1.283V17.5h-1.073c-.18 0-.316-.038-.406-.115-.09-.076-.135-.203-.135-.38v-1.272c0-.171.045-.292.135-.363.09-.07.225-.105.406-.105h1.073c0-.314.002-.626.005-.936.003-.311.005-.623.005-.936 0-.119.039-.212.116-.28.078-.068.198-.128.36-.182l.382-.128c.15-.05.304-.099.463-.147.158-.047.312-.087.461-.12.15-.032.274-.048.374-.048.192 0 .318.05.377.15a.78.78 0 01.09.4c0 .372-.003.744-.005 1.113-.004.37-.005.741-.005 1.114h1.344c.161 0 .286.04.373.119.087.08.13.205.13.375v1.21c0 .19-.043.325-.13.407-.087.083-.212.124-.373.124h-1.344v1.684c0 .204.001.394.005.572.002.178.004.37.004.578v1.688l-.004.036-.005.035v1.164c0 .39.08.672.243.844.161.171.422.257.784.257.13 0 .232.045.307.133a.48.48 0 01.112.32v1.233a.47.47 0 01-.135.359.526.526 0 01-.378.129zm2.538-10.725c0-.154.047-.283.14-.386.094-.104.23-.155.411-.155h1.55a.6.6 0 01.209.04.595.595 0 01.191.115c.056.05.103.108.14.173a.424.424 0 01.056.213v10.192c0 .355-.196.533-.588.533h-1.549c-.373 0-.56-.178-.56-.533V15.807zm0-3.928c0-.356.183-.534.551-.534h1.567c.175 0 .315.044.42.133.106.09.16.223.16.4v1.327c0 .137-.05.266-.15.388a.513.513 0 01-.42.182h-1.567c-.374 0-.561-.19-.561-.57V11.88zm13.457 11.699a.896.896 0 01.265-.12.946.946 0 01.183-.022.354.354 0 01.27.16l.225.292.662.896c.03.041.056.084.075.129a.314.314 0 01.028.12.363.363 0 01-.103.252c-.069.074-.159.15-.27.226a7.56 7.56 0 01-1.713.887 5.831 5.831 0 01-2.02.338 6.333 6.333 0 01-3.066-.794 6.19 6.19 0 01-1.236-.905 5.952 5.952 0 01-.966-1.176 5.55 5.55 0 01-.626-1.392 5.463 5.463 0 01-.219-1.553 5.515 5.515 0 01.845-2.945c.27-.432.592-.823.966-1.175a6.201 6.201 0 012.692-1.49 6.197 6.197 0 011.61-.209c.69 0 1.343.1 1.959.301a6.006 6.006 0 011.643.817l-.01-.01c.087.084.173.156.257.218.084.062.126.158.126.289 0 .035-.002.076-.005.124a.247.247 0 01-.05.133l-.766 1.109c-.125.177-.262.265-.411.265-.106 0-.224-.05-.355-.15a4.037 4.037 0 00-1.11-.621 3.673 3.673 0 00-1.307-.24c-.485 0-.94.096-1.367.289a3.696 3.696 0 00-1.89 1.925c-.186.434-.28.891-.28 1.37 0 .491.094.953.28 1.384a3.57 3.57 0 001.886 1.885c.429.187.886.28 1.371.28.53 0 .987-.087 1.372-.262a5.38 5.38 0 001.055-.625zm5.608-2.688a3.496 3.496 0 002.086 3.215c.42.187.879.28 1.377.28a3.63 3.63 0 002.557-1.038 3.6 3.6 0 00.765-1.113 3.3 3.3 0 00.28-1.344c0-.468-.094-.912-.28-1.335a3.596 3.596 0 00-1.908-1.877 3.533 3.533 0 00-1.414-.283c-.498 0-.957.094-1.377.284-.42.189-.785.443-1.096.762a3.47 3.47 0 00-.728 1.114 3.472 3.472 0 00-.262 1.335zm9.706 5.118a.45.45 0 01-.07.262.484.484 0 01-.182.16.827.827 0 01-.257.08 1.95 1.95 0 01-.303.021h-1.167c-.199 0-.337-.05-.415-.15a1.009 1.009 0 01-.173-.382l-.056-.754a5.618 5.618 0 01-.723.581 5.171 5.171 0 01-1.825.781 4.96 4.96 0 01-1.054.111c-.56 0-1.1-.07-1.619-.209a6.425 6.425 0 01-1.46-.585 5.912 5.912 0 01-2.189-2.09 5.759 5.759 0 01-.615-1.392 5.454 5.454 0 01-.22-1.552c0-.538.073-1.056.22-1.553a5.754 5.754 0 011.567-2.568 6.03 6.03 0 011.237-.904c.454-.252.94-.447 1.46-.586.52-.14 1.06-.209 1.62-.209.397 0 .777.04 1.138.12.361.08.698.192 1.012.337.314.145.605.32.873.524.267.204.51.427.728.67l.131-.95a2.66 2.66 0 01.088-.262.503.503 0 01.103-.164.31.31 0 01.154-.084 1.01 1.01 0 01.233-.022h.933c.1 0 .199.009.299.027.099.018.189.045.27.084a.477.477 0 01.192.16c.047.068.07.152.07.252v10.246zm1.417-1.189c0-.165.022-.307.07-.425.046-.119.16-.178.341-.178h1.465c.074 0 .15.003.228.01a.697.697 0 01.214.048.42.42 0 01.164.115c.043.05.065.123.065.218v1.313c0 .082-.003.16-.009.23a.586.586 0 01-.051.195.318.318 0 01-.126.138.468.468 0 01-.234.049h-1.465c-.218 0-.382-.023-.494-.067-.113-.044-.168-.155-.168-.332v-1.314zm3.875-3.782c0-.078.024-.144.071-.197.048-.053.118-.08.211-.08h.793c.036 0 .071.007.107.02a.33.33 0 01.17.148.21.21 0 01.029.11v5.22c0 .183-.1.274-.301.274h-.794c-.191 0-.286-.091-.286-.273v-5.222zm0-2.012c0-.182.093-.273.282-.273h.802c.09 0 .162.022.216.068.054.046.081.114.081.205v.68c0 .07-.025.136-.077.198a.261.261 0 01-.214.094h-.804c-.191 0-.286-.098-.286-.292v-.68zm3.939 4.63c0 .242.044.472.133.688a1.732 1.732 0 00.94.948c.219.094.456.14.715.14a1.74 1.74 0 001.257-.522 1.808 1.808 0 00.498-1.254c0-.24-.044-.468-.132-.686a1.78 1.78 0 00-.922-.97 1.667 1.667 0 00-.701-.148 1.71 1.71 0 00-.715.148 1.812 1.812 0 00-.94.97 1.801 1.801 0 00-.133.686zm-1.348 0a2.859 2.859 0 01.43-1.514c.136-.22.301-.421.492-.602.191-.18.403-.334.635-.463a3.226 3.226 0 011.581-.407 3.233 3.233 0 012.212.87 2.903 2.903 0 01.922 2.116 2.866 2.866 0 01-.43 1.506 3.084 3.084 0 01-1.125 1.068 3.229 3.229 0 01-1.579.407 3.2 3.2 0 01-.834-.107 3.302 3.302 0 01-.747-.3 3.07 3.07 0 01-1.127-1.067 2.832 2.832 0 01-.43-1.507z" fill="#7A7A82"/><defs><clipPath id="clip0_11489_64542"><path fill="#fff" d="M0 0h19.451v38H0z"/></clipPath></defs></svg>