<svg width="80" height="48" fill="none" xmlns="http://www.w3.org/2000/svg"><path d="M42.8 19.525l-2 2.034s-1.649-1.631-3-2.034c-1.274-.38-2.156-.472-3.4 0-.893.339-1.515.59-2 1.424-.518.891-.643 1.711-.2 2.644.147.31.294.473.501.703l.099.11c.511.576.958.829 1.537 1.157.145.082.298.17.463.267.62.369 1.099.57 1.63.794.296.124.608.256.97.427.408.192.766.332 1.104.465.636.249 1.202.47 1.896.958.774.544 1.186.903 1.8 1.627.072.086.142.167.21.245l.002.003c.552.644.945 1.102 1.188 1.99.251.918.162 1.502 0 2.44-.098.57-.17.895-.4 1.424-.448 1.033-.95 1.511-1.8 2.237-1.07.914-1.846 1.275-3.2 1.628-1.589.413-2.608.403-4.2 0-.985-.25-1.512-.517-2.4-1.017-1.409-.794-3.2-2.645-3.2-2.645l2.2-2.033s1.251 1.244 2.2 1.83c.807.498 1.284.786 2.2 1.017 1.213.306 2.048.493 3.2 0 1.12-.48 1.796-1.072 2.2-2.237.312-.9.307-1.54 0-2.44-.344-1.009-1.042-1.404-1.855-1.865a11.581 11.581 0 01-.945-.577c-.9-.627-1.73-.904-2.554-1.18-.864-.288-1.72-.575-2.646-1.26-.289-.215-.57-.405-.837-.588-1.055-.72-1.917-1.306-2.363-2.666-.395-1.206-.38-2.044 0-3.255.343-1.09.821-1.613 1.6-2.44.973-1.035 1.668-1.57 3-2.034 1.7-.594 2.864-.47 4.6 0 .813.22 1.265.397 2 .813 1.066.604 2.4 2.034 2.4 2.034zM0 17.084h3.2v10.983h.4l9.2-10.983h3.6l-9.6 11.39v.407l10 10.983h-4L3.6 29.288h-.4v10.576H0v-22.78zm20.4 0h3.2v22.78h-3.2v-22.78z" fill="#7A7A82"/><path fill-rule="evenodd" clip-rule="evenodd" d="M45.2 39.864l10.4-22.78h.8l10.4 22.78h-3.2l-2.4-4.881H50.8l-2.4 4.881h-3.2zm6.8-7.728l3.6-8.95h.8l3.6 8.95h-8z" fill="#7A7A82"/><ellipse cx="77.599" cy="2.441" rx="2.4" ry="2.441" fill="#7A7A82"/><ellipse cx="77.599" cy="10.983" rx="2.4" ry="2.441" fill="#7A7A82"/><ellipse cx="77.599" cy="45.559" rx="2.4" ry="2.441" fill="#7A7A82"/><ellipse cx="77.599" cy="19.526" rx="2.4" ry="2.441" fill="#7A7A82"/><ellipse cx="77.599" cy="28.068" rx="2.4" ry="2.441" fill="#7A7A82"/><ellipse cx="77.599" cy="36.61" rx="2.4" ry="2.441" fill="#7A7A82"/><ellipse cx="70.8" cy="2.441" rx="2.4" ry="2.441" fill="#7A7A82"/><ellipse cx="70.8" cy="10.983" rx="2.4" ry="2.441" fill="#7A7A82"/><ellipse cx="70.8" cy="45.559" rx="2.4" ry="2.441" fill="#7A7A82"/><ellipse cx="70.8" cy="19.526" rx="2.4" ry="2.441" fill="#7A7A82"/><ellipse cx="70.8" cy="28.068" rx="2.4" ry="2.441" fill="#7A7A82"/><ellipse cx="70.8" cy="36.61" rx="2.4" ry="2.441" fill="#7A7A82"/><ellipse cx="64" cy="2.441" rx="2.4" ry="2.441" fill="#7A7A82"/><ellipse cx="64" cy="10.983" rx="2.4" ry="2.441" fill="#7A7A82"/><ellipse cx="64" cy="45.559" rx="2.4" ry="2.441" fill="#7A7A82"/><ellipse cx="64" cy="19.526" rx="2.4" ry="2.441" fill="#7A7A82"/><ellipse cx="57.201" cy="2.441" rx="2.4" ry="2.441" fill="#7A7A82"/><ellipse cx="57.201" cy="10.983" rx="2.4" ry="2.441" fill="#7A7A82"/><ellipse cx="57.201" cy="45.559" rx="2.4" ry="2.441" fill="#7A7A82"/></svg>