<svg width="110" height="21" fill="none" xmlns="http://www.w3.org/2000/svg"><g clip-path="url(#clip0_11489_64491)" fill="#7A7A82"><path d="M1.16.104A.772.772 0 000 .767v4.78c0 .546.294 1.051.77 1.325l12.482 7.162a5.188 5.188 0 005.16 0l12.48-7.162c.478-.274.772-.779.772-1.325V.767a.772.772 0 00-1.16-.663L17.637 7.487a3.632 3.632 0 01-3.61 0L1.158.104zm.001 9.191A.772.772 0 000 9.957v4.6c0 .545.292 1.049.767 1.323l8.37 4.832a.772.772 0 001.16-.661V15.45c0-.545-.292-1.049-.767-1.323L1.16 9.295zm29.342 0a.772.772 0 011.161.662v4.6c0 .545-.292 1.049-.767 1.323l-8.369 4.832a.772.772 0 01-1.16-.661V15.45c0-.545.291-1.049.766-1.323l8.37-4.832zm9.397 9.918c0 .282.23.51.515.51h2.24a.513.513 0 00.515-.51V9.861c0-.271.37-.355.489-.112l4.75 9.688a.515.515 0 00.463.287h.591a.515.515 0 00.463-.287l4.751-9.688c.12-.243.489-.159.489.112v9.352c0 .282.23.51.515.51h2.24a.513.513 0 00.514-.51V1.863c0-.282-.23-.51-.515-.51h-2.307a.515.515 0 00-.46.282L49.398 13.09a.258.258 0 01-.46 0L43.182 1.635a.515.515 0 00-.46-.282h-2.308a.513.513 0 00-.515.51v17.35zM62.307 3.522c0 .282.23.51.514.51h2.471a.513.513 0 00.515-.51V1.48c0-.282-.23-.51-.515-.51h-2.47a.513.513 0 00-.515.51v2.04zm0 15.692c0 .282.23.51.514.51h2.471a.512.512 0 00.515-.51V6.456c0-.282-.23-.51-.515-.51h-2.47a.513.513 0 00-.515.51v12.758zm7.333-.001c0 .282.231.51.516.51h2.522a.513.513 0 00.515-.51v-6.48c0-.86.094-1.548.284-2.067.197-.519.445-.91.746-1.174.3-.272.622-.455.965-.549.343-.093.665-.14.966-.14.746 0 1.321.166 1.724.498.412.331.708.744.888 1.237.18.493.288.987.322 1.48.035.485.052.885.052 1.2v5.995c0 .282.23.51.514.51h2.523a.512.512 0 00.515-.51v-7.22c0-.23-.017-.596-.051-1.098a8.677 8.677 0 00-.296-1.658 5.657 5.657 0 00-.824-1.76c-.377-.562-.91-1.026-1.596-1.391-.687-.366-1.575-.549-2.665-.549-1.004 0-1.879.166-2.625.498a5.808 5.808 0 00-1.401.867c-.18.151-.478.032-.478-.201v-.245c0-.282-.23-.51-.515-.51h-2.085a.513.513 0 00-.515.51v12.758zm24.313.583a.5.5 0 00.42-.495v-1.876a.53.53 0 00-.585-.518c-.598.056-1.153.068-1.667.036-.678-.043-1.171-.306-1.48-.791-.163-.255-.253-.596-.27-1.02a71.623 71.623 0 01-.013-1.455V9.135c0-.282.23-.51.514-.51h2.986a.512.512 0 00.516-.51v-1.66c0-.281-.23-.51-.516-.51h-2.986a.513.513 0 01-.514-.51V2.628c0-.281-.23-.51-.515-.51H87.37a.513.513 0 00-.514.51v2.807c0 .282-.231.51-.515.51h-1.339a.513.513 0 00-.515.51v1.66c0 .281.23.51.515.51h1.34c.283 0 .513.228.513.51v4.746c0 .825.01 1.565.027 2.22.016.646.197 1.284.54 1.913a3.328 3.328 0 001.648 1.468c.729.297 1.553.455 2.47.472a13.28 13.28 0 002.412-.158zm8.994.311c1.391 0 2.613-.306 3.669-.919a6.519 6.519 0 002.484-2.564c.601-1.097.901-2.36.901-3.79 0-1.42-.296-2.674-.888-3.763a6.499 6.499 0 00-2.485-2.577c-1.055-.62-2.282-.931-3.681-.931-1.373 0-2.587.306-3.643.919a6.522 6.522 0 00-2.483 2.564c-.601 1.088-.901 2.352-.901 3.789 0 1.42.291 2.68.875 3.776a6.54 6.54 0 002.47 2.565c1.057.62 2.283.931 3.682.931zm0-3.24c-1.089 0-1.918-.362-2.484-1.085-.557-.731-.836-1.714-.836-2.947 0-1.2.266-2.169.797-2.909.541-.748 1.382-1.123 2.523-1.123 1.107 0 1.94.366 2.497 1.098.567.731.85 1.71.85 2.934 0 1.182-.279 2.152-.837 2.909-.549.748-1.386 1.122-2.51 1.122z"/></g><defs><clipPath id="clip0_11489_64491"><path fill="#fff" d="M0 0h110v21H0z"/></clipPath></defs></svg>