<svg width="214" height="24" viewBox="0 0 214 24" fill="none" xmlns="http://www.w3.org/2000/svg">
<rect x="120.312" y="6.62012" width="79.8" height="9.01172" fill="white"/>
<path fill-rule="evenodd" clip-rule="evenodd" d="M117.279 3.96875H172.315H213.279V9.5133L207.698 9.4935V15.0579H202.129V20.6024H117.279V3.96875ZM128.445 14.6857V9.14111H122.864V14.6857H123.998V12.4678H127.329L127.34 14.6857H128.445ZM191.329 9.14111V10.2618H193.561V14.6857H194.677V10.25H196.91V9.14111H191.329ZM181.661 14.6857H187.235V11.3589H182.77V10.2618H187.235V9.14111H181.661V12.4678H186.118V13.5768H181.661V14.6857ZM167.51 14.6857H166.394V10.25L163.045 10.2618V14.6857H161.928V9.14111H167.51V14.6857ZM157.835 14.6857H151.881V9.14111H157.835V14.6857ZM152.999 13.5784V10.2517H156.72V13.5784H152.999ZM177.553 14.6847H171.6V9.14014H177.553V14.6847ZM172.717 13.5775V10.2507H176.438V13.5775H172.717ZM147.791 14.6837V13.5748H143.326V10.2599H147.791V9.13916H142.21V14.6837H147.791ZM132.535 14.6837H138.117V13.5748H133.652V9.13916H132.535V14.6837ZM123.972 10.2593H127.321V11.3564H123.972V10.2593Z" fill="#0075FF"/>
<path d="M99.4727 6.92676H101.334V9.91026H101.392C101.593 9.65487 101.853 9.45751 102.171 9.31821C102.489 9.1789 102.834 9.10924 103.206 9.10924C104.912 9.10924 105.765 10.0921 105.765 12.0579C105.765 13.0563 105.49 13.8225 104.939 14.3565C104.389 14.8828 103.605 15.1459 102.59 15.1459C102.109 15.1459 101.675 15.0995 101.287 15.0066C100.899 14.9137 100.616 14.8054 100.438 14.6816V7.70456H99.4727V6.92676ZM103.09 9.88705C102.625 9.88705 102.249 10.0186 101.962 10.2818C101.675 10.5449 101.465 10.9164 101.334 11.3962V14.0663C101.512 14.1591 101.725 14.2327 101.973 14.2868C102.221 14.341 102.481 14.3681 102.753 14.3681C103.063 14.3681 103.342 14.3255 103.59 14.2404C103.846 14.1475 104.063 14.0082 104.241 13.8225C104.42 13.629 104.555 13.3852 104.648 13.0911C104.749 12.797 104.8 12.4488 104.8 12.0463C104.8 11.7522 104.769 11.4736 104.706 11.2105C104.644 10.9473 104.544 10.719 104.404 10.5255C104.272 10.3243 104.098 10.1695 103.881 10.0612C103.664 9.94509 103.4 9.88705 103.09 9.88705Z" fill="white"/>
<path d="M110.04 14.1591H110.482L111.925 9.24855H112.867L111.25 14.461C111.165 14.7319 111.076 15.0376 110.983 15.3781C110.897 15.7264 110.773 16.0514 110.61 16.3532C110.448 16.6551 110.227 16.9105 109.947 17.1194C109.668 17.3284 109.304 17.4329 108.854 17.4329C108.753 17.4329 108.645 17.4213 108.528 17.3981C108.42 17.3748 108.311 17.3439 108.203 17.3052C108.094 17.2742 107.993 17.2355 107.9 17.1891C107.807 17.1427 107.738 17.0962 107.691 17.0498L108.017 16.2139C108.063 16.2526 108.125 16.2913 108.203 16.33C108.288 16.3687 108.377 16.3997 108.47 16.4229C108.571 16.4539 108.668 16.4771 108.761 16.4926C108.854 16.5158 108.932 16.5274 108.994 16.5274C109.575 16.5274 109.971 16.0359 110.18 15.053H109.401L106.958 9.24855H108.005L110.04 14.1591Z" fill="white"/>
<path fill-rule="evenodd" clip-rule="evenodd" d="M5.19683 7.34171H5.05131L5.22593 10.7481V20.031H1.44238V0.399508H4.93489L14.0558 13.4814H14.2014L13.9394 11.1256V0.399508H17.723V20.031H14.2305L5.19683 7.34171ZM25.656 0.763469C25.2097 1.17479 24.9866 1.67025 24.9866 2.24984C24.9866 2.84813 25.2097 3.33891 25.656 3.72219C26.1023 4.10547 26.7231 4.29711 27.5187 4.29711C28.3336 4.29711 28.9836 4.10547 29.4686 3.72219C29.9537 3.33891 30.1963 2.84813 30.1963 2.24984C30.1963 1.67025 29.9537 1.17479 29.4686 0.763469C28.9836 0.352144 28.3336 0.146484 27.5187 0.146484C26.7231 0.146484 26.1023 0.352144 25.656 0.763469ZM25.6864 17.0013H20.8053V20.0863H34.3993V17.0013H29.4699V6.06387H20.8053V9.14879H25.6864V17.0013ZM35.755 9.12463H32.8737V6.03968H35.755V2.84255L39.5386 1.80488V6.03968H47.1639V9.12463H39.5386V13.1351C39.5386 14.5747 39.8199 15.617 40.3826 16.2621C40.9453 16.9071 41.7311 17.2296 42.74 17.2296C43.2639 17.2296 43.7393 17.1689 44.1661 17.0473C44.593 16.9258 44.9762 16.7716 45.3158 16.5846C45.6553 16.3976 45.9658 16.192 46.2471 15.9676C46.5284 15.7432 46.7855 15.5376 47.0184 15.3506L48.7646 17.8747C48.4348 18.2486 48.0225 18.5898 47.5277 18.8983C47.0329 19.2068 46.4993 19.4779 45.927 19.7116C45.3546 19.9453 44.7579 20.1276 44.137 20.2585C43.5162 20.3894 42.905 20.4548 42.3035 20.4548C40.1303 20.4548 38.4957 19.8705 37.3994 18.702C36.3031 17.5335 35.755 15.6778 35.755 13.1351V9.12463ZM50.6165 16.9918H54.2254V9.1392H50.6165V6.05426H57.1649L57.6015 7.90523H57.7179C58.2612 7.28823 58.8821 6.77408 59.5806 6.36275C60.2791 5.95143 61.094 5.74576 62.0254 5.74576C63.1895 5.74576 64.1063 6.15709 64.7757 6.97974C65.4451 7.8024 65.7798 9.17659 65.7798 11.1024H62.3746C62.3746 10.4293 62.2727 9.93849 62.069 9.62999C61.8653 9.32149 61.5403 9.16725 61.094 9.16725C60.3179 9.16725 59.6922 9.35421 59.2168 9.72815C58.7414 10.1021 58.3388 10.5321 58.009 11.0182V16.9918H64.3246V20.0767H50.6165V16.9918ZM78.4406 6.17931C77.4895 5.82422 76.4025 5.64668 75.1796 5.64668C74.0343 5.64668 72.9861 5.8102 72.035 6.13726C71.0839 6.46432 70.2735 6.94555 69.6038 7.58097C68.9341 8.21639 68.4149 8.99664 68.0461 9.92175C67.6773 10.8468 67.4929 11.8981 67.4929 13.0755C67.4929 14.1968 67.6627 15.2107 68.0024 16.1171C68.3421 17.0235 68.8419 17.8037 69.5019 18.4579C70.1619 19.112 70.9674 19.6166 71.9185 19.9717C72.8697 20.3267 73.9567 20.5043 75.1796 20.5043C76.3248 20.5043 77.373 20.3408 78.3241 20.0137C79.2753 19.6866 80.0857 19.2054 80.7553 18.57C81.425 17.9346 81.9443 17.1543 82.3131 16.2292C82.6819 15.3041 82.8663 14.2529 82.8663 13.0755C82.8663 11.9541 82.6964 10.9403 82.3567 10.0339C82.0171 9.12747 81.5172 8.34722 80.8573 7.6931C80.1973 7.03899 79.3917 6.5344 78.4406 6.17931ZM73.4024 9.6563C73.9459 9.4881 74.5379 9.404 75.1785 9.404C75.9743 9.404 76.6537 9.49745 77.2166 9.68434C77.7795 9.87123 78.2454 10.1282 78.6142 10.4553C78.983 10.7823 79.2499 11.1701 79.4149 11.6186C79.5799 12.0672 79.6624 12.5531 79.6624 13.0764C79.6624 14.2538 79.2499 15.1602 78.4249 15.7956C77.6 16.431 76.5178 16.7487 75.1785 16.7487C73.6256 16.7487 72.4901 16.4077 71.7718 15.7255C71.0536 15.0434 70.6945 14.1603 70.6945 13.0764C70.6945 12.497 70.8062 11.9831 71.0294 11.5345C71.2526 11.086 71.568 10.7029 71.9757 10.3852C72.3833 10.0675 72.8588 9.8245 73.4024 9.6563ZM82.5331 20.1348H93.4604V23.1356H82.5331V20.1348Z" fill="white"/>
</svg>
