<svg width="94" height="24" viewBox="0 0 94 24" fill="none" xmlns="http://www.w3.org/2000/svg">
<path fill-rule="evenodd" clip-rule="evenodd" d="M5.19683 7.34171H5.05131L5.22593 10.7481V20.031H1.44238V0.399508H4.93489L14.0558 13.4814H14.2014L13.9394 11.1256V0.399508H17.723V20.031H14.2305L5.19683 7.34171ZM25.656 0.763469C25.2097 1.17479 24.9866 1.67025 24.9866 2.24984C24.9866 2.84813 25.2097 3.33891 25.656 3.72219C26.1023 4.10547 26.7231 4.29711 27.5187 4.29711C28.3336 4.29711 28.9836 4.10547 29.4686 3.72219C29.9537 3.33891 30.1963 2.84813 30.1963 2.24984C30.1963 1.67025 29.9537 1.17479 29.4686 0.763469C28.9836 0.352144 28.3336 0.146484 27.5187 0.146484C26.7231 0.146484 26.1023 0.352144 25.656 0.763469ZM25.6864 17.0013H20.8053V20.0863H34.3993V17.0013H29.4699V6.06387H20.8053V9.14879H25.6864V17.0013ZM35.755 9.12463H32.8737V6.03968H35.755V2.84255L39.5386 1.80488V6.03968H47.1639V9.12463H39.5386V13.1351C39.5386 14.5747 39.8199 15.617 40.3826 16.2621C40.9453 16.9071 41.7311 17.2296 42.74 17.2296C43.2639 17.2296 43.7393 17.1689 44.1661 17.0473C44.593 16.9258 44.9762 16.7716 45.3158 16.5846C45.6553 16.3976 45.9658 16.192 46.2471 15.9676C46.5284 15.7432 46.7855 15.5376 47.0184 15.3506L48.7646 17.8747C48.4348 18.2486 48.0225 18.5898 47.5277 18.8983C47.0329 19.2068 46.4993 19.4779 45.927 19.7116C45.3546 19.9453 44.7579 20.1276 44.137 20.2585C43.5162 20.3894 42.905 20.4548 42.3035 20.4548C40.1303 20.4548 38.4957 19.8705 37.3994 18.702C36.3031 17.5335 35.755 15.6778 35.755 13.1351V9.12463ZM50.6165 16.9918H54.2254V9.1392H50.6165V6.05426H57.1649L57.6015 7.90523H57.7179C58.2612 7.28823 58.8821 6.77408 59.5806 6.36275C60.2791 5.95143 61.094 5.74576 62.0254 5.74576C63.1895 5.74576 64.1063 6.15709 64.7757 6.97974C65.4451 7.8024 65.7798 9.17659 65.7798 11.1024H62.3746C62.3746 10.4293 62.2727 9.93849 62.069 9.62999C61.8653 9.32149 61.5403 9.16725 61.094 9.16725C60.3179 9.16725 59.6922 9.35421 59.2168 9.72815C58.7414 10.1021 58.3388 10.5321 58.009 11.0182V16.9918H64.3246V20.0767H50.6165V16.9918ZM78.4406 6.17931C77.4895 5.82422 76.4025 5.64668 75.1796 5.64668C74.0343 5.64668 72.9861 5.8102 72.035 6.13726C71.0839 6.46432 70.2735 6.94555 69.6038 7.58097C68.9341 8.21639 68.4149 8.99664 68.0461 9.92175C67.6773 10.8468 67.4929 11.8981 67.4929 13.0755C67.4929 14.1968 67.6627 15.2107 68.0024 16.1171C68.3421 17.0235 68.8419 17.8037 69.5019 18.4579C70.1619 19.112 70.9674 19.6166 71.9185 19.9717C72.8697 20.3267 73.9567 20.5043 75.1796 20.5043C76.3248 20.5043 77.373 20.3408 78.3241 20.0137C79.2753 19.6866 80.0857 19.2054 80.7553 18.57C81.425 17.9346 81.9443 17.1543 82.3131 16.2292C82.6819 15.3041 82.8663 14.2529 82.8663 13.0755C82.8663 11.9541 82.6964 10.9403 82.3567 10.0339C82.0171 9.12747 81.5172 8.34722 80.8573 7.6931C80.1973 7.03899 79.3917 6.5344 78.4406 6.17931ZM73.4024 9.6563C73.9459 9.4881 74.5379 9.404 75.1785 9.404C75.9743 9.404 76.6537 9.49745 77.2166 9.68434C77.7795 9.87123 78.2454 10.1282 78.6142 10.4553C78.983 10.7823 79.2499 11.1701 79.4149 11.6186C79.5799 12.0672 79.6624 12.5531 79.6624 13.0764C79.6624 14.2538 79.2499 15.1602 78.4249 15.7956C77.6 16.431 76.5178 16.7487 75.1785 16.7487C73.6256 16.7487 72.4901 16.4077 71.7718 15.7255C71.0536 15.0434 70.6945 14.1603 70.6945 13.0764C70.6945 12.497 70.8062 11.9831 71.0294 11.5345C71.2526 11.086 71.568 10.7029 71.9757 10.3852C72.3833 10.0675 72.8588 9.8245 73.4024 9.6563ZM82.5331 20.1348H93.4604V23.1356H82.5331V20.1348Z" fill="#7A7A82"/>
</svg>
