<svg width="130" height="35" fill="none" xmlns="http://www.w3.org/2000/svg"><g clip-path="url(#clip0_11489_64464)" fill="#7A7A82"><path d="M18.022.98v2.113h5.314V.98l-1.155.305L20.64.069l-1.618 1.239-1-.328zm-.154 3.169l2.773 2.79h.077l2.772-2.79h-5.622zM10.475 8.07l8.086 3.319-1.001 2.188c1.203 0 2.414-1.412 3.08-2.339h.078c.628.874 1.864 2.338 3.003 2.338l-.924-2.187c2.622-1.053 5.548-1.947 8.01-3.319-.467-.326-1.219-.383-1.772-.518-1.359-.333-2.723-.648-4.082-.981-.48-.118-1.451-.528-1.925-.362-.757.265-1.852 1.601-2.31 2.238-.65-.636-1.532-1.918-2.388-2.248-.49-.188-1.505.269-2.002.39-1.334.327-2.671.636-4.005.963-.585.143-1.332.21-1.848.518zm10.089 11.92c.409-.208.6-.68.831-1.056l1.402-2.263c.178-.29.642-.777.608-1.131-.026-.272-.35-.501-.531-.68-.518-.507-1.441-1.835-2.156-2.01-.3-.073-.589.324-.77.502-.515.502-1.03 1.004-1.54 1.509-.2.197-.53.44-.475.754.075.43.51.912.736 1.282.624 1.02 1.376 2.02 1.895 3.093z"/><path d="M7.932 14.77c0 .098.093.165.3.226.401.12.725.445.679.694-.016.105-1.702 4.247-3.743 9.202C1.055 34.88 1.363 34.231.47 34.548c-.347.128-.47.21-.47.309 0 .136.139.143 3.735.143 3.681 0 3.735 0 3.735-.15 0-.106-.054-.152-.169-.152-.54 0-1.217-.392-1.217-.701 0-.158 4.975-13.314 5.075-13.412.023-.03 2.164 3.199 4.744 7.181 2.588 3.976 4.73 7.22 4.768 7.212.038-.016 2.079-3.108 4.544-6.887a1889.35 1889.35 0 014.713-7.22l.23-.354 2.573 6.721c2.472 6.442 2.572 6.729 2.457 6.917-.131.242-.57.468-.994.52-.238.031-.308.076-.308.182 0 .136.139.143 3.735.143 3.605 0 3.736-.007 3.736-.143 0-.106-.108-.174-.393-.264-.724-.234-.955-.445-1.248-1.124-1.278-2.995-7.293-17.711-7.293-17.847 0-.226.308-.505.685-.619.224-.06.316-.135.316-.233 0-.129-.139-.136-3.003-.136-2.958 0-3.004 0-3.004.15 0 .106.092.19.308.272.54.211.593.52.208 1.177-.678 1.177-7.262 11.36-7.309 11.315-.184-.189-7.447-11.67-7.47-11.82-.062-.287.1-.513.462-.68.2-.09.324-.196.324-.278 0-.129-.178-.136-3.004-.136-2.865 0-3.004.007-3.004.136zm49.798 1.945a4.142 4.142 0 00-1.978 1.147c-2.11 2.21-1.117 5.755 1.848 6.608.246.068.7.12 1.086.12 1.232 0 2.125-.362 2.95-1.199.808-.814 1.131-1.614 1.131-2.753 0-1.2-.338-2.03-1.155-2.844-1-1.003-2.48-1.41-3.881-1.079zm1.657 1.803c.777.272 1.293.822 1.494 1.6.446 1.712-1.417 3.228-3.058 2.496-1.086-.49-1.625-1.674-1.224-2.708.446-1.154 1.679-1.765 2.788-1.388zm22.519-1.833c-1.063.196-2.242 1.064-2.735 2.022-.346.671-.462 1.131-.462 1.886 0 1.206.324 1.983 1.194 2.828.593.589 1.094.883 1.771 1.056.593.151 1.664.144 2.203-.007 1.471-.423 2.572-1.57 2.88-3.01.14-.664.14-1.071 0-1.72-.454-2.112-2.61-3.47-4.852-3.055zm1.81 1.946c.47.227.816.566 1.062 1.019.277.513.293 1.342.031 1.855-.724 1.434-2.61 1.735-3.674.581-.662-.709-.785-1.569-.362-2.421.278-.55.647-.89 1.233-1.116.477-.197 1.232-.159 1.71.082zm-36.12 2.037v3.772h1.771v-2.263h.909c2.064 0 3.165-.717 3.411-2.21.162-.958-.192-1.947-.877-2.482-.67-.513-1.094-.588-3.297-.588h-1.917v3.771zm3.75-2.09c.131.069.316.22.4.325.216.271.224.875.008 1.214-.238.393-.539.498-1.517.536l-.87.038v-2.308l.87.037c.601.023.94.076 1.11.159zm12.962 2.09v3.772h1.694v-2.414h.64l.63.007.81 1.185.808 1.184 1.032.022c.886.016 1.024.008.986-.09-.03-.068-.44-.671-.909-1.343-.762-1.086-.847-1.23-.724-1.305 1.07-.626 1.425-1.191 1.425-2.3 0-1.215-.562-1.992-1.687-2.339-.439-.135-.7-.15-2.595-.15h-2.11v3.771zm4.043-2.097c.424.219.54.407.54.89 0 .385-.032.475-.217.664-.3.31-.67.392-1.74.392h-.932V18.39l1.063.03c.77.023 1.117.06 1.286.151zm3.35-.883v.793h2.31v5.959h1.772v-5.96h2.31v-1.584h-6.392v.793zM60.103 27.11c-.994.226-1.987.905-2.534 1.742a3.979 3.979 0 00.424 4.888c.8.86 1.732 1.252 2.972 1.26 1.279 0 2.057-.31 2.927-1.162.824-.814 1.186-1.66 1.186-2.798 0-.996-.254-1.72-.87-2.512-.886-1.139-2.642-1.742-4.105-1.418zm1.586 1.833c.478.15 1.094.664 1.325 1.109.223.43.27 1.199.108 1.69-.177.505-.647 1.018-1.179 1.274-.354.166-.539.204-.954.204-.878-.015-1.572-.438-2.01-1.26-.255-.46-.247-1.388.007-1.863.547-1.034 1.625-1.494 2.703-1.154zm63.614-1.894c-2.565.49-4.043 2.957-3.204 5.326.37 1.033 1.025 1.742 2.103 2.263.624.302.685.317 1.517.347.67.023.97 0 1.325-.098 1.386-.392 2.433-1.403 2.834-2.746.138-.467.161-1.599.038-2.12-.285-1.214-1.309-2.315-2.572-2.76-.508-.181-1.602-.294-2.041-.212zm1.263 1.871c.793.234 1.34.807 1.556 1.63.192.739-.039 1.485-.639 2.051-1.263 1.2-3.374.543-3.736-1.169-.223-1.04.424-2.112 1.502-2.474.493-.166.84-.173 1.317-.038zm-18.36-1.66c-2.018.551-3.204 2.467-2.827 4.55.216 1.168.994 2.217 1.995 2.692 1.517.717 3.512.513 4.975-.505l.324-.227V30.4h-3.389v1.508h1.694v1.041l-.4.174c-.539.234-1.379.279-1.895.113-.516-.174-1.039-.634-1.301-1.162-.277-.558-.301-1.44-.046-1.984.639-1.395 2.264-1.772 3.588-.844.208.143.386.248.401.233.216-.226 1.04-1.237 1.04-1.274 0-.098-.478-.453-.855-.642a5.16 5.16 0 00-.817-.294c-.539-.136-1.994-.143-2.487-.007zm-60.61 3.742v3.772h1.771v-4.64l1.001 1.472c.547.807 1.032 1.47 1.078 1.47.047 0 .555-.694 1.117-1.538l1.04-1.547v4.783h1.694v-7.551l-.94.023-.939.022-.963 1.524c-.531.837-.986 1.509-1.009 1.493-.03-.015-.477-.709-1-1.538l-.963-1.516h-1.887v3.771zm18.868 0v3.772h1.695l.015-2.309.023-2.308 1.794 2.308 1.795 2.309h1.532V27.23h-1.77l-.016 2.217-.023 2.21-1.718-2.21-1.725-2.217h-1.602v3.771zm8.087-2.98v.793h2.387v5.959h1.694v-5.96h2.388v-1.583h-6.47v.792zm7.701 2.98v3.772h5.853v-1.509h-4.082v-1.509h3.543v-1.508h-3.543v-1.433h4.082V27.23h-5.853v3.771zm7.394 0v3.772h1.694l.015-2.293.023-2.294 1.772 2.294 1.77 2.285.794.008h.786V27.23h-1.772l-.015 2.232-.023 2.233-1.733-2.233-1.733-2.232h-1.579v3.771zm8.625 0v3.772h5.93v-1.509h-4.159v-1.509h3.62v-1.508h-3.62v-1.433h4.082V27.23h-5.853v3.771zm16.019-.007v3.779h1.694v-2.339h1.286l.794 1.17.793 1.169h1.024c.57 0 1.032-.015 1.032-.03 0-.016-.4-.604-.885-1.298-.486-.694-.886-1.29-.886-1.32 0-.03.115-.098.246-.15.378-.152.817-.574 1.048-1.004.185-.347.208-.46.208-1.184 0-.74-.016-.83-.231-1.237-.27-.52-.771-.928-1.379-1.14-.331-.113-.732-.135-2.564-.165l-2.18-.03v3.779zm4.051-2.037c.747.332.755 1.418.008 1.765-.208.098-.501.128-1.317.128h-1.048v-2.036h1.025c.824 0 1.078.03 1.332.143z"/></g><defs><clipPath id="clip0_11489_64464"><path fill="#fff" d="M0 0h130v35H0z"/></clipPath></defs></svg>