<?xml version="1.0"?>
<svg xmlns="http://www.w3.org/2000/svg" width="110" height="43" fill="none">
  <path d="M62.33 41.842c-.43-.254-.68-.653-.788-1.123l.789-.145c.036.145.107.29.179.434a.706.706 0 00.322.326c.143.073.323.181.502.218.215.036.43.073.753.073.25 0 .466-.036.645-.073.215-.036.359-.109.502-.18a.712.712 0 00.323-.327 1.02 1.02 0 00.107-.47c0-.182-.036-.364-.143-.472a.981.981 0 00-.359-.29 2.154 2.154 0 00-.573-.181c-.216-.036-.467-.109-.753-.18-.18-.037-.322-.074-.502-.11-.179-.036-.322-.108-.466-.144a157.71 157.71 0 00-.43-.218c-.144-.073-.251-.181-.359-.29a.876.876 0 01-.215-.398c-.072-.145-.072-.326-.072-.508 0-.29.072-.543.18-.724.107-.218.286-.362.465-.507.215-.145.43-.218.717-.29.287-.072.573-.072.896-.072.359 0 .681.036.932.072.251.073.466.145.645.254.18.109.323.254.43.434.108.181.179.363.251.617l-.788.144c-.036-.144-.108-.254-.18-.398a1.074 1.074 0 00-.286-.29 1.527 1.527 0 00-.43-.181 2.835 2.835 0 00-.61-.072c-.286 0-.501.036-.68.072-.18.072-.323.109-.467.218a.968.968 0 00-.25.29 1.299 1.299 0 00-.073.361c0 .182.036.326.144.436.107.108.215.217.358.289.144.072.323.145.538.181.215.036.394.109.645.145.18.036.359.073.538.145.179.036.358.109.537.144.144.073.323.146.467.218.144.073.286.181.394.29.107.109.18.254.25.435.073.144.108.362.108.58 0 .253-.035.47-.143.687a1.35 1.35 0 01-.466.544c-.216.144-.466.29-.753.362a4.827 4.827 0 01-1.075.145c-.753 0-1.326-.145-1.72-.398l-.035-.073zm9.07.145a2.183 2.183 0 01-.933-.653 3.329 3.329 0 01-.573-.978 4.433 4.433 0 010-2.5c.107-.362.322-.688.573-.977.251-.254.538-.472.932-.616.359-.145.789-.218 1.29-.218.359 0 .682.036.968.109.287.073.502.145.717.29.215.108.358.253.501.434.144.181.251.362.36.58l-.754.217c-.072-.145-.143-.29-.25-.398a1.397 1.397 0 00-.36-.29 2.039 2.039 0 00-.501-.18 3.516 3.516 0 00-.645-.074c-.36 0-.681.073-.932.181-.251.11-.502.254-.646.471a1.943 1.943 0 00-.394.762 4.058 4.058 0 00-.108.977c0 .363.036.689.144.978.107.29.215.544.394.761.18.218.394.399.681.508.251.108.574.18.932.18.25 0 .43-.036.645-.073.18-.035.359-.108.538-.144l.43-.218a.982.982 0 00.287-.253v-1.087h-1.757v-.689h2.51v2.065c-.144.145-.287.254-.467.399a4.618 4.618 0 01-.61.326c-.215.072-.465.18-.716.217a5.829 5.829 0 01-.824.073 3.77 3.77 0 01-1.326-.218l-.107.038zm-21.543.145v-5.978h1.972c.466 0 .896.073 1.255.18.394.11.716.29 1.003.544.287.254.502.544.645.906.144.363.251.797.251 1.304s-.071.942-.215 1.34a2.83 2.83 0 01-.61.943c-.25.253-.573.434-.931.579-.359.145-.717.181-1.147.181h-2.223zm6.237 0v-5.978h4.516v.652h-3.692v1.92h3.441v.652h-3.44v2.1h3.87v.654h-4.695zm11.577 0v-5.978h.824v5.977h-.824zm8.997 0v-5.978h.932l3.19 5.144c0-.145 0-.29-.036-.434 0-.11 0-.254-.036-.399v-4.311h.717v5.977h-.968l-3.154-5.107v.398c0 .109 0 .254.036.362v4.348h-.717.036zm-23.836-.797c.252-.11.503-.254.681-.472.18-.217.36-.471.467-.76a3.06 3.06 0 00.178-1.052c0-.398-.071-.76-.178-1.05-.107-.29-.287-.507-.502-.724a1.894 1.894 0 00-.753-.399c-.287-.108-.61-.145-.968-.145H50.61v4.674h1.326c.323 0 .61-.036.86-.145l.036.072zm14.66-6.63a2.302 2.302 0 01-.896-.652c-.25-.29-.43-.617-.538-.978a4.646 4.646 0 01-.179-1.232c0-.471.072-.906.18-1.268.143-.363.321-.688.572-.978.252-.254.538-.472.897-.616a3.185 3.185 0 011.218-.217c.646 0 1.147.108 1.578.361.43.255.716.617.931 1.123l-.753.254c-.072-.144-.143-.29-.215-.398a1.696 1.696 0 00-.358-.363c-.144-.108-.323-.18-.503-.253a1.707 1.707 0 00-.645-.109 2.33 2.33 0 00-.896.181c-.25.108-.466.29-.645.471-.18.217-.322.471-.394.76-.072.29-.144.617-.144.979s.036.688.144.978c.107.29.25.543.43.76.179.218.394.4.645.508a2.3 2.3 0 00.896.181c.251 0 .43-.036.61-.072.179-.073.358-.146.502-.255.143-.108.286-.253.43-.398.107-.144.215-.326.322-.507l.645.326a3.61 3.61 0 01-.394.616 2.615 2.615 0 01-1.29.833 3.572 3.572 0 01-.896.109c-.466 0-.897-.073-1.255-.218v.074h.001zm17.706 0a2.42 2.42 0 01-.932-.652 2.615 2.615 0 01-.537-.978 4.626 4.626 0 01-.18-1.232c0-.471.072-.906.18-1.268.143-.363.322-.688.573-.978.25-.254.573-.472.932-.616a3.378 3.378 0 011.255-.217c.465 0 .896.072 1.254.217.359.144.681.362.932.616.25.253.43.58.573.978.144.362.18.797.18 1.268s-.073.906-.216 1.268c-.143.399-.322.725-.573.978-.251.29-.573.471-.932.616a3.378 3.378 0 01-1.255.218c-.502 0-.932-.073-1.29-.218h.036zm15.341 0a2.305 2.305 0 01-.896-.652 2.62 2.62 0 01-.538-.978 4.642 4.642 0 01-.179-1.232c0-.471.072-.906.18-1.268.107-.363.321-.688.572-.978.251-.254.538-.472.897-.616a3.18 3.18 0 011.218-.217c.646 0 1.147.108 1.577.361.43.255.753.617.932 1.123l-.753.254c-.072-.144-.143-.29-.215-.398a1.692 1.692 0 00-.358-.363c-.144-.108-.323-.18-.503-.253a1.835 1.835 0 00-.645-.109 2.33 2.33 0 00-.896.181c-.251.108-.466.29-.645.471-.179.217-.287.471-.394.76-.108.29-.144.617-.144.979s.036.688.144.978c.107.29.251.543.43.76.179.218.394.4.68.508.251.11.574.181.897.181.215 0 .43-.036.609-.072.179-.073.359-.146.502-.255a2.06 2.06 0 00.394-.398c.108-.144.216-.326.323-.507l.645.326a3.665 3.665 0 01-.394.616 2.634 2.634 0 01-.574.507 2.159 2.159 0 01-.716.326 3.602 3.602 0 01-.897.109 3.37 3.37 0 01-1.254-.218v.074h.001zm5.34-.145c-.43-.254-.681-.652-.788-1.123l.788-.145c.036.145.108.29.179.435.072.109.179.253.323.326.143.072.322.18.501.217.215.036.467.073.753.073.251 0 .467-.036.646-.073.215-.036.358-.109.502-.18a.712.712 0 00.322-.327c.072-.145.108-.29.108-.47 0-.182-.036-.363-.144-.472a.977.977 0 00-.359-.29 2.14 2.14 0 00-.573-.181c-.215-.072-.466-.108-.753-.18-.179-.037-.322-.074-.502-.11-.179-.035-.322-.108-.466-.144a86.23 86.23 0 00-.43-.218 1.415 1.415 0 01-.358-.29c-.108-.109-.179-.253-.251-.398-.072-.145-.072-.326-.072-.508 0-.29.072-.543.179-.723.108-.218.286-.363.466-.508.215-.145.43-.218.717-.29.287-.072.573-.072.896-.072.358 0 .681.036.932.073.251.072.466.144.645.253.179.109.323.254.43.434.108.181.179.363.251.58l-.789.145c-.035-.145-.072-.29-.179-.399a1.081 1.081 0 00-.287-.29 1.181 1.181 0 00-.429-.18c-.179-.036-.359-.073-.61-.073-.287 0-.502.036-.681.073a1.11 1.11 0 00-.466.217.991.991 0 00-.251.29 1.294 1.294 0 00-.072.362c0 .182.036.326.143.435a.995.995 0 00.359.29c.143.072.322.145.537.18.216.073.431.11.646.146.179.036.359.072.538.144.178.037.358.073.502.145.178.073.322.145.465.218.144.073.287.18.395.29.107.108.179.253.251.434.072.145.108.363.108.58 0 .253-.036.47-.144.688a1.603 1.603 0 01-.43.543 2.44 2.44 0 01-.753.363 4.516 4.516 0 01-1.075.145c-.753 0-1.326-.145-1.72-.399v-.036zm-56.022.29v-5.978h4.517v.653h-3.692v1.92h3.44v.651h-3.44v2.102h3.87v.652h-4.694zm5.736 0v-5.978h.788v5.326h3.01v.652h-3.798zm4.802 0v-5.978h4.516v.653h-3.692v1.92h3.441v.651h-3.44v2.102h3.87v.652h-4.695zm13.513 0v-5.325h-2.043v-.653h4.875v.653h-2.043v5.325h-.789zm3.728 0v-5.978h2.795c.322 0 .645.037.896.11.251.072.466.18.645.326.18.144.323.325.395.542.107.218.143.435.143.725 0 .18-.036.362-.072.543-.072.181-.143.363-.251.508-.108.144-.287.29-.466.398-.18.109-.394.181-.645.254l1.684 2.572h-.931l-1.542-2.5h-1.863v2.5h-.788zm12.939 0v-5.978h.931l3.19 5.145c0-.145 0-.29-.036-.399v-4.709h.717v5.977h-.968l-3.19-5.108c0 .145 0 .29.037.435 0 .109 0 .253.035.363v4.31h-.716v-.036zm6.308 0v-5.978h.824v5.978h-.824zm-9.427-.76c.251-.11.466-.29.645-.508.18-.218.287-.471.395-.761.071-.29.107-.652.107-.978 0-.362-.036-.688-.143-.978-.108-.29-.215-.543-.394-.76a1.657 1.657 0 00-.646-.472 2.514 2.514 0 00-.931-.181c-.359 0-.681.073-.932.181-.287.109-.502.29-.681.472-.18.217-.323.47-.395.76-.072.29-.143.616-.143.978 0 .363.036.688.143.978.108.29.215.543.395.761.179.218.394.398.68.507.287.11.574.181.933.181.358 0 .68-.072.967-.18zm-6.488-2.465c.18-.072.287-.144.43-.253a1.27 1.27 0 00.251-.363c.073-.144.073-.29.073-.434 0-.181-.036-.326-.108-.471-.072-.145-.143-.254-.287-.326-.107-.11-.25-.145-.43-.181-.179-.036-.358-.073-.573-.073h-1.9v2.21h1.936c.215 0 .43-.036.61-.072v-.037h-.002zm-28.781-6.701l-2.975-11.665h2.258l2.007 8.513 2.043-8.513h2.365l2.043 8.621 2.007-8.621h2.258L61.22 24.924h-2.653l-1.864-8.296-1.863 8.296h-2.652zm11.397 0l4.194-11.665h2.366l4.193 11.665H72.08l-1.003-2.97h-4.194l-1.004 2.97h-2.294zm11.613 0V13.259h3.62c.896 0 1.72.108 2.438.326.753.217 1.398.58 1.936 1.05.537.471.967 1.05 1.254 1.775.287.725.43 1.558.43 2.572 0 .978-.143 1.812-.43 2.572a5.437 5.437 0 01-1.183 1.848c-.502.508-1.111.87-1.792 1.123a6.365 6.365 0 01-2.223.399h-4.086.036zm5.52-2.174c.394-.18.753-.434 1.075-.76.287-.326.538-.761.717-1.232.179-.507.25-1.05.25-1.739 0-.688-.107-1.232-.286-1.739-.18-.47-.43-.87-.752-1.195a3.353 3.353 0 00-1.148-.689c-.43-.144-.932-.217-1.505-.217h-1.72v7.789h2.043c.466 0 .932-.073 1.326-.254v.036zm-10.25-2.644l-1.506-4.384-1.47 4.384h2.975zm.537-8.441c-.645-.254-1.29-.761-1.756-1.304a5.225 5.225 0 01-1.04-1.92 8.794 8.794 0 01-.358-2.428c0-.869.107-1.63.359-2.39.25-.761.573-1.377 1.04-1.92.465-.544 1.074-.978 1.755-1.305A6.079 6.079 0 0173.226 0c.789 0 1.434.109 2.115.398.681.29 1.29.725 1.792 1.268.467.544.86 1.16 1.111 1.92.251.761.395 1.522.395 2.427 0 .906-.108 1.74-.395 2.5-.25.76-.645 1.377-1.11 1.92a4.63 4.63 0 01-1.793 1.268c-.573.253-1.183.362-2.114.362-.825 0-1.47-.108-2.223-.398zm-21.757.217V.254h3.37c.752 0 1.362.072 1.9.29.537.18 1.003.434 1.325.76.359.326.61.725.789 1.16.178.47.25.941.25 1.485 0 .507-.072.978-.25 1.449-.18.47-.43.87-.753 1.231a3.34 3.34 0 01-1.326.834c-.538.217-1.147.326-1.9.326H51.29v4.093h-2.114.072zm9.284 0V.254H61.9c.717 0 1.362.072 1.9.253.537.181 1.003.399 1.362.688.358.29.645.689.823 1.087.18.435.251.906.251 1.45 0 .434-.071.832-.178 1.195a2.618 2.618 0 01-.538.978c-.215.29-.502.507-.788.688l-.502.254 4.3 5.035h-2.867l-3.584-4.42h-1.398v4.42H58.53zm21.72 0V.254h2.76l2.617 5.65 2.58-5.65h2.76v11.628h-2.114V3.514l-2.545 5.579h-1.398l-2.544-5.58v8.37H80.25zm-5.699-1.956c.394-.217.716-.435 1.004-.833a4.6 4.6 0 00.61-1.34 7.861 7.861 0 000-3.333c-.144-.508-.323-.979-.61-1.34-.251-.363-.573-.617-.968-.834-.394-.217-.931-.29-1.361-.29-.43 0-.932.073-1.327.29-.394.217-.717.47-.967.833-.287.362-.502.833-.646 1.34a5.783 5.783 0 00-.215 1.63c0 .617.072 1.196.215 1.703.144.507.359.978.646 1.34.286.363.609.617 1.003.834.395.217.86.29 1.291.29.465 0 .93-.073 1.325-.29zM53.621 5.76c.25-.073.466-.217.645-.399a1.33 1.33 0 00.358-.615c.072-.254.108-.508.108-.797 0-.58-.179-1.05-.538-1.34-.358-.29-.86-.472-1.577-.472h-1.29v3.695h1.326c.358 0 .68-.036.932-.145l.036.073zm9.318-.326a1.87 1.87 0 00.645-.362c.252-.254.466-.544.466-1.232 0-.543-.179-.978-.537-1.232-.358-.253-.86-.398-1.541-.398H60.68v3.369h1.362c.358 0 .645-.036.896-.145zM.108 42.783v-1.956h2.258l1.039 1.05a.617.617 0 00-.108.363c0 .217.108.435.251.543H1.756a.64.64 0 00.286-.543.684.684 0 00-.68-.688.684.684 0 00-.681.688c0 .217.108.435.286.543H.108zm4.587-.543a.684.684 0 00-.681-.688c-.108 0-.215.036-.322.073L2.58 40.502c-.036-.037-.072-.073-.144-.073H.107v-.254h1.255a.684.684 0 00.681-.688.708.708 0 00-.681-.688.684.684 0 00-.68.688c0 .109.035.218.071.326H.108v-.616l.645-.653h1.72c.036 0 .108-.036.144-.036l.394-.398c.036-.036.072-.073.072-.145v-4.89a.274.274 0 00-.072-.146l-1.003-1.014a.698.698 0 00.071-.29.684.684 0 00-.68-.688.663.663 0 00-.682.688c0 .363.323.689.681.689a.6.6 0 00.359-.109l.932.941v4.747l-.287.29H.682c-.036 0-.108 0-.143.035l-.43.435v-.978l.215-.181H1.36a.684.684 0 00.681-.688.684.684 0 00-.68-.689c-.359 0-.681.326-.681.69 0 .107.035.217.072.325H.215c-.036 0-.072.035-.107.035v-1.23h.537a.268.268 0 00.144-.074l.967-.977a.67.67 0 00.395-.617.684.684 0 00-.681-.687.684.684 0 00-.681.687c0 .29.178.544.43.653l-.646.616H.107v-5.036h2.58l2.367 2.391v8.08a.41.41 0 00.107.289l.681.688c-.036.073-.036.145-.036.254 0 .072 0 .145.036.181l-.359.362H4.408a.64.64 0 00.287-.543v.036zm2.509 0a.703.703 0 00-.645-.688l-.717-.724v-8.08a.41.41 0 00-.108-.289l-2.58-2.609a.406.406 0 00-.287-.108H.107v-1.45l.789.798a.684.684 0 001.147-.507.684.684 0 00-.682-.689.669.669 0 00-.645.471l-.609-.616v-1.702H.68c.072.29.359.507.681.507a.708.708 0 00.681-.688.708.708 0 00-.681-.689c-.322 0-.573.218-.68.507H.106v-.76l.896-.906c.108.072.216.072.358.072a.708.708 0 00.681-.687.684.684 0 00-.68-.69c-.395 0-.681.29-.681.69 0 .108.035.217.072.325l-.645.652v-1.449l1.756-1.775a.692.692 0 00.178-.47.684.684 0 00-.68-.69.684.684 0 00-.681.69c0 .325.179.579.466.651L.072 22.424V16.99l.645.652a.617.617 0 00-.108.362c0 .398.323.688.681.688a.708.708 0 00.681-.688.684.684 0 00-.68-.688.849.849 0 00-.323.072l-.932-.942v-3.441h2.76l5.842 5.905v9.201c0 .036.036.11.072.145l7.635 7.607c.035.037.071.073.143.073h6.99l.501.544c.036.036.072.036.143.036h1.542a.708.708 0 00.645.434c.359 0 .68-.29.68-.688 0-.362-.321-.688-.68-.688-.322 0-.61.253-.68.58h-1.435l-.502-.508c-.035-.036-.071-.073-.143-.073h-6.99l-7.526-7.499v-9.2c0-.036-.036-.109-.036-.145l-5.95-6.014c-.036-.036-.073-.072-.144-.072H.072v-.399h3.046l6.272 6.34v9.31c0 .036.036.109.072.145l7.097 7.064c.036.036.072.073.144.073h7.599v.036c0 .362.286.688.68.688.359 0 .681-.29.681-.688a.663.663 0 00-.68-.689c-.252 0-.43.11-.574.29h-7.635l-6.99-6.955v-9.31a.275.275 0 00-.07-.145l-6.38-6.448c-.037-.037-.073-.037-.144-.037H.07v-2.39h6.81l5.771 5.832v-1.123l-5.34-5.398a.405.405 0 00-.287-.109H.035v-.362H7.42l5.197 5.253v-1.16L7.85 7.643a.405.405 0 00-.286-.108H0v-.326h8.029l4.731 4.782h1.11L8.495 6.52a.405.405 0 00-.286-.109H0V3.658h.502l2.365 2.39c.073.073.18.11.287.11H5.09a.403.403 0 00.286-.11L7.24 4.166h2.868l3.978 4.021v.073c0 .398.287.688.68.688.395 0 .682-.29.682-.688a.684.684 0 00-.681-.689h-.179l-4.014-4.093a.405.405 0 00-.287-.109h-3.19a.405.405 0 00-.287.109L4.946 5.36H3.333L.967 2.971a.401.401 0 00-.286-.11H.035v-1.81H1.9l.574.579v1.449c0 .109.035.217.107.29l1.04 1.05v.073c0 .398.286.688.68.688a.684.684 0 00.681-.688.684.684 0 00-.68-.689c-.072 0-.108 0-.18.037l-.896-.906V1.521a.412.412 0 00-.107-.29L2.293.434a.403.403 0 00-.286-.108H0V.145h2.796l1.29 1.304a.695.695 0 00-.502.652c0 .398.287.688.681.688.394 0 .68-.326.68-.688a.697.697 0 00-.537-.688L3.154.145H5.16l1.04 1.05a1.067 1.067 0 00-.073.326c0 .399.287.688.68.688.395 0 .682-.29.682-.688a.684.684 0 00-.681-.688.763.763 0 00-.43.145l-.86-.87h17.885v5.47l-1.147 1.16h-.466a.697.697 0 00-.537-.254.684.684 0 00-.681.688c0 .399.322.689.68.689a.675.675 0 00.573-.326h.574a.404.404 0 00.287-.108l1.361-1.377a.413.413 0 00.108-.29V.145h15.27L38.17 1.413a.67.67 0 00-.394.616c0 .398.323.688.681.688a.684.684 0 00.681-.688c0-.326-.25-.616-.573-.688L39.747.145h.467l-.61.616c-.036.036-.036.072-.036.109v1.557l-.716.725h-1.9l-.68-.688c.107-.11.143-.254.143-.435a.684.684 0 00-.681-.688.663.663 0 00-.681.688c0 .398.322.688.68.688a.846.846 0 00.323-.072l.717.724c.035.036.072.036.107.036h2.008c.035 0 .071 0 .107-.036l.789-.833c.035-.036.035-.072.035-.072V.906l.753-.76h1.72v.398l-.931.941c-.108-.108-.287-.217-.467-.217a.684.684 0 00-.68.688c0 .399.322.689.68.689a.684.684 0 00.681-.689c0-.108 0-.18-.071-.29l.788-.796v5.977h-6.055c-.108-.145-.287-.217-.502-.217a.684.684 0 00-.681.688c0 .072 0 .145.035.181l-1.504 1.485a.466.466 0 00-.144.362v21.99c0 .145.035.254.144.363l1.218 1.231c0 .399.322.688.68.688a.662.662 0 00.682-.688.662.662 0 00-.681-.688l-1.076-1.086V9.563l1.578-1.594a.752.752 0 00.215-.145h6.057v2.971c-.25-.254-.502-.543-.716-.725a.684.684 0 00-.681-.688.663.663 0 00-.681.688c0 .399.322.689.68.689a.661.661 0 00.61-.399c.251.254.538.544.789.834v.47c-.287.254-.573.58-.825.834a.693.693 0 00-.609-.363.684.684 0 00-.68.689c0 .398.322.688.68.688.358 0 .681-.29.681-.688v-.037c.215-.217.466-.47.753-.724v4.854l-.86.87c-.108-.181-.323-.29-.574-.29a.684.684 0 00-.68.688c0 .399.322.688.68.688a.684.684 0 00.681-.688v-.145l.753-.76v1.992l-.932.978a.684.684 0 00-1.147.507c0 .399.322.688.68.688a.684.684 0 00.682-.688c0-.072 0-.109-.036-.181l.753-.76v4.89l-.61-.616a.71.71 0 00.251-.543.684.684 0 00-.68-.688.684.684 0 00-.682.688c0 .398.323.688.681.688h.072l.968.978v5.398l-1.11-1.123a.703.703 0 00.358-.616.684.684 0 00-.681-.688.662.662 0 00-.681.688c0 .326.215.616.537.689l1.577 1.593v1.377l-.752-.761v-.145a.663.663 0 00-.681-.688.663.663 0 00-.681.688c0 .363.322.688.68.688.18 0 .359-.072.502-.218l.932.943v2.5l-.86.832a.687.687 0 00-.359-.108c-.394 0-.68.29-.68.688 0 .362.286.688.68.688a.684.684 0 00.681-.688.68.68 0 00-.072-.29l.61-.616v6.883h-1.004a.642.642 0 00.287-.543.663.663 0 00-.681-.688.684.684 0 00-.681.688.64.64 0 00.287.543h-1.793a.641.641 0 00.287-.543.684.684 0 00-.681-.688.684.684 0 00-.681.688.64.64 0 00.287.543h-1.828a.696.696 0 00.179-.471c0-.362-.323-.688-.681-.688a.684.684 0 00-.681.688c0 .181.072.362.179.471H33.44a.694.694 0 00.179-.471.684.684 0 00-.681-.688.684.684 0 00-.68.688c0 .181.071.362.178.471H31.11l-.322-.326c.035-.108.072-.217.072-.326 0-.217-.108-.398-.251-.543l-1.29-1.304v-1.485a.412.412 0 00-.108-.29l-.968-.978a.406.406 0 00-.287-.109h-6.595v-.362h-1.434v2.5h.646v.76H10.322l-.537-.543 1.147-1.16h.537v-2.463H9.93l-.754-.76v-.652a.411.411 0 00-.108-.29l-1.326-1.34V31.77h-.394l-.967-.978v-.109a.641.641 0 00-.287-.543v-.507l1.505-1.521a.411.411 0 00.108-.29v-7.608a.4.4 0 00-.394-.398h-.789v-1.05H6.13v-.544c.179-.109.286-.326.286-.58a.684.684 0 00-.68-.688.662.662 0 00-.681.688.76.76 0 00.286.58v.543H4.98v2.464h1.542v-.616h.394v7.028l-1.505 1.52a.413.413 0 00-.107.29v.653c-.18.108-.287.325-.287.579 0 .398.322.688.68.688h.108l.43.434v2.464h1.362l.789.797v.652c0 .109.035.218.107.29l1.434 1.449v1.196l-.717.724c-.071 0-.107-.037-.178-.037a.684.684 0 00-.681.69c0 .397.322.687.68.687a.664.664 0 00.287-.072l.502.507a.404.404 0 00.287.108h10.43l1.147 1.16v.145l-.395.399h-.896c.108-.11.18-.29.18-.472a.663.663 0 00-.681-.688.658.658 0 00-.646.507h-1.004a.267.267 0 00-.143.073l-.61.616h-2.472a.64.64 0 00.286-.544.684.684 0 00-.681-.688.684.684 0 00-.68.688.64.64 0 00.286.544h-4.73a.64.64 0 00.286-.544.684.684 0 00-.68-.688.684.684 0 00-.682.688.64.64 0 00.287.544H6.917c.143-.109.286-.326.286-.544v-.216zm10.932.543l.287-.29h.896c.036.11.072.218.179.29h-1.362zm5.054-.47a.662.662 0 00-.681-.688c-.036 0-.108 0-.143.035l-.86-.869v-2.536h6.415l.753.761v1.485c0 .109.036.218.108.29l.967.978a.738.738 0 00-.107.399c0 .289.215.543.466.651h-1.9a.691.691 0 00.179-.47.684.684 0 00-.68-.689.708.708 0 00-.682.688c0 .18.072.363.18.471h-2.761v-1.774a.41.41 0 00-.108-.29l-1.146-1.123v-.145a.684.684 0 00-.681-.688.663.663 0 00-.681.688c0 .398.286.688.68.688h.108l1.04 1.05v1.63h-.61a.692.692 0 00.18-.47l-.036-.072zm-3.584 0a.4.4 0 01.394-.399.4.4 0 010 .797.4.4 0 01-.394-.398zm2.472 0a.4.4 0 01.395-.399.4.4 0 010 .797.401.401 0 01-.395-.398zm5.162 0a.4.4 0 01.394-.399.4.4 0 010 .797.401.401 0 01-.394-.398zm5.376 0a.4.4 0 01.395-.399.4.4 0 010 .797.4.4 0 01-.395-.398zm2.617 0a.4.4 0 01.394-.399.4.4 0 010 .797.4.4 0 01-.394-.398zM.932 42.24a.4.4 0 01.394-.398.4.4 0 01.394.398.4.4 0 01-.394.399.4.4 0 01-.394-.399zm2.616 0a.4.4 0 01.395-.398.4.4 0 01.394.398.4.4 0 01-.394.399.4.4 0 01-.395-.399zm2.51 0a.4.4 0 01.393-.398.4.4 0 01.395.398.4.4 0 01-.395.399.4.4 0 01-.394-.399zm2.616 0a.4.4 0 01.394-.398.4.4 0 010 .797.4.4 0 01-.394-.399zm5.555 0a.4.4 0 01.394-.398.4.4 0 01.395.398.4.4 0 01-.395.399.4.4 0 01-.394-.399zm23.728 0a.4.4 0 01.395-.398.4.4 0 01.394.398.4.4 0 01-.395.399.4.4 0 01-.394-.399zm2.617 0a.4.4 0 01.394-.398.4.4 0 01.394.398.4.4 0 01-.394.399.4.4 0 01-.394-.399zm-10.753-.109a.4.4 0 01.394-.399.4.4 0 010 .797.4.4 0 01-.394-.398zm1.433-2.246a.705.705 0 00-.286-.58v-.217h.394v-2.463H29.82v2.463h.358v.218c-.179.145-.287.325-.287.543 0 .399.323.689.681.689a.684.684 0 00.681-.69v.037zM7.67 39.668a.76.76 0 00-.287-.58v-1.05h.359v-2.463H6.237v2.463h.358v1.05c-.179.11-.286.326-.286.58 0 .398.286.688.68.688a.684.684 0 00.681-.688zm22.51.217a.4.4 0 01.393-.398.4.4 0 010 .797.4.4 0 01-.394-.4zm8.852-.29a.684.684 0 00-.68-.688.662.662 0 00-.681.688c0 .4.286.689.68.689.395 0 .681-.29.681-.689zm2.617 0a.662.662 0 00-.681-.688.663.663 0 00-.681.688c0 .4.322.689.68.689.395 0 .682-.29.682-.689zm-32.975.254a.4.4 0 01.394-.398.4.4 0 010 .797.4.4 0 01-.394-.4zm16.99-.29a.663.663 0 00-.682-.688.684.684 0 00-.68.688c0 .363.286.689.68.689a.684.684 0 00.681-.689zm2.58 0a.684.684 0 00-.681-.688.684.684 0 00-.681.688c0 .363.322.689.68.689a.684.684 0 00.682-.689zm5.592 0a.663.663 0 00-.681-.688.684.684 0 00-.681.688c0 .363.322.689.68.689a.685.685 0 00.681-.689zm-29.212-.108a.684.684 0 00-.681-.689.684.684 0 00-.681.689c0 .362.286.688.68.688a.684.684 0 00.682-.688zm1.935.217a.4.4 0 01.394-.398.4.4 0 01.395.398.4.4 0 01-.395.398.4.4 0 01-.394-.398zm6.38-.326a.662.662 0 00-.681-.688.684.684 0 00-.681.688c0 .362.322.688.68.688a.684.684 0 00.682-.688zm2.15 0a.662.662 0 00-.68-.688.684.684 0 00-.682.688c0 .362.323.688.681.688a.684.684 0 00.681-.688zm2.33 0a.684.684 0 00-.68-.688.684.684 0 00-.681.688c0 .362.322.688.68.688a.684.684 0 00.681-.688zm2.15 0a.684.684 0 00-.68-.688.684.684 0 00-.681.688c0 .362.322.688.68.688a.684.684 0 00.681-.688zm18.352.253a.4.4 0 01.395-.398.4.4 0 010 .797.4.4 0 01-.395-.399zm2.616 0a.4.4 0 01.395-.398.4.4 0 010 .797.4.4 0 01-.395-.399zm-15.985-.072a.4.4 0 01.394-.398.4.4 0 01.394.398.4.4 0 01-.394.399.4.4 0 01-.394-.399zm2.58 0a.4.4 0 01.395-.398.4.4 0 010 .797.4.4 0 01-.394-.399zm5.592 0a.4.4 0 01.394-.398.4.4 0 01.394.398.4.4 0 01-.394.399.4.4 0 01-.394-.399zM.86 39.487a.4.4 0 01.394-.4.4.4 0 010 .797.4.4 0 01-.394-.397zm21.111-.036a.4.4 0 01.395-.4.4.4 0 010 .797.4.4 0 01-.395-.397zm-18.459-.037a.4.4 0 01.394-.398.4.4 0 01.394.398.4.4 0 01-.394.399.4.4 0 01-.394-.399zm8.316-.108a.4.4 0 01.395-.399.4.4 0 01.394.399.4.4 0 01-.395.398.4.4 0 01-.394-.398zm2.15 0a.4.4 0 01.395-.399.4.4 0 010 .797.4.4 0 01-.395-.398zm2.33 0a.4.4 0 01.395-.399.4.4 0 01.394.399.4.4 0 01-.394.398.4.4 0 01-.395-.398zm2.15 0a.4.4 0 01.395-.399.4.4 0 01.394.399.4.4 0 01-.394.398.4.4 0 01-.394-.398zm-13.907-2.5a.684.684 0 00-.68-.689.663.663 0 00-.681.69c0 .397.287.687.68.687a.684.684 0 00.681-.688zm36.13.036a.4.4 0 01.394-.399.4.4 0 01.394.399.4.4 0 01-.394.398.4.4 0 01-.394-.398zm-37.24-.036a.4.4 0 01.394-.399.4.4 0 010 .797.4.4 0 01-.394-.398zM.789 36.77a.4.4 0 01.394-.399.4.4 0 010 .797.4.4 0 01-.394-.398zm24.981-.543a.4.4 0 01.394-.4.4.4 0 01.395.4.4.4 0 01-.395.398.4.4 0 01-.394-.398zm-1.36-1.087a.4.4 0 01.394-.399.4.4 0 01.394.399.4.4 0 01-.394.398.4.4 0 01-.394-.398zm6.81-.037V32.64h-1.542v.797h-.931a.68.68 0 00-.466-.18.663.663 0 00-.681.687c0 .399.286.689.68.689a.683.683 0 00.61-.4h.753v.87h1.575zm7.097-.688c0-.362-.323-.688-.681-.688a.684.684 0 00-.681.688c0 .398.286.688.68.688.359 0 .682-.29.682-.688zm-33.8-.145a.684.684 0 00-.681-.688.684.684 0 00-.68.688c0 .399.286.688.68.688a.684.684 0 00.681-.688zm32.724.145a.4.4 0 01.394-.399.4.4 0 01.394.399.4.4 0 01-.394.398.4.4 0 01-.394-.398zM.86 34.27a.4.4 0 01.394-.399.4.4 0 010 .798.4.4 0 01-.394-.4zm2.545 0a.4.4 0 01.394-.399.4.4 0 01.394.399.4.4 0 01-.394.399.4.4 0 01-.394-.4zm7.957.326v-2.463h-.645l-.825-.797v-.109a.684.684 0 00-.68-.688.684.684 0 00-.682.688c0 .399.287.689.681.689h.108l.502.507v2.246h1.541v-.073zm16.523-.616a.4.4 0 01.394-.398.4.4 0 010 .797.4.4 0 01-.394-.399zm-10.574-.144v-2.5h-1.003v2.5h1.003zm2.868 0v-2.5h-1.004v2.5h1.004zm2.868 0v-2.5h-1.004v2.5h1.004zm2.866 0v-2.5H24.91v2.5h1.003zm9.176-.978a.4.4 0 01.395-.399.4.4 0 010 .797.4.4 0 01-.395-.398zm3.871-1.377a.684.684 0 00-.68-.689.663.663 0 00-.682.688c0 .363.287.689.681.689a.684.684 0 00.681-.688zm-38.136.108a.4.4 0 01.395-.398.4.4 0 01.394.398.4.4 0 01-.394.4.4.4 0 01-.395-.4zm37.025-.108a.4.4 0 01.395-.399.4.4 0 010 .797.4.4 0 01-.395-.399zm2.617 0a.4.4 0 01.394-.399.4.4 0 01.395.398.4.4 0 01-.395.399.4.4 0 01-.394-.399zm-31.649-.326a.4.4 0 01.394-.399.4.4 0 010 .797.4.4 0 01-.394-.398zm-3.656-.689a.4.4 0 01.394-.398.4.4 0 010 .797.4.4 0 01-.394-.399zm8.745-.58l14.338-.036.035-16.592-14.337.037-.036 16.592zm24.983-1.158a.708.708 0 00-.68-.689.684.684 0 00-.682.689c0 .398.287.688.681.688.394 0 .681-.29.681-.688zM4.48 28.546a.684.684 0 00-.68-.688.684.684 0 00-.682.688c0 .399.287.689.681.689a.684.684 0 00.681-.689zm33.334.182a.4.4 0 01.394-.4.4.4 0 010 .797.4.4 0 01-.394-.397zm2.616 0a.4.4 0 01.395-.4.4.4 0 010 .797.4.4 0 01-.395-.397zM.753 28.546a.4.4 0 01.394-.398.4.4 0 01.394.398.4.4 0 01-.394.399.4.4 0 01-.394-.399zm2.616 0a.4.4 0 01.394-.398.4.4 0 010 .797.4.4 0 01-.394-.399zm35.484-2.427a.684.684 0 00-.68-.688.684.684 0 00-.682.688c0 .362.287.688.681.688a.684.684 0 00.681-.688zm-34.409-.253a.708.708 0 00-.68-.689.663.663 0 00-.682.689c0 .398.287.688.681.688a.684.684 0 00.681-.688zm33.334.253a.4.4 0 01.394-.398.4.4 0 01.394.398.4.4 0 01-.394.398.4.4 0 01-.394-.398zm-25.27.29v-1.015h-2.186v1.015h2.187zm19.32 0v-1.015h-2.294v1.015h2.294zm-31.112-.58a.4.4 0 01.395-.398.4.4 0 010 .797.4.4 0 01-.395-.399zm2.617 0a.4.4 0 01.395-.398.4.4 0 01.394.398.4.4 0 01-.394.399.4.4 0 01-.395-.399zm2.975-.797V22.57H4.767v.688h-.359c-.072-.326-.358-.58-.68-.58a.662.662 0 00-.681.689c0 .398.286.688.68.688h1.04v.978h1.541zm31.29-1.63c0-.362-.322-.688-.68-.688a.684.684 0 00-.681.689c0 .398.286.687.68.687a.684.684 0 00.681-.687zm-1.075 0a.4.4 0 01.394-.398.4.4 0 010 .797.4.4 0 01-.394-.398zM.716 23.367a.4.4 0 01.395-.4.4.4 0 010 .797.4.4 0 01-.395-.397zm2.617 0a.4.4 0 01.395-.4.4.4 0 010 .797.4.4 0 01-.395-.397zm37.384-.036a.4.4 0 01.394-.399.4.4 0 01.395.399.4.4 0 01-.395.398.4.4 0 01-.394-.398zm-28.244.18v-.977h-2.187v.977h2.187zm19.319 0v-.977h-2.294v.977h2.294zM4.408 20.685a.684.684 0 00-.68-.688.663.663 0 00-.681.688c0 .399.286.689.68.689.395 0 .681-.29.681-.689zm34.409-.108a.684.684 0 00-.681-.689.684.684 0 00-.681.688c0 .399.287.689.681.689.394 0 .68-.326.68-.689zm-35.484.108a.4.4 0 01.395-.398.4.4 0 01.394.398.4.4 0 01-.394.399.4.4 0 01-.395-.399zM.716 20.65a.4.4 0 01.395-.399.4.4 0 01.394.399.4.4 0 01-.394.398.4.4 0 01-.395-.398zm37.026-.109a.4.4 0 01.394-.398.4.4 0 01.394.398.4.4 0 01-.394.399.4.4 0 01-.394-.399zm2.617 0a.4.4 0 01.394-.398.4.4 0 01.394.398.4.4 0 01-.394.399.4.4 0 01-.394-.399zm-27.886.073v-1.015h-2.187v1.015h2.187zm19.319 0v-1.015h-2.294v1.015h2.294zm7.025-2.645a.684.684 0 00-.681-.688.684.684 0 00-.681.688c0 .399.287.689.681.689.394 0 .68-.326.68-.689zm-34.409 0a.684.684 0 00-.68-.688.684.684 0 00-.681.688c0 .399.286.689.68.689a.684.684 0 00.681-.689zm33.334 0a.4.4 0 01.394-.398.4.4 0 01.394.398.4.4 0 01-.394.399.4.4 0 01-.394-.399zm2.617 0a.4.4 0 01.394-.398.4.4 0 01.394.398.4.4 0 01-.394.399.4.4 0 01-.394-.399zm-39.678 0a.4.4 0 01.394-.398.4.4 0 01.395.398.4.4 0 01-.395.399.4.4 0 01-.394-.399zm2.616 0a.4.4 0 01.395-.398.4.4 0 01.394.398.4.4 0 01-.394.399.4.4 0 01-.395-.399zm1.792-.543a.4.4 0 01.394-.399.4.4 0 01.395.399.4.4 0 01-.395.398.4.4 0 01-.394-.398zm7.348.326v-1.014H10.25v1.014h2.187zm19.355 0v-1.014h-2.294v1.014h2.294zm7.025-2.319a.684.684 0 00-.681-.688.663.663 0 00-.681.688c0 .363.287.689.681.689.394 0 .68-.327.68-.689zm2.616 0a.662.662 0 00-.68-.688.663.663 0 00-.681.688c0 .363.322.689.68.689a.685.685 0 00.681-.689zm-3.727 0a.4.4 0 01.395-.398.4.4 0 01.394.398.4.4 0 01-.394.399.4.4 0 01-.395-.399zm2.617 0a.4.4 0 01.394-.398.4.4 0 01.394.398.4.4 0 01-.394.399.4.4 0 01-.394-.399zM38.78 12.68a.684.684 0 00-.68-.688.684.684 0 00-.681.688c0 .399.286.689.68.689.395 0 .681-.29.681-.689zm-1.075 0a.4.4 0 01.395-.398.4.4 0 01.394.398.4.4 0 01-.394.399.4.4 0 01-.395-.399zm2.617 0a.4.4 0 01.394-.398.4.4 0 01.394.398.4.4 0 01-.394.399.4.4 0 01-.394-.399zm-33.334-.435c0-.362-.322-.688-.68-.688a.684.684 0 00-.682.688c0 .399.287.688.681.688a.684.684 0 00.681-.688zm-1.075 0a.4.4 0 01.394-.398.4.4 0 01.394.398.4.4 0 01-.394.399.4.4 0 01-.394-.399zm19.856-.326V8.911h-1.003v3.007h1.003zm-2.867 0V8.911H21.9v3.007h1.003zm-2.867 0V8.911h-1.004v3.007h1.004zm-2.868 0v-2.97h-1.003v2.97h1.003zm14.982-.326v-2.5h-1.54v.725h-.503a.63.63 0 00-.537-.29.684.684 0 00-.681.688c0 .399.322.689.68.689.252 0 .43-.109.574-.29h.502v.942h1.541l-.036.036zm-3.01-1.34a.4.4 0 01.394-.399.4.4 0 01.394.399.4.4 0 01-.394.398.4.4 0 01-.394-.398zm9.606-.326a.684.684 0 00-.681-.689.663.663 0 00-.681.689c0 .398.286.688.68.688a.684.684 0 00.682-.688zm-1.076 0a.4.4 0 01.395-.399.4.4 0 01.394.399.4.4 0 01-.394.398.4.4 0 01-.395-.398zm2.616 0a.4.4 0 01.395-.399.4.4 0 01.394.399.4.4 0 01-.394.398.4.4 0 01-.395-.398zM13.584 9.49a.684.684 0 00-.681-.688c-.394 0-.68.29-.68.688 0 .398.286.688.68.688.358 0 .681-.326.681-.688zm-1.075 0a.4.4 0 01.394-.399.4.4 0 01.394.399.4.4 0 01-.394.398.4.4 0 01-.394-.398zm1.613-1.34a.4.4 0 01.394-.399.4.4 0 01.394.399.4.4 0 01-.394.398.4.4 0 01-.394-.398zm21.04-.942a.4.4 0 01.394-.399.4.4 0 01.394.399.4.4 0 01-.394.398.4.4 0 01-.394-.398zm-2.976.326v-2.5h-.43l-.896-.87v-.108a.663.663 0 00-.68-.688.684.684 0 00-.682.688c0 .398.323.688.681.688h.108l.322.326v2.5h1.541l.036-.036zM20.681 6.99a.4.4 0 01.394-.398.4.4 0 01.395.398.4.4 0 01-.395.399.4.4 0 01-.394-.399zm6.308-.797a.663.663 0 00-.68-.688.684.684 0 00-.681.688c0 .399.286.689.68.689a.684.684 0 00.681-.689zm-1.076 0a.4.4 0 01.395-.398.4.4 0 01.394.398.4.4 0 01-.394.399.4.4 0 01-.395-.399zM10.18 5.361a.684.684 0 00-.681-.688.684.684 0 00-.681.688c0 .399.287.688.681.688a.684.684 0 00.681-.688zm-1.828 0c0-.362-.322-.688-.68-.688a.684.684 0 00-.682.688c0 .399.287.688.681.688a.708.708 0 00.681-.688zm.753 0a.4.4 0 01.394-.398.4.4 0 01.394.398.4.4 0 01-.394.399.4.4 0 01-.394-.399zm-1.828 0a.4.4 0 01.394-.398.4.4 0 01.394.398.4.4 0 01-.394.399.4.4 0 01-.394-.399zm7.455-.507c0-.362-.322-.688-.68-.688a.684.684 0 00-.682.688c0 .398.287.688.681.688.395 0 .681-.29.681-.688zm19.248-.29a.684.684 0 00-.681-.688.684.684 0 00-.681.688c0 .399.322.688.68.688a.71.71 0 00.682-.688zm2.329 0a.708.708 0 00-.681-.688.684.684 0 00-.68.688c0 .399.322.688.68.688.358 0 .681-.326.681-.688zm5.125 0a.684.684 0 00-.68-.688.684.684 0 00-.681.688c0 .399.322.688.68.688a.684.684 0 00.681-.688zm-27.813.29a.4.4 0 01.394-.399.4.4 0 01.394.399.4.4 0 01-.394.398.4.4 0 01-.394-.398zm4.158-.326a.684.684 0 00-.681-.688.684.684 0 00-.681.688c0 .398.287.688.68.688a.684.684 0 00.682-.688zm2.401 0a.663.663 0 00-.68-.688.684.684 0 00-.682.688c0 .398.322.688.681.688a.684.684 0 00.681-.688zm2.473 0a.663.663 0 00-.68-.688.684.684 0 00-.682.688c0 .398.287.688.681.688a.684.684 0 00.681-.688zm16.38-.181a.684.684 0 00-.68-.688.663.663 0 00-.681.688c0 .398.322.688.68.688a.684.684 0 00.681-.688zm-6.129.253a.4.4 0 01.394-.398.4.4 0 01.395.398.4.4 0 01-.395.399.4.4 0 01-.394-.399zm2.33 0a.4.4 0 01.394-.398.4.4 0 01.394.398.4.4 0 01-.394.399.4.4 0 01-.394-.399zm5.126 0a.4.4 0 01.394-.398.4.4 0 01.394.398.4.4 0 01-.394.399.4.4 0 01-.394-.399zm-23.656-.072a.4.4 0 01.394-.399.4.4 0 01.394.399.4.4 0 01-.394.398.4.4 0 01-.394-.398zm2.401 0a.4.4 0 01.394-.399.4.4 0 01.395.399.4.4 0 01-.395.398.4.4 0 01-.394-.398zm2.473 0a.4.4 0 01.394-.399.4.4 0 01.395.399.4.4 0 01-.395.398.4.4 0 01-.394-.398zm-17.85-.109a.4.4 0 01.395-.398.4.4 0 01.394.398.4.4 0 01-.394.399.4.4 0 01-.394-.399zm34.23-.072a.4.4 0 01.395-.399.4.4 0 01.394.399.4.4 0 01-.395.398.4.4 0 01-.394-.398zm-8.1-.254a.4.4 0 01.394-.398.4.4 0 01.394.398.4.4 0 01-.394.399.4.4 0 01-.395-.399zm-28.065-2.1a.684.684 0 00-.681-.69.684.684 0 00-.681.69c0 .398.322.687.68.687a.708.708 0 00.682-.688zm10.537 0a.663.663 0 00-.68-.69c-.359 0-.681.327-.681.69 0 .398.322.687.68.687a.684.684 0 00.681-.688zm15.879-.073a.684.684 0 00-.681-.689.663.663 0 00-.681.689c0 .398.322.688.68.688a.684.684 0 00.682-.688zm2.867 0a.662.662 0 00-.68-.689.663.663 0 00-.681.689c0 .398.286.688.68.688a.684.684 0 00.681-.688zm2.76 0a.684.684 0 00-.68-.689.663.663 0 00-.681.689c0 .398.322.688.68.688a.708.708 0 00.681-.688zM.681 1.992a.4.4 0 01.394-.398.4.4 0 01.395.398.4.4 0 01-.395.399.4.4 0 01-.394-.399zm3.047 0a.4.4 0 01.394-.398.4.4 0 01.394.398.4.4 0 01-.394.399.4.4 0 01-.394-.399zm7.526 0a.4.4 0 01.395-.398.4.4 0 01.394.398.4.4 0 01-.394.399.4.4 0 01-.395-.399zm15.879-.072a.4.4 0 01.394-.399.4.4 0 01.394.399.4.4 0 01-.394.398.4.4 0 01-.394-.398zm2.867 0a.4.4 0 01.394-.399.4.4 0 01.394.399.4.4 0 01-.394.398A.4.4 0 0130 1.92zm2.76 0a.4.4 0 01.394-.399.4.4 0 01.394.399.4.4 0 01-.394.398.4.4 0 01-.394-.398zm2.473 0a.4.4 0 01.394-.399.4.4 0 01.394.399.4.4 0 01-.394.398.4.4 0 01-.394-.398zm2.724 0a.4.4 0 01.395-.399.4.4 0 01.394.399.4.4 0 01-.395.398.4.4 0 01-.394-.398zm2.437-.037a.4.4 0 01.394-.398.4.4 0 01.395.398.4.4 0 01-.395.399.4.4 0 01-.394-.399zm-34.122-.47a.4.4 0 01.394-.399.4.4 0 01.395.399.4.4 0 01-.395.398.4.4 0 01-.394-.398z" fill="#7A7A82"/>
</svg>
