<svg width="110" height="19" viewBox="0 0 130 19" fill="none" xmlns="http://www.w3.org/2000/svg"><g clip-path="url(#clip0_11489_64526)"><mask id="a" style="mask-type:luminance" maskUnits="userSpaceOnUse" x="0" y="0" width="130" height="19"><path d="M0 0h129.863v18.791H0V0z" fill="#fff"/></mask><g mask="url(#a)"><path d="M53.705 10.91L51.49 2.926h-2.917l-2.215 7.984-2.116-7.984h-3.286l3.547 11.703h3.352l2.09-7.49 2.088 7.49h3.439L59.02 2.926h-3.2m9.294 2.34a2.516 2.516 0 012.502 2.139h-5.178c.235-1.398 1.41-2.139 2.676-2.139zm.152-2.565c-3.439 0-5.92 2.475-5.92 6.076 0 3.668 2.46 6.076 5.833 6.076 2.873 0 5.202-1.778 5.55-4.14h-3.112c-.261.945-1.11 1.507-2.46 1.507-1.455 0-2.534-.995-2.73-2.565h8.41c.415-4.029-1.914-6.954-5.571-6.954zm12.689 2.565a2.515 2.515 0 012.502 2.139h-5.178c.234-1.398 1.41-2.139 2.676-2.139zm.153-2.565c-3.44 0-5.92 2.475-5.92 6.076 0 3.668 2.459 6.076 5.832 6.076 2.873 0 5.202-1.778 5.55-4.14h-3.113c-.26.945-1.11 1.507-2.458 1.507-1.456 0-2.536-.995-2.73-2.565h8.41c.413-4.029-1.916-6.954-5.571-6.954zm12.971 4.86c-1.763-.246-2.85-.45-2.85-1.237 0-.607.37-1.08 1.893-1.08 1.175 0 1.784.585 1.915 1.508h3.351c-.13-2.115-1.784-4.051-5.223-4.051-3.221 0-5.027 1.418-5.027 3.623 0 2.7 2.938 3.308 4.047 3.466 2.285.315 3.156.495 3.156 1.327 0 .765-.609 1.193-2.024 1.193-1.37 0-2.11-.63-2.263-1.597h-3.178c.153 2.318 1.915 4.14 5.398 4.14 3.373 0 5.245-1.575 5.245-3.938 0-2.7-2.83-3.128-4.44-3.353zm10.229-7.56h-2.916v2.925H96.39v2.7h2.002v5.851c0 2.048 1.066 3.151 3.047 3.151h2.742v-2.745h-2.002c-.566 0-.871-.315-.871-.9V5.627h2.873v-2.7h-2.873m22.57 9.158c-1.676 0-2.83-1.35-2.83-3.308 0-1.958 1.154-3.308 2.83-3.308 1.676 0 2.829 1.35 2.829 3.308 0 1.958-1.153 3.308-2.829 3.308zm.674-9.316c-1.351 0-2.514.598-3.351 1.619V2.926h-2.873v15.865h3.091v-5.377c.816.87 1.895 1.371 3.133 1.371 3.048 0 5.312-2.565 5.312-6.008s-2.264-6.008-5.312-6.008zm-13.733 2.497a2.516 2.516 0 012.502 2.139h-5.177c.233-1.398 1.409-2.139 2.675-2.139zm.152-2.565c-3.438 0-5.919 2.475-5.919 6.076 0 3.668 2.459 6.076 5.832 6.076 2.873 0 5.202-1.778 5.55-4.14h-3.112c-.26.945-1.11 1.507-2.46 1.507-1.455 0-2.535-.995-2.729-2.565h8.411c.413-4.029-1.916-6.954-5.573-6.954zM26.487 14.747c1.18.489 2.52-.104 2.992-1.325l2.914-7.524c.472-1.22-.101-2.604-1.281-3.093-1.18-.488-2.52.104-2.992 1.324l-2.914 7.525c-.472 1.22.101 2.604 1.28 3.093h.001zm-20.42 0c-1.18.489-2.52-.104-2.992-1.324L.165 5.899c-.472-1.22.102-2.605 1.281-3.094 1.18-.488 2.52.104 2.992 1.324l2.91 7.525c.471 1.22-.102 2.604-1.281 3.093zm16.682 0c-1.18.489-2.52-.104-2.992-1.325l-2.909-7.524c-.473-1.22.101-2.604 1.281-3.093 1.18-.488 2.52.104 2.992 1.324l2.91 7.525c.47 1.22-.102 2.604-1.282 3.093zm-12.944 0c1.18.489 2.52-.104 2.992-1.325l2.913-7.524c.473-1.22-.1-2.604-1.28-3.093-1.18-.488-2.52.104-2.992 1.324l-2.914 7.525c-.473 1.22.101 2.604 1.28 3.093h.001z" fill="#7A7A82"/><mask id="b" style="mask-type:luminance" maskUnits="userSpaceOnUse" x="0" y="0" width="130" height="19"><path d="M0 0h129.863v18.791H0V0z" fill="#fff"/></mask><g mask="url(#b)" fill="#7A7A82"><path d="M53.704 10.91L51.49 2.926h-2.916l-2.215 7.984-2.117-7.984h-3.286l3.548 11.703h3.352l2.09-7.49 2.088 7.49h3.439L59.02 2.926h-3.2m9.294 2.34a2.516 2.516 0 012.502 2.139h-5.178c.234-1.398 1.41-2.139 2.676-2.139zm.152-2.565c-3.44 0-5.92 2.475-5.92 6.076 0 3.668 2.46 6.076 5.833 6.076 2.873 0 5.201-1.778 5.55-4.14h-3.113c-.26.945-1.11 1.507-2.459 1.507-1.456 0-2.535-.995-2.73-2.565h8.41c.414-4.029-1.915-6.954-5.571-6.954zm12.688 2.565a2.515 2.515 0 012.502 2.139H75.28c.234-1.398 1.41-2.139 2.675-2.139zm.153-2.565c-3.439 0-5.92 2.475-5.92 6.076 0 3.668 2.46 6.076 5.832 6.076 2.873 0 5.202-1.778 5.551-4.14h-3.113c-.261.945-1.11 1.507-2.459 1.507-1.456 0-2.535-.995-2.73-2.565h8.41c.414-4.029-1.915-6.954-5.57-6.954zM91.08 7.56c-1.763-.246-2.851-.45-2.851-1.237 0-.607.37-1.08 1.893-1.08 1.176 0 1.785.585 1.916 1.508h3.35c-.13-2.115-1.783-4.051-5.222-4.051-3.222 0-5.028 1.418-5.028 3.623 0 2.7 2.938 3.308 4.048 3.466 2.285.315 3.156.495 3.156 1.327 0 .765-.609 1.193-2.024 1.193-1.37 0-2.111-.63-2.264-1.597h-3.177c.152 2.318 1.915 4.14 5.398 4.14 3.373 0 5.245-1.575 5.245-3.938 0-2.7-2.83-3.128-4.44-3.353zM101.309 0h-2.917v2.925H96.39v2.7h2.001v5.851c0 2.048 1.067 3.151 3.048 3.151h2.742v-2.745h-2.002c-.566 0-.871-.315-.871-.9V5.627h2.873v-2.7h-2.873m22.569 9.158c-1.676 0-2.829-1.35-2.829-3.308 0-1.958 1.153-3.308 2.829-3.308 1.677 0 2.83 1.35 2.83 3.308 0 1.958-1.153 3.308-2.83 3.308zm.675-9.316c-1.352 0-2.515.598-3.352 1.619V2.926h-2.872v15.865h3.09v-5.377c.816.87 1.896 1.371 3.134 1.371 3.047 0 5.311-2.565 5.311-6.008s-2.264-6.008-5.311-6.008zm-13.733 2.497a2.516 2.516 0 012.502 2.139h-5.177c.233-1.398 1.409-2.139 2.675-2.139zm.152-2.565c-3.438 0-5.92 2.475-5.92 6.076 0 3.668 2.46 6.076 5.833 6.076 2.873 0 5.202-1.778 5.55-4.14h-3.112c-.261.945-1.11 1.507-2.46 1.507-1.455 0-2.535-.995-2.729-2.565h8.41c.414-4.029-1.915-6.954-5.572-6.954zM26.488 14.747c1.18.489 2.52-.104 2.992-1.325l2.913-7.524c.472-1.22-.1-2.604-1.28-3.093-1.181-.488-2.52.104-2.993 1.324l-2.914 7.525c-.472 1.22.102 2.604 1.281 3.094v-.001zm-20.421 0c-1.18.488-2.52-.104-2.992-1.324L.165 5.899c-.472-1.22.102-2.605 1.281-3.094 1.18-.489 2.52.104 2.992 1.324l2.91 7.525c.471 1.22-.102 2.604-1.281 3.093zm16.683 0c-1.18.489-2.52-.104-2.992-1.325l-2.909-7.524c-.473-1.22.102-2.604 1.281-3.093 1.18-.488 2.52.104 2.992 1.324l2.91 7.525c.47 1.22-.102 2.604-1.282 3.094v-.001zm-12.946 0c1.18.489 2.52-.104 2.992-1.325l2.913-7.524c.473-1.22-.1-2.604-1.28-3.093-1.18-.488-2.52.104-2.992 1.324l-2.914 7.525c-.473 1.22.101 2.604 1.28 3.094l.001-.001z"/></g></g></g><defs><clipPath id="clip0_11489_64526"><path fill="#fff" d="M0 0h130v19H0z"/></clipPath></defs></svg>