<svg xmlns="http://www.w3.org/2000/svg" viewBox="0 0 400 400" fill="none">
  <!-- Bottom layer depth shadow -->
  <path d="M64,303 L204,373 L364,303 L224,233 Z" fill="#000" opacity="0.08" transform="translate(3,3)"/>
  <!-- Bottom layer (back) -->
  <path d="M60,300 L200,370 L360,300 L220,230 Z" stroke="#2E2D2D" stroke-width="3" fill="#C026D3" fill-opacity="0.14" stroke-linejoin="round"/>
  <!-- Bottom layer content lines -->
  <line x1="140" y1="298" x2="200" y2="328" stroke="#2E2D2D" stroke-width="1.5" opacity="0.2" stroke-linecap="round"/>
  <line x1="160" y1="290" x2="220" y2="320" stroke="#2E2D2D" stroke-width="1.5" opacity="0.2" stroke-linecap="round"/>
  <line x1="180" y1="282" x2="240" y2="312" stroke="#2E2D2D" stroke-width="1.5" opacity="0.2" stroke-linecap="round"/>
  <!-- Middle layer depth shadow -->
  <path d="M64,233 L204,303 L364,233 L224,163 Z" fill="#000" opacity="0.08" transform="translate(3,3)"/>
  <!-- Middle layer -->
  <path d="M60,230 L200,300 L360,230 L220,160 Z" stroke="#2E2D2D" stroke-width="3" fill="#A855F7" fill-opacity="0.15" stroke-linejoin="round"/>
  <!-- Middle layer content: abstract rectangles -->
  <path d="M170,222 L210,242 L250,222 L210,202 Z" fill="#A855F7" fill-opacity="0.12" stroke="#2E2D2D" stroke-width="1.5"/>
  <path d="M215,245 L245,260 L280,242 L250,227 Z" fill="#7C3AED" fill-opacity="0.10" stroke="#2E2D2D" stroke-width="1.5"/>
  <!-- Middle layer decorative dots -->
  <circle cx="160" cy="235" r="3" fill="#A855F7" opacity="0.3"/>
  <circle cx="290" cy="225" r="2.5" fill="#A855F7" opacity="0.25"/>
  <!-- Top layer depth shadow -->
  <path d="M64,163 L204,233 L364,163 L224,93 Z" fill="#000" opacity="0.08" transform="translate(3,3)"/>
  <!-- Top layer (front) -->
  <path d="M60,160 L200,230 L360,160 L220,90 Z" stroke="#2E2D2D" stroke-width="3.5" fill="#7C3AED" fill-opacity="0.16" stroke-linejoin="round"/>
  <!-- Top layer content lines (text lines) -->
  <line x1="155" y1="148" x2="215" y2="178" stroke="#2E2D2D" stroke-width="2.5" stroke-linecap="round" opacity="0.35"/>
  <line x1="170" y1="142" x2="230" y2="172" stroke="#2E2D2D" stroke-width="2" stroke-linecap="round" opacity="0.25"/>
  <line x1="185" y1="136" x2="235" y2="161" stroke="#2E2D2D" stroke-width="2" stroke-linecap="round" opacity="0.25"/>
  <line x1="200" y1="130" x2="260" y2="160" stroke="#2E2D2D" stroke-width="1.5" stroke-linecap="round" opacity="0.2"/>
  <!-- Top layer small icon placeholder -->
  <circle cx="255" cy="140" r="8" fill="#7C3AED" fill-opacity="0.2" stroke="#2E2D2D" stroke-width="1.5"/>
  <polyline points="251,140 254,144 260,136" stroke="#2E2D2D" stroke-width="1.5" fill="none" stroke-linecap="round" stroke-linejoin="round"/>
  <!-- Connecting arrow: top to middle -->
  <line x1="52" y1="180" x2="52" y2="210" stroke="#7C3AED" stroke-width="2" stroke-dasharray="4 3" opacity="0.4"/>
  <polyline points="46,204 52,214 58,204" stroke="#7C3AED" stroke-width="2" fill="none" opacity="0.4" stroke-linecap="round" stroke-linejoin="round"/>
  <!-- Connecting arrow: middle to bottom -->
  <line x1="52" y1="250" x2="52" y2="280" stroke="#A855F7" stroke-width="2" stroke-dasharray="4 3" opacity="0.4"/>
  <polyline points="46,274 52,284 58,274" stroke="#A855F7" stroke-width="2" fill="none" opacity="0.4" stroke-linecap="round" stroke-linejoin="round"/>
  <!-- Right side connecting arrow -->
  <line x1="370" y1="180" x2="370" y2="210" stroke="#C026D3" stroke-width="2" stroke-dasharray="4 3" opacity="0.35"/>
  <polyline points="364,204 370,214 376,204" stroke="#C026D3" stroke-width="2" fill="none" opacity="0.35" stroke-linecap="round" stroke-linejoin="round"/>
  <line x1="370" y1="250" x2="370" y2="280" stroke="#C026D3" stroke-width="2" stroke-dasharray="4 3" opacity="0.35"/>
  <polyline points="364,274 370,284 376,274" stroke="#C026D3" stroke-width="2" fill="none" opacity="0.35" stroke-linecap="round" stroke-linejoin="round"/>
  <!-- Decorative dots top area -->
  <circle cx="120" cy="60" r="3" fill="#7C3AED" opacity="0.25"/>
  <circle cx="310" cy="50" r="2.5" fill="#A855F7" opacity="0.2"/>
  <circle cx="340" cy="70" r="2" fill="#C026D3" opacity="0.2"/>
  <circle cx="80" cy="75" r="2" fill="#A855F7" opacity="0.2"/>
  <!-- Decorative dots bottom area -->
  <circle cx="100" cy="370" r="2.5" fill="#C026D3" opacity="0.2"/>
  <circle cx="320" cy="365" r="3" fill="#7C3AED" opacity="0.2"/>
  <!-- Small decorative lines -->
  <line x1="330" y1="380" x2="360" y2="380" stroke="#A855F7" stroke-width="1.5" opacity="0.15" stroke-linecap="round"/>
  <line x1="340" y1="390" x2="355" y2="390" stroke="#7C3AED" stroke-width="1.5" opacity="0.15" stroke-linecap="round"/>
</svg>