<svg xmlns="http://www.w3.org/2000/svg" viewBox="0 0 400 400" fill="none">
  <!-- Factory building shadow -->
  <rect x="63" y="83" width="180" height="170" rx="4" fill="#000" opacity="0.08" transform="translate(4,4)"/>
  <!-- Factory building -->
  <rect x="60" y="80" width="180" height="170" rx="4" stroke="#2E2D2D" stroke-width="4" fill="#7C3AED" fill-opacity="0.10"/>
  <!-- Factory roof sawtooth -->
  <path d="M60 80 L100 45 L100 80 L150 45 L150 80 L200 45 L200 80 L240 55 L240 80" stroke="#2E2D2D" stroke-width="3" fill="#A855F7" fill-opacity="0.10"/>
  <!-- Windows on factory -->
  <rect x="78" y="105" width="30" height="25" rx="2" stroke="#2E2D2D" stroke-width="2" fill="#C026D3" fill-opacity="0.10"/>
  <line x1="93" y1="105" x2="93" y2="130" stroke="#2E2D2D" stroke-width="1.5" opacity="0.3"/>
  <rect x="128" y="105" width="30" height="25" rx="2" stroke="#2E2D2D" stroke-width="2" fill="#C026D3" fill-opacity="0.10"/>
  <line x1="143" y1="105" x2="143" y2="130" stroke="#2E2D2D" stroke-width="1.5" opacity="0.3"/>
  <rect x="178" y="105" width="30" height="25" rx="2" stroke="#2E2D2D" stroke-width="2" fill="#C026D3" fill-opacity="0.10"/>
  <line x1="193" y1="105" x2="193" y2="130" stroke="#2E2D2D" stroke-width="1.5" opacity="0.3"/>
  <!-- Smokestack -->
  <rect x="215" y="30" width="18" height="50" stroke="#2E2D2D" stroke-width="2.5" fill="#2E2D2D" fill-opacity="0.1"/>
  <!-- Smoke puffs -->
  <circle cx="224" cy="22" r="8" stroke="#2E2D2D" stroke-width="1.5" fill="none" opacity="0.15"/>
  <circle cx="218" cy="12" r="6" stroke="#2E2D2D" stroke-width="1" fill="none" opacity="0.1"/>
  <circle cx="230" cy="5" r="5" stroke="#2E2D2D" stroke-width="1" fill="none" opacity="0.08"/>
  <!-- Factory door -->
  <rect x="120" y="195" width="55" height="55" rx="3" stroke="#2E2D2D" stroke-width="2.5" fill="#7C3AED" fill-opacity="0.12"/>
  <!-- Door roll-up lines -->
  <line x1="125" y1="202" x2="170" y2="202" stroke="#2E2D2D" stroke-width="1.5" opacity="0.2"/>
  <line x1="125" y1="210" x2="170" y2="210" stroke="#2E2D2D" stroke-width="1.5" opacity="0.2"/>
  <line x1="125" y1="218" x2="170" y2="218" stroke="#2E2D2D" stroke-width="1.5" opacity="0.15"/>
  <!-- Conveyor belt shadow -->
  <rect x="48" y="283" width="310" height="18" rx="9" fill="#000" opacity="0.08" transform="translate(3,3)"/>
  <!-- Conveyor belt -->
  <rect x="45" y="280" width="310" height="18" rx="9" stroke="#2E2D2D" stroke-width="3" fill="#A855F7" fill-opacity="0.12"/>
  <!-- Belt wheels -->
  <circle cx="55" cy="289" r="6" stroke="#2E2D2D" stroke-width="2" fill="none" opacity="0.3"/>
  <circle cx="345" cy="289" r="6" stroke="#2E2D2D" stroke-width="2" fill="none" opacity="0.3"/>
  <!-- Belt tread marks -->
  <line x1="90" y1="283" x2="90" y2="295" stroke="#2E2D2D" stroke-width="1.5" opacity="0.15"/>
  <line x1="120" y1="283" x2="120" y2="295" stroke="#2E2D2D" stroke-width="1.5" opacity="0.15"/>
  <line x1="150" y1="283" x2="150" y2="295" stroke="#2E2D2D" stroke-width="1.5" opacity="0.15"/>
  <line x1="180" y1="283" x2="180" y2="295" stroke="#2E2D2D" stroke-width="1.5" opacity="0.15"/>
  <line x1="210" y1="283" x2="210" y2="295" stroke="#2E2D2D" stroke-width="1.5" opacity="0.15"/>
  <line x1="240" y1="283" x2="240" y2="295" stroke="#2E2D2D" stroke-width="1.5" opacity="0.15"/>
  <line x1="270" y1="283" x2="270" y2="295" stroke="#2E2D2D" stroke-width="1.5" opacity="0.15"/>
  <line x1="300" y1="283" x2="300" y2="295" stroke="#2E2D2D" stroke-width="1.5" opacity="0.15"/>
  <!-- Products on belt - box 1 -->
  <rect x="100" y="258" width="28" height="22" rx="3" stroke="#2E2D2D" stroke-width="2.5" fill="#7C3AED" fill-opacity="0.15"/>
  <line x1="114" y1="258" x2="114" y2="280" stroke="#2E2D2D" stroke-width="1.5" opacity="0.2"/>
  <!-- Products on belt - box 2 -->
  <rect x="180" y="255" width="32" height="25" rx="3" stroke="#2E2D2D" stroke-width="2.5" fill="#C026D3" fill-opacity="0.14"/>
  <line x1="196" y1="255" x2="196" y2="280" stroke="#2E2D2D" stroke-width="1.5" opacity="0.2"/>
  <!-- Products on belt - box 3 -->
  <rect x="265" y="260" width="26" height="20" rx="3" stroke="#2E2D2D" stroke-width="2.5" fill="#A855F7" fill-opacity="0.15"/>
  <line x1="278" y1="260" x2="278" y2="280" stroke="#2E2D2D" stroke-width="1.5" opacity="0.2"/>
  <!-- Worker silhouette - head -->
  <circle cx="335" cy="140" r="16" fill="#2E2D2D" opacity="0.85"/>
  <!-- Hard hat -->
  <path d="M317 136 Q320 118 335 115 Q350 118 353 136 Z" fill="#2E2D2D" opacity="0.9"/>
  <line x1="314" y1="136" x2="356" y2="136" stroke="#A855F7" stroke-width="2.5" stroke-linecap="round" opacity="0.4"/>
  <!-- Worker body -->
  <path d="M310 210 Q310 175 318 165 Q325 158 335 156 Q345 158 352 165 Q360 175 360 210 L355 218 L315 218 Z" fill="#2E2D2D" opacity="0.8"/>
  <!-- Worker vest detail -->
  <line x1="335" y1="165" x2="335" y2="210" stroke="#A855F7" stroke-width="1.5" opacity="0.25"/>
  <line x1="318" y1="185" x2="352" y2="185" stroke="#A855F7" stroke-width="1.5" opacity="0.2"/>
  <!-- Worker arm -->
  <path d="M315 175 Q300 185 295 200 Q290 215 295 225" stroke="#2E2D2D" stroke-width="4" fill="none" stroke-linecap="round" opacity="0.7"/>
  <!-- Gear -->
  <circle cx="55" cy="350" r="18" stroke="#2E2D2D" stroke-width="2.5" fill="#7C3AED" fill-opacity="0.12"/>
  <circle cx="55" cy="350" r="8" stroke="#2E2D2D" stroke-width="2" fill="none" opacity="0.3"/>
  <!-- Gear teeth -->
  <line x1="55" y1="329" x2="55" y2="335" stroke="#2E2D2D" stroke-width="4" stroke-linecap="round" opacity="0.5"/>
  <line x1="55" y1="365" x2="55" y2="371" stroke="#2E2D2D" stroke-width="4" stroke-linecap="round" opacity="0.5"/>
  <line x1="34" y1="350" x2="40" y2="350" stroke="#2E2D2D" stroke-width="4" stroke-linecap="round" opacity="0.5"/>
  <line x1="70" y1="350" x2="76" y2="350" stroke="#2E2D2D" stroke-width="4" stroke-linecap="round" opacity="0.5"/>
  <line x1="40" y1="335" x2="44" y2="339" stroke="#2E2D2D" stroke-width="3.5" stroke-linecap="round" opacity="0.4"/>
  <line x1="66" y1="361" x2="70" y2="365" stroke="#2E2D2D" stroke-width="3.5" stroke-linecap="round" opacity="0.4"/>
  <line x1="40" y1="365" x2="44" y2="361" stroke="#2E2D2D" stroke-width="3.5" stroke-linecap="round" opacity="0.4"/>
  <line x1="66" y1="339" x2="70" y2="335" stroke="#2E2D2D" stroke-width="3.5" stroke-linecap="round" opacity="0.4"/>
  <!-- Robotic arm -->
  <line x1="280" y1="340" x2="310" y2="360" stroke="#2E2D2D" stroke-width="4" stroke-linecap="round"/>
  <line x1="310" y1="360" x2="340" y2="345" stroke="#2E2D2D" stroke-width="3.5" stroke-linecap="round"/>
  <circle cx="310" cy="360" r="4" fill="#2E2D2D" opacity="0.4"/>
  <!-- Claw -->
  <path d="M340 345 L348 338 M340 345 L350 350" stroke="#2E2D2D" stroke-width="2.5" stroke-linecap="round"/>
  <!-- Quality checkmark -->
  <circle cx="355" cy="50" r="16" stroke="#2E2D2D" stroke-width="2.5" fill="#7C3AED" fill-opacity="0.14"/>
  <polyline points="346,50 352,58 366,42" stroke="#2E2D2D" stroke-width="2.5" fill="none" stroke-linecap="round" stroke-linejoin="round"/>
  <!-- Decorative dots -->
  <circle cx="40" cy="55" r="2.5" fill="#7C3AED" opacity="0.3"/>
  <circle cx="275" cy="45" r="2" fill="#A855F7" opacity="0.25"/>
  <circle cx="165" cy="350" r="2" fill="#C026D3" opacity="0.25"/>
  <!-- Decorative lines -->
  <line x1="45" y1="155" x2="56" y2="155" stroke="#2E2D2D" stroke-width="1.5" stroke-linecap="round" opacity="0.15"/>
</svg>