<svg xmlns="http://www.w3.org/2000/svg" viewBox="0 0 400 400" fill="none">
  <!-- Exhaust trail / flame shadow -->
  <path d="M203 318 Q178 348 168 378 Q198 365 203 378 Q208 365 238 378 Q228 348 203 318 Z" fill="#000" opacity="0.08" transform="translate(4,4)"/>
  <!-- Exhaust trail / flame -->
  <path d="M200 315 Q175 345 165 375 Q195 362 200 375 Q205 362 235 375 Q225 345 200 315 Z" fill="#C026D3" fill-opacity="0.18" stroke="#2E2D2D" stroke-width="2.5"/>
  <!-- Inner flame -->
  <path d="M200 328 Q188 348 183 365 Q195 358 200 365 Q205 358 217 365 Q212 348 200 328 Z" fill="#A855F7" fill-opacity="0.15"/>
  <!-- Rocket body shadow -->
  <path d="M183 128 Q183 68 203 38 Q223 68 223 128 L223 308 Q203 320 183 308 Z" fill="#000" opacity="0.08" transform="translate(4,4)"/>
  <!-- Rocket body -->
  <path d="M180 125 Q180 65 200 35 Q220 65 220 125 L220 305 Q200 317 180 305 Z" stroke="#2E2D2D" stroke-width="3.5" fill="#7C3AED" fill-opacity="0.12"/>
  <!-- Rocket nose cone accent -->
  <path d="M190 85 Q190 60 200 42 Q210 60 210 85" fill="#A855F7" fill-opacity="0.10"/>
  <!-- Rocket window shadow -->
  <circle cx="203" cy="153" r="22" fill="#000" opacity="0.08"/>
  <!-- Rocket window -->
  <circle cx="200" cy="150" r="22" stroke="#2E2D2D" stroke-width="3" fill="#C026D3" fill-opacity="0.15"/>
  <!-- Window shine -->
  <circle cx="192" cy="142" r="6" fill="none" stroke="#2E2D2D" stroke-width="1.5" opacity="0.2"/>
  <!-- Rocket body detail lines -->
  <line x1="180" y1="200" x2="220" y2="200" stroke="#2E2D2D" stroke-width="2" opacity="0.2"/>
  <line x1="180" y1="260" x2="220" y2="260" stroke="#2E2D2D" stroke-width="2" opacity="0.2"/>
  <!-- Rocket fin left shadow -->
  <path d="M180 258 L140 318 L140 295 L180 258 Z" fill="#000" opacity="0.08" transform="translate(3,3)"/>
  <!-- Rocket fin left -->
  <path d="M178 255 L138 315 L138 292 L178 255 Z" stroke="#2E2D2D" stroke-width="2.5" fill="#A855F7" fill-opacity="0.14"/>
  <!-- Rocket fin right shadow -->
  <path d="M223 258 L263 318 L263 295 L223 258 Z" fill="#000" opacity="0.08" transform="translate(3,3)"/>
  <!-- Rocket fin right -->
  <path d="M222 255 L262 315 L262 292 L222 255 Z" stroke="#2E2D2D" stroke-width="2.5" fill="#A855F7" fill-opacity="0.14"/>
  <!-- Launch pad base -->
  <rect x="110" y="360" width="180" height="12" rx="4" fill="#000" opacity="0.08" transform="translate(3,3)"/>
  <rect x="107" y="357" width="180" height="12" rx="4" stroke="#2E2D2D" stroke-width="2.5" fill="#2E2D2D" opacity="0.15"/>
  <!-- Launch pad supports -->
  <line x1="145" y1="357" x2="165" y2="340" stroke="#2E2D2D" stroke-width="2.5" stroke-linecap="round"/>
  <line x1="255" y1="357" x2="235" y2="340" stroke="#2E2D2D" stroke-width="2.5" stroke-linecap="round"/>
  <!-- Person standing near launch pad -->
  <!-- Person head -->
  <circle cx="68" cy="300" r="12" stroke="#2E2D2D" stroke-width="2.5" fill="#C026D3" fill-opacity="0.12"/>
  <!-- Person body -->
  <line x1="68" y1="312" x2="68" y2="345" stroke="#2E2D2D" stroke-width="3" stroke-linecap="round"/>
  <!-- Person left arm (pointing up at rocket) -->
  <path d="M68 322 L48 308 L42 298" stroke="#2E2D2D" stroke-width="2.5" stroke-linecap="round" fill="none"/>
  <!-- Person right arm -->
  <line x1="68" y1="325" x2="88" y2="335" stroke="#2E2D2D" stroke-width="2.5" stroke-linecap="round"/>
  <!-- Person left leg -->
  <line x1="68" y1="345" x2="55" y2="370" stroke="#2E2D2D" stroke-width="2.5" stroke-linecap="round"/>
  <!-- Person right leg -->
  <line x1="68" y1="345" x2="82" y2="370" stroke="#2E2D2D" stroke-width="2.5" stroke-linecap="round"/>
  <!-- Cloud left -->
  <path d="M30 175 Q35 162 50 165 Q55 152 70 158 Q82 150 90 160 Q95 168 88 175 Z" stroke="#2E2D2D" stroke-width="2" fill="#7C3AED" fill-opacity="0.08"/>
  <!-- Cloud right -->
  <path d="M300 115 Q308 102 322 108 Q328 95 345 100 Q358 95 365 105 Q372 112 365 120 Z" stroke="#2E2D2D" stroke-width="2" fill="#A855F7" fill-opacity="0.08"/>
  <!-- Small cloud -->
  <path d="M310 205 Q315 195 325 198 Q330 192 340 196 Q345 200 340 205 Z" stroke="#2E2D2D" stroke-width="1.5" fill="none" opacity="0.2"/>
  <!-- Stars -->
  <polygon points="330,55 332,61 338,61 333,65 335,71 330,67 325,71 327,65 322,61 328,61" fill="#2E2D2D" opacity="0.2"/>
  <polygon points="55,90 57,95 62,95 58,98 59,103 55,100 51,103 52,98 48,95 53,95" fill="#2E2D2D" opacity="0.18"/>
  <polygon points="105,55 106,58 109,58 107,60 108,63 105,61 102,63 103,60 101,58 104,58" fill="#2E2D2D" opacity="0.15"/>
  <!-- Speedometer bottom-right -->
  <path d="M335 280 Q360 280 360 305 Q360 330 335 330 Q310 330 310 305 Q310 280 335 280 Z" stroke="#2E2D2D" stroke-width="2" fill="#C026D3" fill-opacity="0.12"/>
  <!-- Speedometer base -->
  <line x1="310" y1="305" x2="360" y2="305" stroke="#2E2D2D" stroke-width="2"/>
  <!-- Speedometer needle -->
  <line x1="335" y1="305" x2="350" y2="285" stroke="#2E2D2D" stroke-width="2.5" stroke-linecap="round" opacity="0.6"/>
  <circle cx="335" cy="305" r="3" fill="#2E2D2D" opacity="0.4"/>
  <!-- Speedometer tick marks -->
  <line x1="320" y1="282" x2="322" y2="286" stroke="#2E2D2D" stroke-width="1.5" opacity="0.3"/>
  <line x1="335" y1="280" x2="335" y2="284" stroke="#2E2D2D" stroke-width="1.5" opacity="0.3"/>
  <line x1="350" y1="282" x2="348" y2="286" stroke="#2E2D2D" stroke-width="1.5" opacity="0.3"/>
  <!-- Decorative dots -->
  <circle cx="380" cy="170" r="2.5" fill="#7C3AED" opacity="0.28"/>
  <circle cx="25" cy="240" r="2" fill="#A855F7" opacity="0.25"/>
  <circle cx="370" cy="350" r="2" fill="#C026D3" opacity="0.22"/>
  <!-- Decorative lines -->
  <line x1="15" y1="130" x2="32" y2="130" stroke="#2E2D2D" stroke-width="1.5" stroke-linecap="round" opacity="0.15"/>
  <line x1="18" y1="138" x2="38" y2="138" stroke="#2E2D2D" stroke-width="1.5" stroke-linecap="round" opacity="0.12"/>
</svg>