<svg xmlns="http://www.w3.org/2000/svg" viewBox="0 0 400 400" fill="none">
  <!-- Large gear depth shadow -->
  <path d="M223,103 L233,78 L253,84 L266,62 L286,74 L304,56 L320,72 L342,60 L350,80 L374,76 L374,98 L396,102 L388,124 L406,136 L392,154 L404,172 L386,184 L392,204 L370,208 L368,230 L346,226 L338,246 L318,236 L304,252 L288,236 L270,248 L258,230 L238,236 L232,214 L212,212 L218,190 L200,178 L214,160 L204,140 L222,132 L218,110 Z" fill="#000" opacity="0.08" transform="translate(-17,-9)"/>
  <!-- Large gear -->
  <path d="M206,100 L216,75 L236,81 L249,59 L269,71 L287,53 L303,69 L325,57 L333,77 L357,73 L357,95 L379,99 L371,121 L389,133 L375,151 L387,169 L369,181 L375,201 L353,205 L351,227 L329,223 L321,243 L301,233 L287,249 L271,233 L253,245 L241,227 L221,233 L215,211 L195,209 L201,187 L183,175 L197,157 L187,137 L205,129 L201,107 Z" stroke="#2E2D2D" stroke-width="3.5" fill="#7C3AED" fill-opacity="0.14" stroke-linejoin="round"/>
  <!-- Gear center circle -->
  <circle cx="287" cy="153" r="42" stroke="#2E2D2D" stroke-width="3" fill="white" fill-opacity="0.4"/>
  <circle cx="287" cy="153" r="18" stroke="#2E2D2D" stroke-width="2.5" fill="#A855F7" fill-opacity="0.15"/>
  <!-- Wrench depth shadow -->
  <path d="M73,333 L180,226 C172,210 176,190 192,180 L176,164 C158,174 148,196 154,218 L47,325 C38,334 38,350 47,359 L53,365 C62,374 78,374 87,365 Z" fill="#000" opacity="0.08" transform="translate(3,3)"/>
  <!-- Wrench body -->
  <path d="M70,330 L177,223 C169,207 173,187 189,177 L173,161 C155,171 145,193 151,215 L44,322 C35,331 35,347 44,356 L50,362 C59,371 75,371 84,362 Z" stroke="#2E2D2D" stroke-width="3.5" fill="#C026D3" fill-opacity="0.14" stroke-linejoin="round"/>
  <!-- Wrench head open jaw -->
  <path d="M189,177 L210,156 L196,136 L173,161 Z" stroke="#2E2D2D" stroke-width="2.5" fill="#C026D3" fill-opacity="0.14" stroke-linejoin="round"/>
  <!-- Hand gripping wrench -->
  <path d="M36,345 C26,340 20,332 22,322 L30,310 C36,306 44,308 46,316 L38,330 C40,338 46,344 54,346" stroke="#2E2D2D" stroke-width="2.5" fill="#A855F7" fill-opacity="0.12"/>
  <!-- Fingers on wrench -->
  <path d="M30,310 C24,308 18,314 20,320" stroke="#2E2D2D" stroke-width="2" fill="none"/>
  <path d="M38,304 C32,300 26,304 26,310" stroke="#2E2D2D" stroke-width="2" fill="none"/>
  <path d="M48,300 C42,296 36,300 36,306" stroke="#2E2D2D" stroke-width="2" fill="none"/>
  <!-- Small gear 1 (top-left) -->
  <path d="M88,70 L92,58 L100,60 L106,50 L114,56 L122,50 L126,58 L134,58 L134,66 L142,70 L138,78 L144,86 L136,90 L138,98 L130,100 L128,108 L120,104 L114,110 L108,104 L100,106 L98,98 L90,96 L92,88 L84,82 L90,76 Z" stroke="#2E2D2D" stroke-width="2" fill="#A855F7" fill-opacity="0.15" stroke-linejoin="round"/>
  <circle cx="113" cy="80" r="12" stroke="#2E2D2D" stroke-width="1.5" fill="white" fill-opacity="0.3"/>
  <!-- Small gear 2 (connecting) -->
  <path d="M140,116 L143,108 L149,109 L153,103 L159,107 L164,103 L167,108 L173,108 L173,114 L178,116 L176,122 L180,127 L175,130 L176,135 L171,136 L170,141 L165,138 L161,142 L157,138 L152,140 L151,135 L146,133 L148,128 L144,124 L148,120 Z" stroke="#2E2D2D" stroke-width="1.5" fill="#C026D3" fill-opacity="0.12" stroke-linejoin="round"/>
  <circle cx="161" cy="122" r="8" stroke="#2E2D2D" stroke-width="1.5" fill="white" fill-opacity="0.3"/>
  <!-- Dotted line connecting gears -->
  <line x1="125" y1="90" x2="152" y2="114" stroke="#2E2D2D" stroke-width="1.5" stroke-dasharray="3 3" opacity="0.3"/>
  <!-- Toggle switch 1 -->
  <rect x="310" y="290" width="52" height="24" rx="12" stroke="#2E2D2D" stroke-width="2.5" fill="#7C3AED" fill-opacity="0.18"/>
  <circle cx="348" cy="302" r="8" fill="#7C3AED" fill-opacity="0.4" stroke="#2E2D2D" stroke-width="2"/>
  <!-- Toggle switch 2 (off state) -->
  <rect x="310" y="326" width="52" height="24" rx="12" stroke="#2E2D2D" stroke-width="2.5" fill="#2E2D2D" fill-opacity="0.06"/>
  <circle cx="324" cy="338" r="8" fill="#2E2D2D" fill-opacity="0.15" stroke="#2E2D2D" stroke-width="2"/>
  <!-- Decorative dots -->
  <circle cx="370" cy="45" r="3" fill="#7C3AED" opacity="0.25"/>
  <circle cx="382" cy="65" r="2" fill="#A855F7" opacity="0.2"/>
  <circle cx="20" cy="260" r="2.5" fill="#C026D3" opacity="0.2"/>
  <circle cx="30" cy="280" r="2" fill="#7C3AED" opacity="0.2"/>
  <!-- Small decorative lines -->
  <line x1="355" y1="370" x2="380" y2="370" stroke="#A855F7" stroke-width="1.5" opacity="0.15" stroke-linecap="round"/>
  <line x1="360" y1="380" x2="375" y2="380" stroke="#7C3AED" stroke-width="1.5" opacity="0.15" stroke-linecap="round"/>
</svg>