<svg xmlns="http://www.w3.org/2000/svg" viewBox="0 0 400 400" fill="none">
  <!-- Main branch line shadow -->
  <line x1="83" y1="53" x2="83" y2="363" stroke="#000" stroke-width="6" opacity="0.08" stroke-linecap="round"/>
  <!-- Main branch line -->
  <line x1="80" y1="50" x2="80" y2="360" stroke="#2E2D2D" stroke-width="4" stroke-linecap="round"/>
  <!-- Branch 1: splits right from main -->
  <path d="M80,110 C100,110 130,100 160,100 L260,100 C290,100 310,110 310,130 L310,160 C310,180 290,190 260,190 L160,190 C130,190 100,190 80,190" stroke="#7C3AED" stroke-width="3" fill="none" stroke-linecap="round" opacity="0.7"/>
  <!-- Branch 1 fill area -->
  <path d="M80,110 C100,110 130,100 160,100 L260,100 C290,100 310,110 310,130 L310,160 C310,180 290,190 260,190 L160,190 C130,190 100,190 80,190" fill="#7C3AED" fill-opacity="0.06"/>
  <!-- Branch 2: splits right (shorter) -->
  <path d="M80,230 C100,230 120,220 150,220 L210,220 C230,220 240,230 240,245 L240,265 C240,280 230,290 210,290 L150,290 C120,290 100,290 80,290" stroke="#A855F7" stroke-width="3" fill="none" stroke-linecap="round" opacity="0.6"/>
  <!-- Branch 2 fill area -->
  <path d="M80,230 C100,230 120,220 150,220 L210,220 C230,220 240,230 240,245 L240,265 C240,280 230,290 210,290 L150,290 C120,290 100,290 80,290" fill="#A855F7" fill-opacity="0.06"/>
  <!-- Small feature branch from branch 1 -->
  <path d="M220,100 C230,90 240,85 255,85 L290,85 C305,85 310,90 310,100" stroke="#C026D3" stroke-width="2" fill="none" stroke-linecap="round" opacity="0.5"/>
  <!-- Commit dots on main branch -->
  <circle cx="80" cy="50" r="8" fill="#2E2D2D" stroke="#2E2D2D" stroke-width="2"/>
  <circle cx="80" cy="110" r="8" fill="#7C3AED" fill-opacity="0.4" stroke="#2E2D2D" stroke-width="2.5"/>
  <circle cx="80" cy="150" r="6" fill="#2E2D2D" fill-opacity="0.3" stroke="#2E2D2D" stroke-width="2"/>
  <circle cx="80" cy="190" r="8" fill="#7C3AED" fill-opacity="0.4" stroke="#2E2D2D" stroke-width="2.5"/>
  <circle cx="80" cy="230" r="8" fill="#A855F7" fill-opacity="0.4" stroke="#2E2D2D" stroke-width="2.5"/>
  <circle cx="80" cy="260" r="6" fill="#2E2D2D" fill-opacity="0.3" stroke="#2E2D2D" stroke-width="2"/>
  <circle cx="80" cy="290" r="8" fill="#A855F7" fill-opacity="0.4" stroke="#2E2D2D" stroke-width="2.5"/>
  <circle cx="80" cy="330" r="6" fill="#2E2D2D" fill-opacity="0.3" stroke="#2E2D2D" stroke-width="2"/>
  <circle cx="80" cy="360" r="8" fill="#2E2D2D" stroke="#2E2D2D" stroke-width="2"/>
  <!-- Commit dots on branch 1 -->
  <circle cx="160" cy="100" r="6" fill="#7C3AED" fill-opacity="0.5" stroke="#2E2D2D" stroke-width="2"/>
  <circle cx="220" cy="100" r="6" fill="#7C3AED" fill-opacity="0.5" stroke="#2E2D2D" stroke-width="2"/>
  <circle cx="310" cy="130" r="6" fill="#7C3AED" fill-opacity="0.5" stroke="#2E2D2D" stroke-width="2"/>
  <circle cx="310" cy="160" r="6" fill="#7C3AED" fill-opacity="0.5" stroke="#2E2D2D" stroke-width="2"/>
  <circle cx="220" cy="190" r="6" fill="#7C3AED" fill-opacity="0.5" stroke="#2E2D2D" stroke-width="2"/>
  <!-- Commit dot on mini branch -->
  <circle cx="270" cy="85" r="5" fill="#C026D3" fill-opacity="0.4" stroke="#2E2D2D" stroke-width="1.5"/>
  <!-- Commit dots on branch 2 -->
  <circle cx="150" cy="220" r="6" fill="#A855F7" fill-opacity="0.5" stroke="#2E2D2D" stroke-width="2"/>
  <circle cx="240" cy="250" r="6" fill="#A855F7" fill-opacity="0.5" stroke="#2E2D2D" stroke-width="2"/>
  <circle cx="180" cy="290" r="6" fill="#A855F7" fill-opacity="0.5" stroke="#2E2D2D" stroke-width="2"/>
  <!-- Merge arrows at merge points -->
  <polyline points="90,186 80,190 90,194" stroke="#2E2D2D" stroke-width="2" fill="none" stroke-linecap="round" stroke-linejoin="round" opacity="0.5"/>
  <polyline points="90,286 80,290 90,294" stroke="#2E2D2D" stroke-width="2" fill="none" stroke-linecap="round" stroke-linejoin="round" opacity="0.5"/>
  <!-- Version labels -->
  <rect x="24" y="42" width="32" height="16" rx="4" fill="#2E2D2D" fill-opacity="0.1" stroke="#2E2D2D" stroke-width="1.5"/>
  <line x1="30" y1="50" x2="50" y2="50" stroke="#2E2D2D" stroke-width="2" stroke-linecap="round" opacity="0.4"/>
  <rect x="24" y="182" width="32" height="16" rx="4" fill="#7C3AED" fill-opacity="0.15" stroke="#2E2D2D" stroke-width="1.5"/>
  <line x1="30" y1="190" x2="50" y2="190" stroke="#7C3AED" stroke-width="2" stroke-linecap="round" opacity="0.5"/>
  <rect x="24" y="282" width="32" height="16" rx="4" fill="#A855F7" fill-opacity="0.15" stroke="#2E2D2D" stroke-width="1.5"/>
  <line x1="30" y1="290" x2="50" y2="290" stroke="#A855F7" stroke-width="2" stroke-linecap="round" opacity="0.5"/>
  <!-- Branch name labels (abstract) -->
  <rect x="315" y="122" width="55" height="16" rx="4" fill="#7C3AED" fill-opacity="0.12" stroke="#2E2D2D" stroke-width="1.5"/>
  <line x1="322" y1="130" x2="362" y2="130" stroke="#2E2D2D" stroke-width="2" stroke-linecap="round" opacity="0.35"/>
  <rect x="245" y="242" width="50" height="16" rx="4" fill="#A855F7" fill-opacity="0.12" stroke="#2E2D2D" stroke-width="1.5"/>
  <line x1="252" y1="250" x2="288" y2="250" stroke="#2E2D2D" stroke-width="2" stroke-linecap="round" opacity="0.35"/>
  <!-- Decorative dots -->
  <circle cx="370" cy="50" r="3" fill="#7C3AED" opacity="0.3"/>
  <circle cx="355" cy="340" r="2.5" fill="#A855F7" opacity="0.25"/>
  <circle cx="365" cy="200" r="2" fill="#C026D3" opacity="0.2"/>
  <!-- Decorative lines -->
  <line x1="345" y1="290" x2="365" y2="290" stroke="#2E2D2D" stroke-width="1.5" stroke-linecap="round" opacity="0.15"/>
  <line x1="348" y1="298" x2="358" y2="298" stroke="#2E2D2D" stroke-width="1" stroke-linecap="round" opacity="0.1"/>
</svg>