<svg xmlns="http://www.w3.org/2000/svg" viewBox="0 0 400 400" fill="none">
  <!-- Medical cross shadow -->
  <path d="M163 93 L243 93 L243 163 L313 163 L313 243 L243 243 L243 313 L163 313 L163 243 L93 243 L93 163 L163 163 Z" fill="#000" opacity="0.08" transform="translate(3,3)"/>
  <!-- Medical cross -->
  <path d="M160 90 L240 90 L240 160 L310 160 L310 240 L240 240 L240 310 L160 310 L160 240 L90 240 L90 160 L160 160 Z" stroke="#2E2D2D" stroke-width="4" fill="#7C3AED" fill-opacity="0.12"/>
  <!-- Cross inner highlight -->
  <path d="M175 110 L225 110 L225 175 L290 175 L290 225 L225 225 L225 290 L175 290 L175 225 L110 225 L110 175 L175 175 Z" stroke="#2E2D2D" stroke-width="1.5" fill="none" opacity="0.15"/>
  <!-- Stethoscope tube -->
  <path d="M295 95 Q320 95 330 120 Q340 150 330 190 Q320 230 290 250 Q270 260 260 280 Q255 295 260 310" stroke="#2E2D2D" stroke-width="3.5" fill="none" stroke-linecap="round"/>
  <!-- Stethoscope chest piece -->
  <circle cx="260" cy="318" r="14" stroke="#2E2D2D" stroke-width="3" fill="#A855F7" fill-opacity="0.15"/>
  <circle cx="260" cy="318" r="6" stroke="#2E2D2D" stroke-width="2" fill="#2E2D2D" opacity="0.15"/>
  <!-- Stethoscope earpieces -->
  <path d="M295 95 Q285 80 278 75" stroke="#2E2D2D" stroke-width="3" fill="none" stroke-linecap="round"/>
  <path d="M295 95 Q305 80 312 75" stroke="#2E2D2D" stroke-width="3" fill="none" stroke-linecap="round"/>
  <circle cx="275" cy="73" r="4" fill="#2E2D2D" opacity="0.7"/>
  <circle cx="315" cy="73" r="4" fill="#2E2D2D" opacity="0.7"/>
  <!-- Doctor silhouette - head -->
  <circle cx="68" cy="120" r="18" fill="#2E2D2D" opacity="0.85"/>
  <!-- Doctor body -->
  <path d="M42 195 Q42 160 55 148 Q62 142 68 140 Q74 142 81 148 Q94 160 94 195 L90 200 L46 200 Z" fill="#2E2D2D" opacity="0.8"/>
  <!-- Doctor coat detail -->
  <line x1="68" y1="155" x2="68" y2="195" stroke="white" stroke-width="1.5" opacity="0.3"/>
  <line x1="55" y1="162" x2="58" y2="172" stroke="white" stroke-width="1" opacity="0.2"/>
  <line x1="81" y1="162" x2="78" y2="172" stroke="white" stroke-width="1" opacity="0.2"/>
  <!-- Clipboard shadow -->
  <rect x="47" y="203" width="44" height="56" rx="4" fill="#000" opacity="0.08" transform="translate(3,3)"/>
  <!-- Clipboard -->
  <rect x="44" y="200" width="44" height="56" rx="4" stroke="#2E2D2D" stroke-width="2.5" fill="#C026D3" fill-opacity="0.12"/>
  <!-- Clipboard clip -->
  <rect x="56" y="195" width="20" height="10" rx="3" stroke="#2E2D2D" stroke-width="2" fill="#2E2D2D" opacity="0.3"/>
  <!-- Clipboard lines -->
  <line x1="52" y1="218" x2="78" y2="218" stroke="#2E2D2D" stroke-width="1.5" stroke-linecap="round" opacity="0.35"/>
  <line x1="52" y1="226" x2="74" y2="226" stroke="#2E2D2D" stroke-width="1.5" stroke-linecap="round" opacity="0.25"/>
  <line x1="52" y1="234" x2="70" y2="234" stroke="#2E2D2D" stroke-width="1.5" stroke-linecap="round" opacity="0.25"/>
  <line x1="52" y1="242" x2="76" y2="242" stroke="#2E2D2D" stroke-width="1.5" stroke-linecap="round" opacity="0.2"/>
  <!-- Heartbeat line -->
  <polyline points="100 350, 130 350, 138 350, 144 330, 152 370, 160 340, 166 350, 200 350" stroke="#2E2D2D" stroke-width="2.5" fill="none" stroke-linecap="round" stroke-linejoin="round" opacity="0.4"/>
  <!-- Pill capsule shadow -->
  <rect x="305" y="343" width="38" height="16" rx="8" fill="#000" opacity="0.08" transform="rotate(-25 324 351) translate(3,3)"/>
  <!-- Pill capsule -->
  <rect x="302" y="340" width="38" height="16" rx="8" stroke="#2E2D2D" stroke-width="2.5" fill="#A855F7" fill-opacity="0.15" transform="rotate(-25 321 348)"/>
  <!-- Pill divider -->
  <line x1="321" y1="340" x2="321" y2="356" stroke="#2E2D2D" stroke-width="1.5" opacity="0.4" transform="rotate(-25 321 348)"/>
  <!-- Small shield -->
  <path d="M340 240 L355 245 L355 260 Q355 272 347.5 278 Q340 272 340 260 Z" stroke="#2E2D2D" stroke-width="2" fill="#7C3AED" fill-opacity="0.12"/>
  <polyline points="344,258 348,264 356,252" stroke="#2E2D2D" stroke-width="1.5" fill="none" stroke-linecap="round" opacity="0.5"/>
  <!-- Decorative dots -->
  <circle cx="345" cy="110" r="3" fill="#7C3AED" opacity="0.3"/>
  <circle cx="365" cy="140" r="2" fill="#A855F7" opacity="0.25"/>
  <circle cx="40" cy="300" r="2.5" fill="#C026D3" opacity="0.3"/>
  <circle cx="140" cy="50" r="2" fill="#7C3AED" opacity="0.25"/>
  <circle cx="260" cy="50" r="2.5" fill="#A855F7" opacity="0.25"/>
  <!-- Decorative lines -->
  <line x1="30" y1="340" x2="50" y2="340" stroke="#2E2D2D" stroke-width="1.5" stroke-linecap="round" opacity="0.15"/>
  <line x1="320" y1="55" x2="340" y2="55" stroke="#2E2D2D" stroke-width="1.5" stroke-linecap="round" opacity="0.15"/>
  <line x1="350" y1="180" x2="370" y2="180" stroke="#2E2D2D" stroke-width="1.5" stroke-linecap="round" opacity="0.12"/>
</svg>