<svg xmlns="http://www.w3.org/2000/svg" viewBox="0 0 400 400" fill="none">
  <!-- Heart shadow -->
  <path d="M203,313 C203,313 83,223 83,148 C83,108 113,83 148,83 C173,83 193,98 203,118 C213,98 233,83 258,83 C293,83 323,108 323,148 C323,223 203,313 203,313 Z" fill="#000" opacity="0.08"/>
  <!-- Heart shape -->
  <path d="M200,310 C200,310 80,220 80,145 C80,105 110,80 145,80 C170,80 190,95 200,115 C210,95 230,80 255,80 C290,80 320,105 320,145 C320,220 200,310 200,310 Z" stroke="#2E2D2D" stroke-width="3.5" fill="#C026D3" fill-opacity="0.15" stroke-linejoin="round"/>
  <!-- Heart inner highlight -->
  <path d="M200,285 C200,285 105,210 105,155 C105,125 125,105 150,105 C168,105 183,115 192,130" stroke="#A855F7" stroke-width="2" fill="none" opacity="0.2" stroke-linecap="round"/>
  <!-- Heart shine -->
  <path d="M130,120 Q140,105 155,100" stroke="white" stroke-width="2.5" fill="none" opacity="0.4" stroke-linecap="round"/>
  <!-- Pulse line through center -->
  <polyline points="100,190 150,190 170,170 185,210 200,160 215,205 230,175 250,190 300,190" stroke="#7C3AED" stroke-width="2.5" fill="none" stroke-linecap="round" stroke-linejoin="round" opacity="0.5"/>
  <!-- Left hand holding heart -->
  <path d="M50,250 C45,235 40,220 42,210 C44,200 52,198 56,205 L58,212 C56,200 62,194 68,200 C65,190 73,186 77,194 C76,184 84,182 86,192 L90,220 C92,240 82,260 70,268 Z" stroke="#2E2D2D" stroke-width="3" fill="#C026D3" fill-opacity="0.14" stroke-linejoin="round"/>
  <!-- Left hand finger details -->
  <path d="M68,215 Q66,208 68,202" stroke="#2E2D2D" stroke-width="1.5" fill="none" opacity="0.3"/>
  <!-- Left arm -->
  <path d="M50,268 Q40,290 35,320 L70,320 Q65,295 60,270" stroke="#2E2D2D" stroke-width="2.5" fill="#C026D3" fill-opacity="0.10"/>
  <!-- Right hand holding heart -->
  <path d="M350,250 C355,235 360,220 358,210 C356,200 348,198 344,205 L342,212 C344,200 338,194 332,200 C335,190 327,186 323,194 C324,184 316,182 314,192 L310,220 C308,240 318,260 330,268 Z" stroke="#2E2D2D" stroke-width="3" fill="#C026D3" fill-opacity="0.14" stroke-linejoin="round"/>
  <!-- Right hand finger details -->
  <path d="M332,215 Q334,208 332,202" stroke="#2E2D2D" stroke-width="1.5" fill="none" opacity="0.3"/>
  <!-- Right arm -->
  <path d="M350,268 Q360,290 365,320 L330,320 Q335,295 340,270" stroke="#2E2D2D" stroke-width="2.5" fill="#C026D3" fill-opacity="0.10"/>
  <!-- Floating mini hearts -->
  <path d="M60,100 C60,95 63,92 66,92 C69,92 70,94 70,97 C70,94 71,92 74,92 C77,92 80,95 80,100 C80,108 70,115 70,115 C70,115 60,108 60,100 Z" fill="#C026D3" fill-opacity="0.25" stroke="#2E2D2D" stroke-width="1.5"/>
  <path d="M320,60 C320,56 322,54 325,54 C327,54 328,55 328,57 C328,55 329,54 331,54 C334,54 336,56 336,60 C336,65 328,70 328,70 C328,70 320,65 320,60 Z" fill="#A855F7" fill-opacity="0.25" stroke="#2E2D2D" stroke-width="1.5"/>
  <path d="M340,140 C340,137 341,136 343,136 C344,136 345,137 345,138 C345,137 346,136 347,136 C349,136 350,137 350,140 C350,143 345,146 345,146 C345,146 340,143 340,140 Z" fill="#7C3AED" fill-opacity="0.2" stroke="#2E2D2D" stroke-width="1"/>
  <!-- Sparkles -->
  <line x1="50" y1="140" x2="50" y2="155" stroke="#7C3AED" stroke-width="2" stroke-linecap="round" opacity="0.3"/>
  <line x1="43" y1="147" x2="57" y2="147" stroke="#7C3AED" stroke-width="2" stroke-linecap="round" opacity="0.3"/>
  <line x1="340" y1="100" x2="340" y2="112" stroke="#A855F7" stroke-width="2" stroke-linecap="round" opacity="0.25"/>
  <line x1="334" y1="106" x2="346" y2="106" stroke="#A855F7" stroke-width="2" stroke-linecap="round" opacity="0.25"/>
  <line x1="290" y1="45" x2="290" y2="55" stroke="#C026D3" stroke-width="1.5" stroke-linecap="round" opacity="0.2"/>
  <line x1="285" y1="50" x2="295" y2="50" stroke="#C026D3" stroke-width="1.5" stroke-linecap="round" opacity="0.2"/>
  <!-- Decorative dots -->
  <circle cx="105" cy="55" r="3" fill="#7C3AED" opacity="0.3"/>
  <circle cx="370" cy="200" r="2" fill="#A855F7" opacity="0.25"/>
  <circle cx="30" cy="300" r="2.5" fill="#C026D3" opacity="0.2"/>
  <circle cx="380" cy="280" r="2" fill="#7C3AED" opacity="0.2"/>
</svg>