<svg xmlns="http://www.w3.org/2000/svg" viewBox="0 0 400 400" fill="none">
  <!-- Depth shadow for SERP page -->
  <rect x="73" y="43" width="260" height="320" rx="12" fill="#000" opacity="0.08"/>
  <!-- SERP page body -->
  <rect x="70" y="40" width="260" height="320" rx="12" stroke="#2E2D2D" stroke-width="3.5" fill="white" fill-opacity="0.5"/>
  <!-- Browser top bar -->
  <rect x="70" y="40" width="260" height="30" rx="12" fill="#2E2D2D" fill-opacity="0.06"/>
  <line x1="70" y1="70" x2="330" y2="70" stroke="#2E2D2D" stroke-width="1.5" opacity="0.2"/>
  <!-- Browser dots -->
  <circle cx="88" cy="55" r="4" fill="#C026D3" fill-opacity="0.3"/>
  <circle cx="100" cy="55" r="4" fill="#A855F7" fill-opacity="0.3"/>
  <circle cx="112" cy="55" r="4" fill="#7C3AED" fill-opacity="0.3"/>
  <!-- Search bar -->
  <rect x="130" y="48" width="180" height="16" rx="8" stroke="#2E2D2D" stroke-width="1.5" fill="white" fill-opacity="0.4"/>
  <line x1="140" y1="56" x2="190" y2="56" stroke="#2E2D2D" stroke-width="1.5" stroke-linecap="round" opacity="0.3"/>
  <!-- Search result #1 (HIGHLIGHTED - top result) -->
  <rect x="88" y="82" width="224" height="64" rx="6" fill="#7C3AED" fill-opacity="0.16" stroke="#7C3AED" stroke-width="2.5"/>
  <!-- #1 ranking indicator -->
  <circle cx="100" cy="94" r="9" fill="#7C3AED" fill-opacity="0.25" stroke="#2E2D2D" stroke-width="1.5"/>
  <text x="96" y="98" font-family="sans-serif" font-size="11" fill="#2E2D2D" font-weight="bold">1</text>
  <!-- Result 1 title -->
  <line x1="116" y1="92" x2="260" y2="92" stroke="#7C3AED" stroke-width="2.5" stroke-linecap="round" opacity="0.6"/>
  <!-- Result 1 URL -->
  <line x1="116" y1="104" x2="210" y2="104" stroke="#2E2D2D" stroke-width="1.5" stroke-linecap="round" opacity="0.3"/>
  <!-- Result 1 description -->
  <line x1="116" y1="118" x2="298" y2="118" stroke="#2E2D2D" stroke-width="2" stroke-linecap="round" opacity="0.35"/>
  <line x1="116" y1="130" x2="270" y2="130" stroke="#2E2D2D" stroke-width="1.5" stroke-linecap="round" opacity="0.25"/>
  <!-- Star ratings for result 1 -->
  <polygon points="98,118 100,113 102,118 107,118 103,122 105,127 100,124 95,127 97,122 93,118" fill="#7C3AED" opacity="0.4" transform="scale(0.7) translate(125, 43)"/>
  <polygon points="98,118 100,113 102,118 107,118 103,122 105,127 100,124 95,127 97,122 93,118" fill="#7C3AED" opacity="0.4" transform="scale(0.7) translate(138, 43)"/>
  <polygon points="98,118 100,113 102,118 107,118 103,122 105,127 100,124 95,127 97,122 93,118" fill="#7C3AED" opacity="0.4" transform="scale(0.7) translate(151, 43)"/>
  <polygon points="98,118 100,113 102,118 107,118 103,122 105,127 100,124 95,127 97,122 93,118" fill="#7C3AED" opacity="0.4" transform="scale(0.7) translate(164, 43)"/>
  <polygon points="98,118 100,113 102,118 107,118 103,122 105,127 100,124 95,127 97,122 93,118" fill="#7C3AED" opacity="0.2" transform="scale(0.7) translate(177, 43)"/>
  <!-- Search result #2 -->
  <rect x="88" y="158" width="224" height="50" rx="5" fill="#2E2D2D" fill-opacity="0.04" stroke="#2E2D2D" stroke-width="1.5" opacity="0.4"/>
  <line x1="100" y1="174" x2="240" y2="174" stroke="#2E2D2D" stroke-width="2" stroke-linecap="round" opacity="0.25"/>
  <line x1="100" y1="186" x2="280" y2="186" stroke="#2E2D2D" stroke-width="1.5" stroke-linecap="round" opacity="0.18"/>
  <line x1="100" y1="196" x2="260" y2="196" stroke="#2E2D2D" stroke-width="1.5" stroke-linecap="round" opacity="0.15"/>
  <!-- Search result #3 -->
  <rect x="88" y="218" width="224" height="50" rx="5" fill="#2E2D2D" fill-opacity="0.03" stroke="#2E2D2D" stroke-width="1.5" opacity="0.35"/>
  <line x1="100" y1="234" x2="230" y2="234" stroke="#2E2D2D" stroke-width="2" stroke-linecap="round" opacity="0.2"/>
  <line x1="100" y1="246" x2="290" y2="246" stroke="#2E2D2D" stroke-width="1.5" stroke-linecap="round" opacity="0.15"/>
  <line x1="100" y1="256" x2="250" y2="256" stroke="#2E2D2D" stroke-width="1.5" stroke-linecap="round" opacity="0.12"/>
  <!-- Search result #4 (faded) -->
  <rect x="88" y="278" width="224" height="45" rx="5" fill="#2E2D2D" fill-opacity="0.02" stroke="#2E2D2D" stroke-width="1.5" opacity="0.25"/>
  <line x1="100" y1="294" x2="250" y2="294" stroke="#2E2D2D" stroke-width="2" stroke-linecap="round" opacity="0.15"/>
  <line x1="100" y1="306" x2="270" y2="306" stroke="#2E2D2D" stroke-width="1.5" stroke-linecap="round" opacity="0.1"/>
  <!-- Magnifying glass over result 1 -->
  <circle cx="340" cy="105" r="35" fill="#000" opacity="0.06" transform="translate(3,3)"/>
  <circle cx="340" cy="105" r="35" stroke="#2E2D2D" stroke-width="3" fill="#A855F7" fill-opacity="0.08"/>
  <!-- Magnifying glass handle -->
  <line x1="364" y1="130" x2="385" y2="155" stroke="#2E2D2D" stroke-width="8" stroke-linecap="round"/>
  <line x1="365" y1="131" x2="383" y2="153" stroke="#A855F7" stroke-width="3" stroke-linecap="round" opacity="0.15"/>
  <!-- Lens shine -->
  <path d="M325 85 Q330 78 340 76" stroke="#2E2D2D" stroke-width="2" fill="none" opacity="0.25" stroke-linecap="round"/>
  <!-- Ranking arrows (right side, floating) -->
  <!-- Up arrow -->
  <polygon points="355,210 365,225 345,225" fill="#7C3AED" opacity="0.35" stroke="#2E2D2D" stroke-width="1.5"/>
  <line x1="355" y1="225" x2="355" y2="240" stroke="#2E2D2D" stroke-width="2" stroke-linecap="round" opacity="0.3"/>
  <!-- Down arrow (smaller, faded) -->
  <polygon points="355,260 365,250 345,250" fill="#C026D3" opacity="0.2" stroke="#2E2D2D" stroke-width="1.5"/>
  <!-- Link chain icon (left side) -->
  <ellipse cx="38" cy="180" rx="14" ry="8" stroke="#2E2D2D" stroke-width="2" fill="none" opacity="0.3" transform="rotate(-45, 38, 180)"/>
  <ellipse cx="52" cy="194" rx="14" ry="8" stroke="#2E2D2D" stroke-width="2" fill="#A855F7" fill-opacity="0.12" transform="rotate(-45, 52, 194)"/>
  <!-- Decorative dots -->
  <circle cx="40" cy="100" r="3" fill="#7C3AED" opacity="0.3"/>
  <circle cx="30" cy="280" r="2.5" fill="#A855F7" opacity="0.25"/>
  <circle cx="370" cy="300" r="2" fill="#C026D3" opacity="0.25"/>
  <circle cx="50" cy="350" r="3" fill="#7C3AED" opacity="0.2"/>
  <!-- Decorative small lines -->
  <line x1="30" y1="130" x2="50" y2="130" stroke="#2E2D2D" stroke-width="1.5" stroke-linecap="round" opacity="0.15"/>
  <line x1="355" y1="340" x2="375" y2="340" stroke="#2E2D2D" stroke-width="1.5" stroke-linecap="round" opacity="0.12"/>
  <line x1="35" y1="55" x2="52" y2="55" stroke="#2E2D2D" stroke-width="1.5" stroke-linecap="round" opacity="0.12"/>
</svg>
