<svg xmlns="http://www.w3.org/2000/svg" viewBox="0 0 400 400" fill="none">
  <!-- Bag body shadow -->
  <path d="M98 163 L88 338 L318 338 L308 163 Z" fill="#000" opacity="0.08" transform="translate(4,4)"/>
  <!-- Bag body -->
  <path d="M95 160 L85 335 L315 335 L305 160 Z" stroke="#2E2D2D" stroke-width="3.5" fill="#7C3AED" fill-opacity="0.12"/>
  <!-- Bag top fold -->
  <path d="M95 160 L90 175 L310 175 L305 160 Z" stroke="#2E2D2D" stroke-width="2.5" fill="#A855F7" fill-opacity="0.10"/>
  <!-- Handle left -->
  <path d="M145 160 Q145 100 170 85 Q185 78 200 85 Q215 78 230 85 Q255 100 255 160" stroke="#2E2D2D" stroke-width="3.5" fill="none"/>
  <!-- Handle left shadow -->
  <path d="M148 163 Q148 103 173 88 Q188 81 203 88 Q218 81 233 88 Q258 103 258 163" stroke="#000" stroke-width="3.5" fill="none" opacity="0.06"/>
  <!-- Item peeking out 1 - box top -->
  <rect x="120" y="135" width="55" height="35" rx="4" fill="#000" opacity="0.08" transform="translate(3,3)"/>
  <rect x="117" y="132" width="55" height="35" rx="4" stroke="#2E2D2D" stroke-width="2.5" fill="#C026D3" fill-opacity="0.16"/>
  <line x1="127" y1="146" x2="162" y2="146" stroke="#2E2D2D" stroke-width="2" stroke-linecap="round" opacity="0.3"/>
  <line x1="127" y1="155" x2="152" y2="155" stroke="#2E2D2D" stroke-width="1.5" stroke-linecap="round" opacity="0.2"/>
  <!-- Item peeking out 2 - cylinder/bottle -->
  <rect x="225" y="125" width="30" height="45" rx="10" fill="#000" opacity="0.08" transform="translate(3,3)"/>
  <rect x="222" y="122" width="30" height="45" rx="10" stroke="#2E2D2D" stroke-width="2.5" fill="#A855F7" fill-opacity="0.14"/>
  <rect x="230" y="115" width="14" height="10" rx="3" stroke="#2E2D2D" stroke-width="2" fill="none"/>
  <!-- Bag crease lines -->
  <line x1="155" y1="200" x2="155" y2="310" stroke="#2E2D2D" stroke-width="1.5" opacity="0.12"/>
  <line x1="245" y1="200" x2="245" y2="310" stroke="#2E2D2D" stroke-width="1.5" opacity="0.12"/>
  <!-- Barcode on bag -->
  <rect x="165" y="255" width="70" height="45" rx="3" stroke="#2E2D2D" stroke-width="2" fill="none" opacity="0.25"/>
  <line x1="172" y1="262" x2="172" y2="288" stroke="#2E2D2D" stroke-width="2" opacity="0.3"/>
  <line x1="178" y1="262" x2="178" y2="288" stroke="#2E2D2D" stroke-width="3" opacity="0.25"/>
  <line x1="184" y1="262" x2="184" y2="288" stroke="#2E2D2D" stroke-width="1.5" opacity="0.3"/>
  <line x1="189" y1="262" x2="189" y2="288" stroke="#2E2D2D" stroke-width="2.5" opacity="0.25"/>
  <line x1="195" y1="262" x2="195" y2="288" stroke="#2E2D2D" stroke-width="1.5" opacity="0.3"/>
  <line x1="200" y1="262" x2="200" y2="288" stroke="#2E2D2D" stroke-width="3" opacity="0.25"/>
  <line x1="206" y1="262" x2="206" y2="288" stroke="#2E2D2D" stroke-width="2" opacity="0.3"/>
  <line x1="212" y1="262" x2="212" y2="288" stroke="#2E2D2D" stroke-width="1.5" opacity="0.25"/>
  <line x1="218" y1="262" x2="218" y2="288" stroke="#2E2D2D" stroke-width="2.5" opacity="0.3"/>
  <line x1="224" y1="262" x2="224" y2="288" stroke="#2E2D2D" stroke-width="1.5" opacity="0.25"/>
  <!-- Receipt paper coming out right side -->
  <path d="M310 200 L355 195 L355 280 Q352 285 348 280 Q345 275 342 280 Q339 285 335 280 L335 205 Z" fill="#000" opacity="0.08" transform="translate(3,3)"/>
  <path d="M307 197 L352 192 L352 277 Q349 282 345 277 Q342 272 339 277 Q336 282 332 277 L332 202 Z" stroke="#2E2D2D" stroke-width="2" fill="#C026D3" fill-opacity="0.10"/>
  <line x1="337" y1="210" x2="348" y2="210" stroke="#2E2D2D" stroke-width="1.5" stroke-linecap="round" opacity="0.3"/>
  <line x1="337" y1="220" x2="345" y2="220" stroke="#2E2D2D" stroke-width="1.5" stroke-linecap="round" opacity="0.25"/>
  <line x1="337" y1="230" x2="348" y2="230" stroke="#2E2D2D" stroke-width="1.5" stroke-linecap="round" opacity="0.2"/>
  <line x1="337" y1="240" x2="342" y2="240" stroke="#2E2D2D" stroke-width="1.5" stroke-linecap="round" opacity="0.3"/>
  <line x1="337" y1="255" x2="348" y2="255" stroke="#2E2D2D" stroke-width="2" stroke-linecap="round" opacity="0.35"/>
  <!-- Percentage badge top-left -->
  <circle cx="55" cy="85" r="22" fill="#000" opacity="0.08" transform="translate(3,3)"/>
  <circle cx="52" cy="82" r="22" stroke="#2E2D2D" stroke-width="2.5" fill="#7C3AED" fill-opacity="0.16"/>
  <text x="52" y="88" text-anchor="middle" font-family="Arial, sans-serif" font-size="16" font-weight="bold" fill="#2E2D2D" opacity="0.6">%</text>
  <!-- Small price tag floating right -->
  <path d="M340 100 L370 100 L375 110 L370 120 L340 120 Z" fill="#000" opacity="0.08" transform="translate(3,3)"/>
  <path d="M337 97 L367 97 L372 107 L367 117 L337 117 Z" stroke="#2E2D2D" stroke-width="2" fill="#A855F7" fill-opacity="0.14"/>
  <circle cx="344" cy="107" r="2.5" fill="#2E2D2D" opacity="0.35"/>
  <!-- Decorative dots -->
  <circle cx="48" cy="200" r="3" fill="#7C3AED" opacity="0.3"/>
  <circle cx="35" cy="270" r="2" fill="#C026D3" opacity="0.25"/>
  <circle cx="365" cy="320" r="2.5" fill="#A855F7" opacity="0.28"/>
  <circle cx="55" cy="345" r="2" fill="#7C3AED" opacity="0.2"/>
  <!-- Decorative small lines -->
  <line x1="340" y1="145" x2="360" y2="145" stroke="#2E2D2D" stroke-width="1.5" stroke-linecap="round" opacity="0.15"/>
  <line x1="345" y1="153" x2="365" y2="153" stroke="#2E2D2D" stroke-width="1.5" stroke-linecap="round" opacity="0.12"/>
  <line x1="30" y1="320" x2="48" y2="320" stroke="#2E2D2D" stroke-width="1.5" stroke-linecap="round" opacity="0.15"/>
</svg>