<svg width="258" height="45" viewBox="0 0 258 45" fill="none" xmlns="http://www.w3.org/2000/svg">
  <defs>
    <mask id="m">
      <!-- Outer shape: visible (gray) -->
      <path d="M147.909 0H0V45H228.034V30H243V14.9464L258 15V0H147.909Z" fill="white"/>
      <!-- Letter shapes: transparent (cut out) -->
      <path d="M30 15V30H27.0291L27 24H18.0474V30H15V15H30Z" fill="black"/>
      <path d="M41 30H56V27H44V15H41V30Z" fill="black"/>
      <path d="M82 30V27H70V18.0319H82V15H67V30H82Z" fill="black"/>
      <path d="M109 30H93V15H109V30Z" fill="black"/>
      <path d="M135 30H132V18L123 18.0319V30H120V15H135V30Z" fill="black"/>
      <path d="M162 30H146V15H162V30Z" fill="black"/>
      <path d="M173.02 30H188V21H176V18.0319H188V15H173.02V24H185V27H173.02V30Z" fill="black"/>
      <path d="M199 15V18.0319H205V30H208V18H214V15H199Z" fill="black"/>
      <!-- Inner letter shapes: visible again (O centers, A crossbar) -->
      <path d="M96 27V18H106V27H96Z" fill="white"/>
      <path d="M149 27V18H159V27H149Z" fill="white"/>
      <path d="M18 18.0319H27V21H18V18.0319Z" fill="white"/>
    </mask>
  </defs>
  <rect width="258" height="45" fill="#D1D5DB" mask="url(#m)"/>
</svg>
