<svg xmlns="http://www.w3.org/2000/svg" viewBox="0 0 64 64" fill="none">
  <rect width="64" height="64" rx="16" fill="#FFFFFF"/>
  <circle cx="32" cy="32" r="19" stroke="#E5E7EB" stroke-width="2"/>
  <path d="M32 13a19 19 0 0 1 13.4 5.6l-6.2 6.2A10.2 10.2 0 0 0 32 22.1V13Z" fill="#4285F4"/>
  <path d="M50.9 32a19 19 0 0 1-5.6 13.4l-6.2-6.2a10.2 10.2 0 0 0 3-7.2h8.8Z" fill="#34A853"/>
  <path d="M32 50.9a19 19 0 0 1-13.4-5.6l6.2-6.2a10.2 10.2 0 0 0 7.2 3V50.9Z" fill="#FBBC05"/>
  <path d="M13.1 32a19 19 0 0 1 5.6-13.4l6.2 6.2a10.2 10.2 0 0 0-3 7.2h-8.8Z" fill="#EA4335"/>
  <path d="m32 23.7 2.3 4.8 5.3.8-3.8 3.8.9 5.3-4.7-2.5-4.7 2.5.9-5.3-3.8-3.8 5.3-.8L32 23.7Z" fill="#FFFFFF"/>
</svg>
