<svg xmlns="http://www.w3.org/2000/svg" viewBox="0 0 400 400" fill="none">
  <ellipse cx="203" cy="293" rx="112" ry="28" fill="#000" opacity="0.08"/>
  <path d="M90 288 Q200 246 310 288 L310 320 Q200 360 90 320 Z" stroke="#2E2D2D" stroke-width="3.5" fill="#7C3AED" fill-opacity="0.12"/>
  <path d="M120 299 Q200 268 280 299" stroke="#2E2D2D" stroke-width="2" fill="none" opacity="0.18"/>
  <path d="M112 314 Q200 282 288 314" stroke="#2E2D2D" stroke-width="2" fill="none" opacity="0.14"/>
  <path d="M200 278 L200 160" stroke="#2E2D2D" stroke-width="4" stroke-linecap="round"/>
  <path d="M200 198 C200 150 240 120 292 112 C281 166 250 196 200 198 Z" stroke="#2E2D2D" stroke-width="3.5" fill="#A855F7" fill-opacity="0.15" stroke-linejoin="round"/>
  <path d="M200 236 C200 188 160 158 108 150 C119 204 150 234 200 236 Z" stroke="#2E2D2D" stroke-width="3.5" fill="#C026D3" fill-opacity="0.14" stroke-linejoin="round"/>
  <path d="M200 220 C212 196 236 179 264 172" stroke="#2E2D2D" stroke-width="2" fill="none" opacity="0.18"/>
  <path d="M200 252 C186 226 162 209 136 202" stroke="#2E2D2D" stroke-width="2" fill="none" opacity="0.18"/>
  <circle cx="302" cy="92" r="22" stroke="#2E2D2D" stroke-width="2.5" fill="#7C3AED" fill-opacity="0.12"/>
  <line x1="302" y1="58" x2="302" y2="70" stroke="#2E2D2D" stroke-width="2" stroke-linecap="round" opacity="0.24"/>
  <line x1="302" y1="114" x2="302" y2="126" stroke="#2E2D2D" stroke-width="2" stroke-linecap="round" opacity="0.24"/>
  <line x1="268" y1="92" x2="280" y2="92" stroke="#2E2D2D" stroke-width="2" stroke-linecap="round" opacity="0.24"/>
  <line x1="324" y1="92" x2="336" y2="92" stroke="#2E2D2D" stroke-width="2" stroke-linecap="round" opacity="0.24"/>
  <path d="M64 126 Q82 110 104 122 Q92 138 68 134" stroke="#2E2D2D" stroke-width="2.5" fill="#A855F7" fill-opacity="0.1" stroke-linejoin="round"/>
  <path d="M294 258 L330 258 L344 278 L344 316 L294 316 Z" stroke="#2E2D2D" stroke-width="2.5" fill="#C026D3" fill-opacity="0.1" stroke-linejoin="round"/>
  <path d="M304 316 L304 286 H334 V316" stroke="#2E2D2D" stroke-width="2" fill="white" fill-opacity="0.2"/>
  <path d="M312 270 L319 262 L326 270" stroke="#2E2D2D" stroke-width="2" fill="none" stroke-linecap="round" stroke-linejoin="round" opacity="0.24"/>
  <path d="M86 246 Q108 232 128 242" stroke="#7C3AED" stroke-width="2" fill="none" opacity="0.22"/>
  <path d="M272 230 Q292 216 316 226" stroke="#A855F7" stroke-width="2" fill="none" opacity="0.2"/>
  <circle cx="60" cy="122" r="3" fill="#7C3AED" opacity="0.24"/>
  <circle cx="344" cy="146" r="2.5" fill="#A855F7" opacity="0.2"/>
  <circle cx="72" cy="336" r="2.5" fill="#C026D3" opacity="0.2"/>
  <line x1="330" y1="330" x2="352" y2="330" stroke="#2E2D2D" stroke-width="1.5" stroke-linecap="round" opacity="0.12"/>
</svg>
