<svg xmlns="http://www.w3.org/2000/svg" viewBox="0 0 400 400" fill="none">
  <!-- Dashboard screen shadow -->
  <rect x="58" y="58" width="264" height="184" rx="12" fill="#000" opacity="0.08"/>
  <!-- Dashboard screen -->
  <rect x="55" y="55" width="264" height="184" rx="12" stroke="#2E2D2D" stroke-width="3.5" fill="#7C3AED" fill-opacity="0.08"/>
  <!-- Top bar -->
  <rect x="55" y="55" width="264" height="28" rx="12" fill="#2E2D2D" opacity="0.06"/>
  <circle cx="74" cy="69" r="4" fill="#7C3AED" opacity="0.35"/>
  <circle cx="88" cy="69" r="4" fill="#A855F7" opacity="0.28"/>
  <circle cx="102" cy="69" r="4" fill="#C026D3" opacity="0.24"/>

  <!-- Left chart block -->
  <rect x="78" y="102" width="138" height="118" rx="8" stroke="#2E2D2D" stroke-width="2" fill="white" fill-opacity="0.3"/>
  <rect x="95" y="172" width="18" height="30" rx="3" fill="#7C3AED" fill-opacity="0.22" stroke="#2E2D2D" stroke-width="1.8"/>
  <rect x="123" y="152" width="18" height="50" rx="3" fill="#A855F7" fill-opacity="0.2" stroke="#2E2D2D" stroke-width="1.8"/>
  <rect x="151" y="128" width="18" height="74" rx="3" fill="#7C3AED" fill-opacity="0.22" stroke="#2E2D2D" stroke-width="1.8"/>
  <rect x="179" y="144" width="18" height="58" rx="3" fill="#C026D3" fill-opacity="0.18" stroke="#2E2D2D" stroke-width="1.8"/>
  <polyline points="104,164 132,146 160,120 188,136" stroke="#2E2D2D" stroke-width="2.5" fill="none" stroke-linecap="round" stroke-linejoin="round"/>
  <circle cx="104" cy="164" r="4" fill="#7C3AED" fill-opacity="0.55" stroke="#2E2D2D" stroke-width="1.5"/>
  <circle cx="132" cy="146" r="4" fill="#A855F7" fill-opacity="0.55" stroke="#2E2D2D" stroke-width="1.5"/>
  <circle cx="160" cy="120" r="4" fill="#7C3AED" fill-opacity="0.55" stroke="#2E2D2D" stroke-width="1.5"/>
  <circle cx="188" cy="136" r="4" fill="#C026D3" fill-opacity="0.55" stroke="#2E2D2D" stroke-width="1.5"/>

  <!-- Right KPI panel -->
  <rect x="232" y="102" width="66" height="48" rx="6" stroke="#2E2D2D" stroke-width="2" fill="#A855F7" fill-opacity="0.1"/>
  <line x1="244" y1="118" x2="286" y2="118" stroke="#2E2D2D" stroke-width="2" stroke-linecap="round" opacity="0.24"/>
  <line x1="244" y1="130" x2="278" y2="130" stroke="#2E2D2D" stroke-width="1.8" stroke-linecap="round" opacity="0.18"/>

  <!-- Right trend card -->
  <rect x="232" y="162" width="66" height="58" rx="6" stroke="#2E2D2D" stroke-width="2" fill="#C026D3" fill-opacity="0.1"/>
  <polyline points="244,206 256,194 267,198 279,182 288,176" stroke="#2E2D2D" stroke-width="2" fill="none" stroke-linecap="round" stroke-linejoin="round"/>
  <path d="M244 206 L256 194 L267 198 L279 182 L288 176 L288 210 L244 210 Z" fill="#7C3AED" fill-opacity="0.1"/>

  <!-- Screen stand -->
  <path d="M170 239 L160 258 L214 258 L204 239" stroke="#2E2D2D" stroke-width="2.5" fill="#2E2D2D" fill-opacity="0.08"/>
  <rect x="156" y="258" width="62" height="7" rx="3.5" fill="#2E2D2D" opacity="0.15"/>

  <!-- Analyst figure -->
  <circle cx="320" cy="297" r="14" stroke="#2E2D2D" stroke-width="2.5" fill="#A855F7" fill-opacity="0.16"/>
  <path d="M296 378 Q296 342 306 330 Q313 322 320 320 Q327 322 334 330 Q344 342 344 378" stroke="#2E2D2D" stroke-width="2.5" fill="#A855F7" fill-opacity="0.14" stroke-linejoin="round"/>
  <path d="M306 332 Q286 310 268 288 Q262 282 258 274" stroke="#2E2D2D" stroke-width="3" fill="none" stroke-linecap="round" opacity="0.4"/>
  <path d="M334 334 Q344 350 348 362" stroke="#2E2D2D" stroke-width="2.5" fill="none" stroke-linecap="round" opacity="0.32"/>
  <path d="M258 274 L252 268 M258 274 L262 268" stroke="#2E2D2D" stroke-width="2.2" fill="none" stroke-linecap="round" opacity="0.32"/>

  <!-- Accent pie chart -->
  <circle cx="92" cy="312" r="22" stroke="#2E2D2D" stroke-width="2" fill="#C026D3" fill-opacity="0.1"/>
  <path d="M92 312 L92 290 A22 22 0 0 1 111 302 Z" fill="#7C3AED" fill-opacity="0.18" stroke="#2E2D2D" stroke-width="1.5"/>
  <path d="M92 312 L111 302 A22 22 0 0 1 99 332 Z" fill="#A855F7" fill-opacity="0.15" stroke="#2E2D2D" stroke-width="1.5"/>

  <!-- Decorative dots -->
  <circle cx="40" cy="114" r="3" fill="#7C3AED" opacity="0.24"/>
  <circle cx="360" cy="86" r="2.5" fill="#A855F7" opacity="0.22"/>
  <circle cx="44" cy="340" r="2.5" fill="#C026D3" opacity="0.2"/>
  <circle cx="366" cy="266" r="2" fill="#7C3AED" opacity="0.18"/>
  <!-- Decorative lines -->
  <line x1="26" y1="196" x2="42" y2="196" stroke="#2E2D2D" stroke-width="1.5" stroke-linecap="round" opacity="0.12"/>
  <line x1="340" y1="356" x2="362" y2="356" stroke="#2E2D2D" stroke-width="1.5" stroke-linecap="round" opacity="0.12"/>
</svg>
