<svg xmlns="http://www.w3.org/2000/svg" viewBox="0 0 400 400" fill="none">
  <path d="M83 236 L112 178 Q120 156 145 156 H251 Q278 156 289 180 L318 236" fill="#000" opacity="0.08" transform="translate(3,3)"/>
  <path d="M80 233 L109 175 Q117 153 142 153 H248 Q275 153 286 177 L315 233 V270 H80 Z" stroke="#2E2D2D" stroke-width="3.5" fill="#7C3AED" fill-opacity="0.12" stroke-linejoin="round"/>
  <path d="M120 185 H281" stroke="#2E2D2D" stroke-width="2" opacity="0.18"/>
  <path d="M140 153 L174 118 H232 L268 153" stroke="#2E2D2D" stroke-width="3" fill="#A855F7" fill-opacity="0.12" stroke-linejoin="round"/>
  <path d="M148 160 L177 128 H228 L258 160 Z" stroke="#2E2D2D" stroke-width="2" fill="white" fill-opacity="0.34" stroke-linejoin="round"/>
  <circle cx="121" cy="270" r="24" stroke="#2E2D2D" stroke-width="3" fill="#A855F7" fill-opacity="0.14"/>
  <circle cx="121" cy="270" r="10" stroke="#2E2D2D" stroke-width="2" fill="white" fill-opacity="0.3"/>
  <circle cx="275" cy="270" r="24" stroke="#2E2D2D" stroke-width="3" fill="#C026D3" fill-opacity="0.12"/>
  <circle cx="275" cy="270" r="10" stroke="#2E2D2D" stroke-width="2" fill="white" fill-opacity="0.3"/>
  <circle cx="106" cy="214" r="6" fill="#7C3AED" opacity="0.34"/>
  <circle cx="290" cy="214" r="6" fill="#7C3AED" opacity="0.34"/>
  <line x1="92" y1="312" x2="304" y2="312" stroke="#2E2D2D" stroke-width="3" stroke-linecap="round" opacity="0.18"/>
  <line x1="110" y1="326" x2="286" y2="326" stroke="#2E2D2D" stroke-width="2" stroke-linecap="round" opacity="0.12"/>
  <path d="M306 122 Q330 144 338 174" stroke="#7C3AED" stroke-width="2" stroke-dasharray="5 4" fill="none" opacity="0.35"/>
  <circle cx="334" cy="180" r="12" stroke="#2E2D2D" stroke-width="2" fill="#C026D3" fill-opacity="0.12"/>
  <circle cx="334" cy="180" r="3" fill="#2E2D2D" opacity="0.26"/>
  <path d="M54 112 Q84 92 122 104" stroke="#A855F7" stroke-width="2" fill="none" opacity="0.22"/>
  <circle cx="72" cy="108" r="18" stroke="#2E2D2D" stroke-width="2.5" fill="#7C3AED" fill-opacity="0.1"/>
  <path d="M62 108 H82" stroke="#2E2D2D" stroke-width="2" stroke-linecap="round" opacity="0.22"/>
  <path d="M72 98 V118" stroke="#2E2D2D" stroke-width="2" stroke-linecap="round" opacity="0.22"/>
  <rect x="286" y="286" width="62" height="34" rx="6" stroke="#2E2D2D" stroke-width="2" fill="#C026D3" fill-opacity="0.08"/>
  <line x1="298" y1="298" x2="336" y2="298" stroke="#2E2D2D" stroke-width="1.8" stroke-linecap="round" opacity="0.2"/>
  <line x1="298" y1="308" x2="328" y2="308" stroke="#2E2D2D" stroke-width="1.8" stroke-linecap="round" opacity="0.16"/>
  <circle cx="52" cy="170" r="3" fill="#7C3AED" opacity="0.24"/>
  <circle cx="348" cy="96" r="2.5" fill="#A855F7" opacity="0.2"/>
  <line x1="44" y1="286" x2="60" y2="286" stroke="#2E2D2D" stroke-width="1.5" stroke-linecap="round" opacity="0.12"/>
</svg>
