<svg xmlns="http://www.w3.org/2000/svg" viewBox="0 0 400 400" fill="none">
  <!-- Camera shadow -->
  <path d="M73 151 H125 L145 122 H231 L251 151 H309 Q325 151 325 167 V283 Q325 299 309 299 H73 Q57 299 57 283 V167 Q57 151 73 151 Z" fill="#000" opacity="0.08" transform="translate(3,3)"/>
  <!-- Camera body -->
  <path d="M70 148 H122 L142 119 H228 L248 148 H306 Q322 148 322 164 V280 Q322 296 306 296 H70 Q54 296 54 280 V164 Q54 148 70 148 Z" stroke="#2E2D2D" stroke-width="3.5" fill="#7C3AED" fill-opacity="0.12" stroke-linejoin="round"/>
  <!-- Top controls -->
  <rect x="78" y="132" width="34" height="16" rx="4" stroke="#2E2D2D" stroke-width="2" fill="#A855F7" fill-opacity="0.12"/>
  <circle cx="278" cy="145" r="8" stroke="#2E2D2D" stroke-width="2" fill="#C026D3" fill-opacity="0.12"/>
  <line x1="260" y1="145" x2="270" y2="145" stroke="#2E2D2D" stroke-width="2" stroke-linecap="round" opacity="0.18"/>
  <!-- Lens -->
  <circle cx="186" cy="218" r="70" stroke="#2E2D2D" stroke-width="3.5" fill="white" fill-opacity="0.34"/>
  <circle cx="186" cy="218" r="48" stroke="#2E2D2D" stroke-width="3" fill="#A855F7" fill-opacity="0.14"/>
  <circle cx="186" cy="218" r="24" stroke="#2E2D2D" stroke-width="2.5" fill="#7C3AED" fill-opacity="0.18"/>
  <circle cx="175" cy="206" r="8" fill="white" opacity="0.45"/>
  <!-- Focus marks -->
  <path d="M108 196 V180 H124" stroke="#2E2D2D" stroke-width="2" fill="none" opacity="0.18" stroke-linecap="round"/>
  <path d="M248 180 H264 V196" stroke="#2E2D2D" stroke-width="2" fill="none" opacity="0.18" stroke-linecap="round"/>
  <path d="M124 256 H108 V240" stroke="#2E2D2D" stroke-width="2" fill="none" opacity="0.18" stroke-linecap="round"/>
  <path d="M264 240 V256 H248" stroke="#2E2D2D" stroke-width="2" fill="none" opacity="0.18" stroke-linecap="round"/>
  <!-- Small indicator -->
  <circle cx="286" cy="184" r="6" fill="#7C3AED" opacity="0.32"/>

  <!-- Floating photo card -->
  <rect x="286" y="78" width="74" height="58" rx="8" fill="#000" opacity="0.08" transform="rotate(6 323 107) translate(3,3)"/>
  <rect x="283" y="75" width="74" height="58" rx="8" stroke="#2E2D2D" stroke-width="2" fill="#C026D3" fill-opacity="0.1" transform="rotate(6 320 104)"/>
  <circle cx="338" cy="92" r="7" fill="#7C3AED" fill-opacity="0.25" stroke="#2E2D2D" stroke-width="1.5"/>
  <path d="M294 120 L310 103 L324 116 L339 98 L353 120 Z" stroke="#2E2D2D" stroke-width="1.5" fill="#A855F7" fill-opacity="0.08" stroke-linejoin="round"/>

  <!-- Film strip -->
  <rect x="52" y="322" width="86" height="28" rx="6" stroke="#2E2D2D" stroke-width="2" fill="#A855F7" fill-opacity="0.08"/>
  <line x1="66" y1="322" x2="66" y2="350" stroke="#2E2D2D" stroke-width="1.5" opacity="0.18"/>
  <line x1="94" y1="322" x2="94" y2="350" stroke="#2E2D2D" stroke-width="1.5" opacity="0.18"/>
  <line x1="122" y1="322" x2="122" y2="350" stroke="#2E2D2D" stroke-width="1.5" opacity="0.18"/>
  <line x1="54" y1="330" x2="136" y2="330" stroke="#2E2D2D" stroke-width="1.5" opacity="0.12"/>
  <line x1="54" y1="342" x2="136" y2="342" stroke="#2E2D2D" stroke-width="1.5" opacity="0.12"/>

  <!-- Flash star -->
  <path d="M324 206 L328 218 L340 218 L330 226 L334 238 L324 231 L314 238 L318 226 L308 218 L320 218 Z" fill="#7C3AED" opacity="0.22"/>

  <!-- Decorative accents -->
  <circle cx="38" cy="188" r="3" fill="#7C3AED" opacity="0.24"/>
  <circle cx="360" cy="166" r="2.5" fill="#A855F7" opacity="0.22"/>
  <circle cx="330" cy="318" r="2.5" fill="#C026D3" opacity="0.2"/>
  <line x1="312" y1="334" x2="338" y2="334" stroke="#2E2D2D" stroke-width="1.5" stroke-linecap="round" opacity="0.12"/>
</svg>
