<svg xmlns="http://www.w3.org/2000/svg" viewBox="0 0 400 400" fill="none">
  <!-- Chart board shadow -->
  <path d="M73 74 H257 V264 H73 Z" fill="#000" opacity="0.08" transform="translate(3,3)"/>
  <!-- Chart board -->
  <rect x="70" y="71" width="184" height="190" rx="10" stroke="#2E2D2D" stroke-width="3.5" fill="#7C3AED" fill-opacity="0.1"/>
  <rect x="88" y="92" width="148" height="152" rx="6" stroke="#2E2D2D" stroke-width="2" fill="white" fill-opacity="0.34"/>
  <!-- Axes -->
  <line x1="108" y1="222" x2="220" y2="222" stroke="#2E2D2D" stroke-width="2.5" stroke-linecap="round"/>
  <line x1="108" y1="118" x2="108" y2="222" stroke="#2E2D2D" stroke-width="2.5" stroke-linecap="round"/>
  <!-- Bars -->
  <rect x="124" y="190" width="18" height="32" rx="3" stroke="#2E2D2D" stroke-width="2" fill="#C026D3" fill-opacity="0.14"/>
  <rect x="152" y="166" width="18" height="56" rx="3" stroke="#2E2D2D" stroke-width="2" fill="#A855F7" fill-opacity="0.16"/>
  <rect x="180" y="138" width="18" height="84" rx="3" stroke="#2E2D2D" stroke-width="2" fill="#7C3AED" fill-opacity="0.18"/>
  <!-- Trend line -->
  <polyline points="124,186 161,160 189,130 219,108 282,84" stroke="#2E2D2D" stroke-width="3" fill="none" stroke-linecap="round" stroke-linejoin="round"/>
  <polyline points="124,186 161,160 189,130 219,108 282,84" stroke="#7C3AED" stroke-width="5" fill="none" stroke-linecap="round" stroke-linejoin="round" opacity="0.18"/>
  <circle cx="124" cy="186" r="4" fill="#C026D3" stroke="#2E2D2D" stroke-width="1.5"/>
  <circle cx="161" cy="160" r="4" fill="#A855F7" stroke="#2E2D2D" stroke-width="1.5"/>
  <circle cx="189" cy="130" r="4" fill="#7C3AED" stroke="#2E2D2D" stroke-width="1.5"/>
  <circle cx="219" cy="108" r="4" fill="#A855F7" stroke="#2E2D2D" stroke-width="1.5"/>
  <circle cx="282" cy="84" r="4" fill="#7C3AED" stroke="#2E2D2D" stroke-width="1.5"/>
  <path d="M282 84 L270 84 L278 72" stroke="#2E2D2D" stroke-width="3" fill="none" stroke-linecap="round" stroke-linejoin="round"/>

  <!-- KPI card -->
  <rect x="270" y="126" width="78" height="54" rx="8" fill="#000" opacity="0.08" transform="translate(3,3)"/>
  <rect x="267" y="123" width="78" height="54" rx="8" stroke="#2E2D2D" stroke-width="2" fill="#A855F7" fill-opacity="0.1"/>
  <line x1="282" y1="141" x2="330" y2="141" stroke="#2E2D2D" stroke-width="2" stroke-linecap="round" opacity="0.22"/>
  <line x1="282" y1="153" x2="318" y2="153" stroke="#2E2D2D" stroke-width="1.8" stroke-linecap="round" opacity="0.16"/>
  <line x1="282" y1="165" x2="308" y2="165" stroke="#2E2D2D" stroke-width="1.8" stroke-linecap="round" opacity="0.16"/>

  <!-- Bottom mini summary -->
  <rect x="238" y="274" width="108" height="44" rx="8" stroke="#2E2D2D" stroke-width="2.5" fill="#C026D3" fill-opacity="0.08"/>
  <circle cx="260" cy="296" r="8" stroke="#2E2D2D" stroke-width="2" fill="#7C3AED" fill-opacity="0.18"/>
  <line x1="276" y1="290" x2="328" y2="290" stroke="#2E2D2D" stroke-width="2" stroke-linecap="round" opacity="0.18"/>
  <line x1="276" y1="302" x2="316" y2="302" stroke="#2E2D2D" stroke-width="1.8" stroke-linecap="round" opacity="0.14"/>

  <!-- Decorative accents -->
  <circle cx="46" cy="118" r="3" fill="#7C3AED" opacity="0.24"/>
  <circle cx="348" cy="82" r="2.5" fill="#A855F7" opacity="0.2"/>
  <circle cx="92" cy="320" r="2.5" fill="#C026D3" opacity="0.2"/>
  <line x1="322" y1="344" x2="346" y2="344" stroke="#2E2D2D" stroke-width="1.5" stroke-linecap="round" opacity="0.12"/>
</svg>
