<svg xmlns="http://www.w3.org/2000/svg" viewBox="0 0 400 400" fill="none">
  <!-- Cloud shadow -->
  <path d="M118 212 Q72 212 60 176 Q48 140 78 120 Q86 88 122 76 Q158 60 188 88 Q236 78 262 114 Q304 116 318 150 Q344 156 350 188 Q356 220 320 232 H118 Z" fill="#000" opacity="0.08" transform="translate(3,3)"/>
  <!-- Cloud -->
  <path d="M115 209 Q69 209 57 173 Q45 137 75 117 Q83 85 119 73 Q155 57 185 85 Q233 75 259 111 Q301 113 315 147 Q341 153 347 185 Q353 217 317 229 H115 Z" stroke="#2E2D2D" stroke-width="3.5" fill="#7C3AED" fill-opacity="0.12" stroke-linejoin="round"/>
  <path d="M118 190 H290" stroke="#2E2D2D" stroke-width="2" opacity="0.14"/>
  <path d="M134 208 H272" stroke="#2E2D2D" stroke-width="2" opacity="0.1"/>

  <!-- Lightning bolt -->
  <path d="M194 214 L166 272 H196 L176 330 L236 254 H208 L228 214 Z" stroke="#2E2D2D" stroke-width="3.5" fill="#C026D3" fill-opacity="0.16" stroke-linejoin="round"/>

  <!-- Small cloud chip -->
  <rect x="292" y="258" width="58" height="42" rx="8" stroke="#2E2D2D" stroke-width="2" fill="#A855F7" fill-opacity="0.08"/>
  <path d="M308 284 Q300 284 298 278 Q296 272 302 268 Q304 260 312 258 Q320 254 326 260 Q336 258 340 266 Q348 266 350 274 Q352 282 344 286 H308 Z" stroke="#2E2D2D" stroke-width="1.8" fill="#7C3AED" fill-opacity="0.12"/>

  <!-- Download chip -->
  <rect x="54" y="262" width="66" height="48" rx="8" stroke="#2E2D2D" stroke-width="2" fill="#C026D3" fill-opacity="0.08"/>
  <path d="M87 274 V290" stroke="#2E2D2D" stroke-width="2.5" stroke-linecap="round"/>
  <path d="M79 282 L87 290 L95 282" stroke="#2E2D2D" stroke-width="2.5" fill="none" stroke-linecap="round" stroke-linejoin="round"/>
  <line x1="68" y1="296" x2="106" y2="296" stroke="#2E2D2D" stroke-width="2" stroke-linecap="round" opacity="0.18"/>

  <!-- Rain/data dots -->
  <circle cx="126" cy="252" r="4" fill="#7C3AED" opacity="0.28"/>
  <circle cx="154" cy="268" r="4" fill="#A855F7" opacity="0.24"/>
  <circle cx="240" cy="278" r="4" fill="#C026D3" opacity="0.24"/>

  <!-- Decorative accents -->
  <circle cx="42" cy="154" r="3" fill="#7C3AED" opacity="0.24"/>
  <circle cx="352" cy="136" r="2.5" fill="#A855F7" opacity="0.2"/>
  <circle cx="136" cy="344" r="2.5" fill="#C026D3" opacity="0.2"/>
  <line x1="318" y1="344" x2="342" y2="344" stroke="#2E2D2D" stroke-width="1.5" stroke-linecap="round" opacity="0.12"/>
</svg>
