<svg xmlns="http://www.w3.org/2000/svg" viewBox="0 0 400 400" fill="none">
  <!-- Main coin shadow -->
  <circle cx="163" cy="183" r="82" fill="#000" opacity="0.08"/>
  <!-- Main coin -->
  <circle cx="160" cy="180" r="82" stroke="#2E2D2D" stroke-width="3.5" fill="#7C3AED" fill-opacity="0.14"/>
  <circle cx="160" cy="180" r="58" stroke="#2E2D2D" stroke-width="2.5" fill="#A855F7" fill-opacity="0.14"/>
  <!-- Crypto symbol -->
  <path d="M160 128 V232" stroke="#2E2D2D" stroke-width="4" stroke-linecap="round"/>
  <path d="M136 144 Q160 128 184 144 Q174 164 136 164 Q160 164 184 182 Q160 198 136 214 Q160 232 184 216" stroke="#2E2D2D" stroke-width="3" fill="none" stroke-linecap="round" stroke-linejoin="round"/>

  <!-- Candlestick card -->
  <rect x="54" y="258" width="92" height="62" rx="8" fill="#000" opacity="0.08" transform="translate(3,3)"/>
  <rect x="51" y="255" width="92" height="62" rx="8" stroke="#2E2D2D" stroke-width="2" fill="#C026D3" fill-opacity="0.08"/>
  <line x1="68" y1="300" x2="126" y2="300" stroke="#2E2D2D" stroke-width="1.5" opacity="0.14"/>
  <line x1="80" y1="274" x2="80" y2="304" stroke="#2E2D2D" stroke-width="2"/>
  <rect x="74" y="282" width="12" height="12" rx="2" stroke="#2E2D2D" stroke-width="1.8" fill="#7C3AED" fill-opacity="0.18"/>
  <line x1="98" y1="268" x2="98" y2="304" stroke="#2E2D2D" stroke-width="2"/>
  <rect x="92" y="274" width="12" height="18" rx="2" stroke="#2E2D2D" stroke-width="1.8" fill="#A855F7" fill-opacity="0.18"/>
  <line x1="116" y1="280" x2="116" y2="304" stroke="#2E2D2D" stroke-width="2"/>
  <rect x="110" y="286" width="12" height="10" rx="2" stroke="#2E2D2D" stroke-width="1.8" fill="#C026D3" fill-opacity="0.16"/>

  <!-- Blockchain cluster -->
  <rect x="248" y="112" width="54" height="54" rx="8" stroke="#2E2D2D" stroke-width="2.5" fill="#A855F7" fill-opacity="0.12"/>
  <rect x="304" y="180" width="54" height="54" rx="8" stroke="#2E2D2D" stroke-width="2.5" fill="#C026D3" fill-opacity="0.1"/>
  <rect x="228" y="244" width="54" height="54" rx="8" stroke="#2E2D2D" stroke-width="2.5" fill="#7C3AED" fill-opacity="0.12"/>
  <line x1="276" y1="166" x2="314" y2="180" stroke="#2E2D2D" stroke-width="2.5" stroke-linecap="round"/>
  <line x1="304" y1="234" x2="274" y2="244" stroke="#2E2D2D" stroke-width="2.5" stroke-linecap="round"/>
  <line x1="248" y1="166" x2="214" y2="182" stroke="#2E2D2D" stroke-width="2.5" stroke-linecap="round"/>
  <circle cx="276" cy="166" r="6" stroke="#2E2D2D" stroke-width="2" fill="#7C3AED" fill-opacity="0.14"/>
  <circle cx="304" cy="234" r="6" stroke="#2E2D2D" stroke-width="2" fill="#A855F7" fill-opacity="0.14"/>
  <circle cx="214" cy="182" r="6" stroke="#2E2D2D" stroke-width="2" fill="#C026D3" fill-opacity="0.14"/>
  <circle cx="275" cy="139" r="11" stroke="#2E2D2D" stroke-width="2" fill="white" fill-opacity="0.24"/>
  <circle cx="331" cy="207" r="11" stroke="#2E2D2D" stroke-width="2" fill="white" fill-opacity="0.24"/>
  <circle cx="255" cy="271" r="11" stroke="#2E2D2D" stroke-width="2" fill="white" fill-opacity="0.24"/>

  <!-- Decorative accents -->
  <circle cx="46" cy="146" r="3" fill="#7C3AED" opacity="0.24"/>
  <circle cx="350" cy="270" r="2.5" fill="#A855F7" opacity="0.2"/>
  <circle cx="178" cy="338" r="2.5" fill="#C026D3" opacity="0.2"/>
  <line x1="304" y1="334" x2="330" y2="334" stroke="#2E2D2D" stroke-width="1.5" stroke-linecap="round" opacity="0.12"/>
</svg>
