<svg xmlns="http://www.w3.org/2000/svg" viewBox="0 0 400 400" fill="none">
  <rect x="93" y="103" width="198" height="184" rx="16" fill="#000" opacity="0.08" transform="translate(3,3)"/>
  <rect x="90" y="100" width="198" height="184" rx="16" stroke="#2E2D2D" stroke-width="3.5" fill="#7C3AED" fill-opacity="0.12"/>
  <rect x="288" y="158" width="20" height="68" rx="6" stroke="#2E2D2D" stroke-width="3" fill="#A855F7" fill-opacity="0.12"/>
  <rect x="110" y="122" width="158" height="140" rx="10" stroke="#2E2D2D" stroke-width="2.5" fill="white" fill-opacity="0.32"/>
  <path d="M196 132 L156 194 H194 L170 252 L232 178 H194 Z" stroke="#2E2D2D" stroke-width="3.5" fill="#C026D3" fill-opacity="0.16" stroke-linejoin="round"/>
  <line x1="122" y1="240" x2="156" y2="240" stroke="#2E2D2D" stroke-width="2" stroke-linecap="round" opacity="0.18"/>
  <line x1="228" y1="240" x2="256" y2="240" stroke="#2E2D2D" stroke-width="2" stroke-linecap="round" opacity="0.18"/>
  <path d="M64 286 Q98 248 132 286" stroke="#7C3AED" stroke-width="2.5" fill="none" opacity="0.3"/>
  <path d="M276 90 Q312 64 344 90" stroke="#A855F7" stroke-width="2.5" fill="none" opacity="0.28"/>
  <rect x="46" y="246" width="62" height="38" rx="6" stroke="#2E2D2D" stroke-width="2" fill="#A855F7" fill-opacity="0.08" transform="rotate(-8 77 265)"/>
  <line x1="58" y1="258" x2="92" y2="258" stroke="#2E2D2D" stroke-width="1.8" stroke-linecap="round" opacity="0.2" transform="rotate(-8 77 265)"/>
  <line x1="58" y1="268" x2="86" y2="268" stroke="#2E2D2D" stroke-width="1.8" stroke-linecap="round" opacity="0.16" transform="rotate(-8 77 265)"/>
  <path d="M294 274 Q312 250 340 256 Q334 282 306 288 Z" stroke="#2E2D2D" stroke-width="2.5" fill="#C026D3" fill-opacity="0.1" stroke-linejoin="round"/>
  <line x1="316" y1="244" x2="316" y2="220" stroke="#2E2D2D" stroke-width="2" stroke-linecap="round" opacity="0.18"/>
  <!-- Robot cable -->
  <path d="M192 284 C192 306 190 314 182 326" stroke="#2E2D2D" stroke-width="3" fill="none" stroke-linecap="round"/>
  <circle cx="182" cy="326" r="5" fill="#7C3AED" fill-opacity="0.2" stroke="#2E2D2D" stroke-width="2"/>
  <!-- Robot head -->
  <rect x="126" y="320" width="112" height="58" rx="16" stroke="#2E2D2D" stroke-width="3" fill="#A855F7" fill-opacity="0.12"/>
  <rect x="144" y="338" width="22" height="16" rx="8" stroke="#2E2D2D" stroke-width="2" fill="white" fill-opacity="0.28"/>
  <rect x="198" y="338" width="22" height="16" rx="8" stroke="#2E2D2D" stroke-width="2" fill="white" fill-opacity="0.28"/>
  <path d="M162 362 Q182 372 202 362" stroke="#2E2D2D" stroke-width="2.5" fill="none" stroke-linecap="round"/>
  <line x1="152" y1="320" x2="152" y2="302" stroke="#2E2D2D" stroke-width="2.5" stroke-linecap="round"/>
  <circle cx="152" cy="298" r="5" fill="#C026D3" fill-opacity="0.2" stroke="#2E2D2D" stroke-width="2"/>
  <line x1="212" y1="320" x2="212" y2="304" stroke="#2E2D2D" stroke-width="2.5" stroke-linecap="round"/>
  <circle cx="212" cy="300" r="4" fill="#7C3AED" fill-opacity="0.2" stroke="#2E2D2D" stroke-width="1.8"/>
  <circle cx="72" cy="288" r="4" fill="#7C3AED" opacity="0.24"/>
  <circle cx="124" cy="288" r="4" fill="#C026D3" opacity="0.2"/>
  <circle cx="284" cy="92" r="4" fill="#A855F7" opacity="0.22"/>
  <circle cx="336" cy="92" r="4" fill="#7C3AED" opacity="0.18"/>
  <line x1="50" y1="148" x2="68" y2="148" stroke="#2E2D2D" stroke-width="1.5" stroke-linecap="round" opacity="0.12"/>
  <line x1="322" y1="312" x2="346" y2="312" stroke="#2E2D2D" stroke-width="1.5" stroke-linecap="round" opacity="0.12"/>
</svg>
