<svg xmlns="http://www.w3.org/2000/svg" viewBox="0 0 400 400" fill="none">
  <rect x="78" y="82" width="244" height="188" rx="12" fill="#000" opacity="0.08" transform="translate(3,3)"/>
  <rect x="75" y="79" width="244" height="188" rx="12" stroke="#2E2D2D" stroke-width="3.5" fill="#7C3AED" fill-opacity="0.1"/>
  <path d="M75 110 L319 110" stroke="#2E2D2D" stroke-width="2.5" opacity="0.18"/>
  <path d="M100 79 L118 110" stroke="#2E2D2D" stroke-width="3"/>
  <path d="M151 79 L169 110" stroke="#2E2D2D" stroke-width="3"/>
  <path d="M225 79 L243 110" stroke="#2E2D2D" stroke-width="3"/>
  <path d="M276 79 L294 110" stroke="#2E2D2D" stroke-width="3"/>
  <rect x="104" y="128" width="186" height="112" rx="8" stroke="#2E2D2D" stroke-width="2.5" fill="white" fill-opacity="0.34"/>
  <circle cx="197" cy="184" r="34" stroke="#2E2D2D" stroke-width="3" fill="#A855F7" fill-opacity="0.14"/>
  <path d="M186 168 L216 184 L186 200 Z" stroke="#2E2D2D" stroke-width="2.5" fill="#C026D3" fill-opacity="0.16" stroke-linejoin="round"/>
  <rect x="120" y="258" width="154" height="20" rx="10" stroke="#2E2D2D" stroke-width="2.5" fill="#C026D3" fill-opacity="0.08"/>
  <circle cx="138" cy="268" r="6" fill="#7C3AED" opacity="0.34"/>
  <line x1="152" y1="268" x2="254" y2="268" stroke="#2E2D2D" stroke-width="2" stroke-linecap="round" opacity="0.16"/>
  <path d="M50 210 L78 190 L106 210 L92 248 H64 Z" stroke="#2E2D2D" stroke-width="2.5" fill="#A855F7" fill-opacity="0.1" stroke-linejoin="round"/>
  <circle cx="64" cy="204" r="3" fill="#7C3AED" opacity="0.24"/>
  <circle cx="78" cy="198" r="3" fill="#C026D3" opacity="0.22"/>
  <circle cx="92" cy="204" r="3" fill="#A855F7" opacity="0.22"/>
  <rect x="304" y="166" width="48" height="86" rx="6" stroke="#2E2D2D" stroke-width="2.5" fill="#7C3AED" fill-opacity="0.08"/>
  <line x1="316" y1="182" x2="340" y2="182" stroke="#2E2D2D" stroke-width="1.8" stroke-linecap="round" opacity="0.2"/>
  <line x1="316" y1="194" x2="334" y2="194" stroke="#2E2D2D" stroke-width="1.8" stroke-linecap="round" opacity="0.16"/>
  <circle cx="326" cy="224" r="14" stroke="#2E2D2D" stroke-width="2" fill="#C026D3" fill-opacity="0.1"/>
  <path d="M136 310 L176 302 H224 L264 310 L252 344 H148 Z" stroke="#2E2D2D" stroke-width="2.8" fill="#A855F7" fill-opacity="0.12" stroke-linejoin="round"/>
  <path d="M176 302 H224 L216 344 H184 Z" stroke="#2E2D2D" stroke-width="2.4" fill="white" fill-opacity="0.34" stroke-linejoin="round"/>
  <circle cx="168" cy="324" r="7" fill="#2E2D2D" opacity="0.18"/>
  <circle cx="232" cy="324" r="7" fill="#2E2D2D" opacity="0.18"/>
  <circle cx="52" cy="162" r="3" fill="#7C3AED" opacity="0.24"/>
  <circle cx="348" cy="144" r="2.5" fill="#A855F7" opacity="0.2"/>
  <circle cx="74" cy="320" r="2.5" fill="#C026D3" opacity="0.2"/>
  <line x1="318" y1="312" x2="340" y2="312" stroke="#2E2D2D" stroke-width="1.5" stroke-linecap="round" opacity="0.12"/>
</svg>
