<svg xmlns="http://www.w3.org/2000/svg" viewBox="0 0 400 400" fill="none">
  <path d="M157 116 Q170 90 199 90 Q228 90 241 116" stroke="#2E2D2D" stroke-width="3.5" fill="none" stroke-linecap="round"/>
  <path d="M160 116 H238" stroke="#2E2D2D" stroke-width="3.5" stroke-linecap="round"/>
  <path d="M199 90 L199 136" stroke="#2E2D2D" stroke-width="3.5" stroke-linecap="round"/>
  <path d="M123 170 L199 118 L275 170 L256 304 H142 Z" fill="#000" opacity="0.08" transform="translate(3,3)"/>
  <path d="M120 167 L196 115 L272 167 L253 301 H139 Z" stroke="#2E2D2D" stroke-width="3.5" fill="#7C3AED" fill-opacity="0.12" stroke-linejoin="round"/>
  <path d="M150 173 L196 145 L242 173 L232 284 H160 Z" stroke="#2E2D2D" stroke-width="2.5" fill="white" fill-opacity="0.34" stroke-linejoin="round"/>
  <path d="M196 145 L196 284" stroke="#2E2D2D" stroke-width="2" opacity="0.14"/>
  <path d="M160 252 Q196 238 232 252" stroke="#2E2D2D" stroke-width="2" fill="none" opacity="0.14"/>
  <!-- Tie -->
  <path d="M186 152 L196 168 L206 152 L202 176 L196 192 L190 176 Z" stroke="#2E2D2D" stroke-width="2" fill="#C026D3" fill-opacity="0.12" stroke-linejoin="round"/>
  <!-- Collar -->
  <path d="M178 150 L196 166 L214 150" stroke="#2E2D2D" stroke-width="1.8" fill="none" opacity="0.18" stroke-linecap="round" stroke-linejoin="round"/>
  <!-- Stitch details -->
  <line x1="168" y1="206" x2="182" y2="206" stroke="#2E2D2D" stroke-width="1.5" stroke-linecap="round" opacity="0.14"/>
  <line x1="210" y1="206" x2="224" y2="206" stroke="#2E2D2D" stroke-width="1.5" stroke-linecap="round" opacity="0.14"/>
  <circle cx="300" cy="122" r="16" stroke="#2E2D2D" stroke-width="2.5" fill="#A855F7" fill-opacity="0.12"/>
  <path d="M293 122 L298 127 L308 117" stroke="#2E2D2D" stroke-width="2.5" fill="none" stroke-linecap="round" stroke-linejoin="round" opacity="0.34"/>
  <path d="M82 280 Q100 258 122 246" stroke="#C026D3" stroke-width="2" stroke-dasharray="5 4" fill="none" opacity="0.3"/>
  <rect x="58" y="186" width="34" height="64" rx="5" stroke="#2E2D2D" stroke-width="2" fill="#C026D3" fill-opacity="0.08" transform="rotate(-10 75 218)"/>
  <circle cx="70" cy="198" r="4" fill="#2E2D2D" opacity="0.18"/>
  <line x1="66" y1="218" x2="82" y2="218" stroke="#2E2D2D" stroke-width="1.5" stroke-linecap="round" opacity="0.18" transform="rotate(-10 74 218)"/>
  <path d="M294 244 L320 218 L338 236 L312 262 Z" stroke="#2E2D2D" stroke-width="2.5" fill="#7C3AED" fill-opacity="0.08" stroke-linejoin="round"/>
  <path d="M306 234 L326 254" stroke="#2E2D2D" stroke-width="2" opacity="0.16"/>
  <path d="M320 218 Q330 206 340 214" stroke="#2E2D2D" stroke-width="2" fill="none" opacity="0.18"/>
  <!-- Heel shoe -->
  <path d="M292 286 Q316 286 330 298 Q338 304 338 314 H296 Q292 304 292 286 Z" stroke="#2E2D2D" stroke-width="2.5" fill="#A855F7" fill-opacity="0.1" stroke-linejoin="round"/>
  <path d="M330 298 L334 320" stroke="#2E2D2D" stroke-width="2.5" stroke-linecap="round"/>
  <circle cx="58" cy="138" r="3" fill="#7C3AED" opacity="0.24"/>
  <circle cx="338" cy="174" r="2.5" fill="#A855F7" opacity="0.2"/>
  <circle cx="76" cy="334" r="2.5" fill="#C026D3" opacity="0.2"/>
  <line x1="316" y1="318" x2="340" y2="318" stroke="#2E2D2D" stroke-width="1.5" stroke-linecap="round" opacity="0.12"/>
</svg>
