<svg xmlns="http://www.w3.org/2000/svg" viewBox="0 0 400 400" fill="none">
  <!-- Folder shadow -->
  <path d="M63 118 H150 L172 148 H315 Q331 148 331 164 V286 Q331 302 315 302 H63 Q47 302 47 286 V134 Q47 118 63 118 Z" fill="#000" opacity="0.08" transform="translate(3,3)"/>
  <!-- Folder -->
  <path d="M60 115 H147 L169 145 H312 Q328 145 328 161 V283 Q328 299 312 299 H60 Q44 299 44 283 V131 Q44 115 60 115 Z" stroke="#2E2D2D" stroke-width="3.5" fill="#7C3AED" fill-opacity="0.12" stroke-linejoin="round"/>
  <path d="M44 166 H328" stroke="#2E2D2D" stroke-width="2.5" opacity="0.18"/>
  <!-- Documents inside -->
  <rect x="122" y="156" width="92" height="112" rx="8" fill="#000" opacity="0.08" transform="rotate(-4 168 212) translate(2,2)"/>
  <rect x="118" y="152" width="92" height="112" rx="8" stroke="#2E2D2D" stroke-width="2.5" fill="white" fill-opacity="0.36" transform="rotate(-4 164 208)"/>
  <line x1="132" y1="176" x2="194" y2="176" stroke="#2E2D2D" stroke-width="1.8" stroke-linecap="round" opacity="0.2" transform="rotate(-4 163 176)"/>
  <line x1="132" y1="190" x2="186" y2="190" stroke="#2E2D2D" stroke-width="1.8" stroke-linecap="round" opacity="0.16" transform="rotate(-4 159 190)"/>
  <rect x="180" y="168" width="92" height="112" rx="8" stroke="#2E2D2D" stroke-width="2.5" fill="#C026D3" fill-opacity="0.1" transform="rotate(5 226 224)"/>
  <line x1="194" y1="194" x2="250" y2="194" stroke="#2E2D2D" stroke-width="1.8" stroke-linecap="round" opacity="0.18" transform="rotate(5 222 194)"/>
  <line x1="194" y1="208" x2="240" y2="208" stroke="#2E2D2D" stroke-width="1.8" stroke-linecap="round" opacity="0.14" transform="rotate(5 217 208)"/>

  <!-- Tag -->
  <path d="M280 84 H340 L352 98 L340 112 H280 Z" stroke="#2E2D2D" stroke-width="2.5" fill="#A855F7" fill-opacity="0.12" stroke-linejoin="round"/>
  <circle cx="292" cy="98" r="3" fill="#2E2D2D" opacity="0.24"/>

  <!-- Side label card -->
  <rect x="54" y="318" width="86" height="34" rx="8" stroke="#2E2D2D" stroke-width="2" fill="#C026D3" fill-opacity="0.08"/>
  <line x1="70" y1="332" x2="122" y2="332" stroke="#2E2D2D" stroke-width="1.8" stroke-linecap="round" opacity="0.18"/>
  <line x1="70" y1="344" x2="110" y2="344" stroke="#2E2D2D" stroke-width="1.8" stroke-linecap="round" opacity="0.14"/>

  <!-- Decorative accents -->
  <circle cx="42" cy="170" r="3" fill="#7C3AED" opacity="0.24"/>
  <circle cx="346" cy="170" r="2.5" fill="#A855F7" opacity="0.2"/>
  <circle cx="314" cy="330" r="2.5" fill="#C026D3" opacity="0.2"/>
  <line x1="294" y1="344" x2="320" y2="344" stroke="#2E2D2D" stroke-width="1.5" stroke-linecap="round" opacity="0.12"/>
</svg>
