<svg xmlns="http://www.w3.org/2000/svg" viewBox="0 0 400 400" fill="none">
  <circle cx="203" cy="203" r="108" fill="#000" opacity="0.08"/>
  <circle cx="200" cy="200" r="108" stroke="#2E2D2D" stroke-width="3.5" fill="#7C3AED" fill-opacity="0.1"/>
  <circle cx="200" cy="200" r="66" stroke="#2E2D2D" stroke-width="2.5" fill="white" fill-opacity="0.34"/>
  <circle cx="200" cy="200" r="34" stroke="#2E2D2D" stroke-width="2" fill="#A855F7" fill-opacity="0.1"/>
  <line x1="126" y1="130" x2="126" y2="272" stroke="#2E2D2D" stroke-width="4" stroke-linecap="round"/>
  <line x1="114" y1="130" x2="114" y2="178" stroke="#2E2D2D" stroke-width="3" stroke-linecap="round"/>
  <line x1="138" y1="130" x2="138" y2="178" stroke="#2E2D2D" stroke-width="3" stroke-linecap="round"/>
  <line x1="150" y1="130" x2="150" y2="178" stroke="#2E2D2D" stroke-width="3" stroke-linecap="round"/>
  <path d="M278 128 V272" stroke="#2E2D2D" stroke-width="4" stroke-linecap="round"/>
  <path d="M278 132 C278 118 266 106 252 106 V168 C266 168 278 156 278 142" stroke="#2E2D2D" stroke-width="3" fill="#C026D3" fill-opacity="0.12"/>
  <path d="M176 168 Q200 150 224 168" stroke="#7C3AED" stroke-width="2" fill="none" opacity="0.32"/>
  <path d="M170 242 Q200 222 230 242" stroke="#A855F7" stroke-width="2" fill="none" opacity="0.24"/>
  <path d="M74 116 L102 116 L110 142 L66 142 Z" stroke="#2E2D2D" stroke-width="2.5" fill="#C026D3" fill-opacity="0.08" stroke-linejoin="round"/>
  <line x1="82" y1="128" x2="98" y2="128" stroke="#2E2D2D" stroke-width="1.8" stroke-linecap="round" opacity="0.18"/>
  <circle cx="316" cy="130" r="18" stroke="#2E2D2D" stroke-width="2.5" fill="#7C3AED" fill-opacity="0.08"/>
  <path d="M306 130 Q316 116 326 130 Q316 144 306 130 Z" stroke="#2E2D2D" stroke-width="2" fill="#A855F7" fill-opacity="0.1"/>
  <path d="M300 276 Q320 256 342 268" stroke="#C026D3" stroke-width="2" fill="none" opacity="0.22"/>
  <circle cx="62" cy="182" r="3" fill="#7C3AED" opacity="0.24"/>
  <circle cx="336" cy="150" r="2.5" fill="#A855F7" opacity="0.2"/>
  <circle cx="86" cy="312" r="2.5" fill="#C026D3" opacity="0.2"/>
  <line x1="316" y1="296" x2="338" y2="296" stroke="#2E2D2D" stroke-width="1.5" stroke-linecap="round" opacity="0.12"/>
</svg>
