<svg xmlns="http://www.w3.org/2000/svg" viewBox="0 0 400 400" fill="none">
  <!-- Gift box shadow -->
  <rect x="93" y="133" width="188" height="188" rx="10" fill="#000" opacity="0.08" transform="translate(3,3)"/>
  <!-- Gift box -->
  <rect x="90" y="130" width="188" height="188" rx="10" stroke="#2E2D2D" stroke-width="3.5" fill="#7C3AED" fill-opacity="0.12"/>
  <rect x="72" y="178" width="224" height="46" rx="8" stroke="#2E2D2D" stroke-width="3" fill="#A855F7" fill-opacity="0.12"/>
  <line x1="184" y1="130" x2="184" y2="318" stroke="#2E2D2D" stroke-width="3.5"/>
  <!-- Ribbon highlights -->
  <line x1="90" y1="206" x2="278" y2="206" stroke="#2E2D2D" stroke-width="2" opacity="0.14"/>
  <line x1="184" y1="148" x2="184" y2="300" stroke="#2E2D2D" stroke-width="2" opacity="0.14"/>

  <!-- Bow -->
  <path d="M184 178 C154 170 132 150 132 124 C132 106 146 96 164 100 C178 104 184 120 184 136 Z" stroke="#2E2D2D" stroke-width="3" fill="#C026D3" fill-opacity="0.14" stroke-linejoin="round"/>
  <path d="M184 178 C214 170 236 150 236 124 C236 106 222 96 204 100 C190 104 184 120 184 136 Z" stroke="#2E2D2D" stroke-width="3" fill="#A855F7" fill-opacity="0.14" stroke-linejoin="round"/>
  <circle cx="184" cy="179" r="10" stroke="#2E2D2D" stroke-width="2.5" fill="#7C3AED" fill-opacity="0.18"/>

  <!-- Gift tag -->
  <path d="M292 102 H334 L348 118 L334 134 H292 Z" stroke="#2E2D2D" stroke-width="2.5" fill="#C026D3" fill-opacity="0.1" stroke-linejoin="round"/>
  <circle cx="304" cy="118" r="3" fill="#2E2D2D" opacity="0.24"/>
  <path d="M290 118 Q264 136 244 158" stroke="#7C3AED" stroke-width="2" stroke-dasharray="5 4" fill="none" opacity="0.32"/>

  <!-- Open card -->
  <rect x="58" y="282" width="82" height="54" rx="8" stroke="#2E2D2D" stroke-width="2" fill="#A855F7" fill-opacity="0.08" transform="rotate(-8 99 309)"/>
  <line x1="72" y1="300" x2="122" y2="300" stroke="#2E2D2D" stroke-width="1.8" stroke-linecap="round" opacity="0.18" transform="rotate(-8 97 300)"/>
  <line x1="72" y1="314" x2="110" y2="314" stroke="#2E2D2D" stroke-width="1.8" stroke-linecap="round" opacity="0.14" transform="rotate(-8 91 314)"/>

  <!-- Confetti -->
  <path d="M62 104 L74 116" stroke="#7C3AED" stroke-width="2.5" stroke-linecap="round" opacity="0.24"/>
  <path d="M300 74 L312 86" stroke="#A855F7" stroke-width="2.5" stroke-linecap="round" opacity="0.24"/>
  <path d="M320 286 L334 280" stroke="#C026D3" stroke-width="2.5" stroke-linecap="round" opacity="0.2"/>
  <circle cx="52" cy="160" r="3" fill="#7C3AED" opacity="0.24"/>
  <circle cx="338" cy="160" r="2.5" fill="#A855F7" opacity="0.2"/>
  <circle cx="316" cy="334" r="2.5" fill="#C026D3" opacity="0.2"/>
</svg>
