<svg xmlns="http://www.w3.org/2000/svg" viewBox="0 0 400 400" fill="none">
  <rect x="73" y="148" width="254" height="112" rx="12" fill="#000" opacity="0.08" transform="translate(3,3)"/>
  <rect x="70" y="145" width="254" height="112" rx="12" stroke="#2E2D2D" stroke-width="3.5" fill="#7C3AED" fill-opacity="0.12"/>
  <rect x="88" y="170" width="52" height="56" rx="8" stroke="#2E2D2D" stroke-width="2.5" fill="#A855F7" fill-opacity="0.14"/>
  <rect x="140" y="182" width="160" height="44" rx="8" stroke="#2E2D2D" stroke-width="2.5" fill="white" fill-opacity="0.34"/>
  <line x1="70" y1="232" x2="324" y2="232" stroke="#2E2D2D" stroke-width="3"/>
  <line x1="86" y1="257" x2="86" y2="294" stroke="#2E2D2D" stroke-width="3.5" stroke-linecap="round"/>
  <line x1="308" y1="257" x2="308" y2="294" stroke="#2E2D2D" stroke-width="3.5" stroke-linecap="round"/>
  <circle cx="104" cy="186" r="10" stroke="#2E2D2D" stroke-width="2" fill="#C026D3" fill-opacity="0.12"/>
  <rect x="240" y="104" width="84" height="20" rx="10" stroke="#2E2D2D" stroke-width="2.5" fill="#A855F7" fill-opacity="0.12"/>
  <circle cx="302" cy="114" r="8" stroke="#2E2D2D" stroke-width="2" fill="#7C3AED" fill-opacity="0.2"/>
  <circle cx="112" cy="312" r="22" stroke="#2E2D2D" stroke-width="2.5" fill="#C026D3" fill-opacity="0.1"/>
  <path d="M100 312 C100 302 108 296 112 296 C116 296 124 302 124 312 Z" stroke="#2E2D2D" stroke-width="2" fill="#7C3AED" fill-opacity="0.14"/>
  <line x1="94" y1="318" x2="130" y2="318" stroke="#2E2D2D" stroke-width="2" stroke-linecap="round" opacity="0.18"/>
  <rect x="304" y="174" width="46" height="72" rx="6" stroke="#2E2D2D" stroke-width="2.5" fill="#C026D3" fill-opacity="0.08"/>
  <circle cx="338" cy="194" r="4" fill="#2E2D2D" opacity="0.18"/>
  <line x1="316" y1="212" x2="338" y2="212" stroke="#2E2D2D" stroke-width="1.8" stroke-linecap="round" opacity="0.2"/>
  <line x1="316" y1="224" x2="332" y2="224" stroke="#2E2D2D" stroke-width="1.8" stroke-linecap="round" opacity="0.16"/>
  <line x1="356" y1="132" x2="356" y2="226" stroke="#2E2D2D" stroke-width="3" stroke-linecap="round" opacity="0.28"/>
  <path d="M356 150 Q338 128 318 124" stroke="#2E2D2D" stroke-width="2.4" fill="none" stroke-linecap="round" opacity="0.22"/>
  <path d="M356 146 Q374 126 392 122" stroke="#2E2D2D" stroke-width="2.4" fill="none" stroke-linecap="round" opacity="0.22"/>
  <path d="M356 168 Q334 152 320 154" stroke="#2E2D2D" stroke-width="2.2" fill="none" stroke-linecap="round" opacity="0.18"/>
  <path d="M356 164 Q378 150 392 152" stroke="#2E2D2D" stroke-width="2.2" fill="none" stroke-linecap="round" opacity="0.18"/>
  <path d="M52 124 Q70 112 94 118" stroke="#A855F7" stroke-width="2" fill="none" opacity="0.2"/>
  <circle cx="50" cy="194" r="3" fill="#7C3AED" opacity="0.24"/>
  <circle cx="348" cy="214" r="2.5" fill="#A855F7" opacity="0.2"/>
  <circle cx="326" cy="316" r="2.5" fill="#C026D3" opacity="0.2"/>
  <line x1="42" y1="286" x2="60" y2="286" stroke="#2E2D2D" stroke-width="1.5" stroke-linecap="round" opacity="0.12"/>
</svg>
