<svg xmlns="http://www.w3.org/2000/svg" viewBox="0 0 400 400" fill="none">
  <!-- Back frame -->
  <rect x="92" y="82" width="158" height="198" rx="10" fill="#000" opacity="0.08" transform="translate(3,3)"/>
  <rect x="89" y="79" width="158" height="198" rx="10" stroke="#2E2D2D" stroke-width="2.5" fill="#A855F7" fill-opacity="0.08"/>
  <!-- Front frame -->
  <rect x="126" y="104" width="176" height="212" rx="10" fill="#000" opacity="0.08" transform="translate(3,3)"/>
  <rect x="123" y="101" width="176" height="212" rx="10" stroke="#2E2D2D" stroke-width="3.5" fill="#7C3AED" fill-opacity="0.12"/>
  <rect x="141" y="121" width="140" height="172" rx="6" stroke="#2E2D2D" stroke-width="2.5" fill="white" fill-opacity="0.36"/>
  <!-- Photo scene -->
  <circle cx="250" cy="150" r="13" stroke="#2E2D2D" stroke-width="2" fill="#A855F7" fill-opacity="0.16"/>
  <path d="M150 272 L184 224 L214 246 L238 206 L272 272 Z" stroke="#2E2D2D" stroke-width="2.5" fill="#C026D3" fill-opacity="0.1" stroke-linejoin="round"/>
  <path d="M150 272 L172 242 L188 252 L198 238 L214 252 L238 206 L272 272 Z" stroke="#2E2D2D" stroke-width="2" fill="#7C3AED" fill-opacity="0.08" stroke-linejoin="round" opacity="0.5"/>

  <!-- Crop marks -->
  <path d="M104 92 V70 H126" stroke="#2E2D2D" stroke-width="2.5" fill="none" stroke-linecap="round"/>
  <path d="M318 92 H340 V114" stroke="#2E2D2D" stroke-width="2.5" fill="none" stroke-linecap="round"/>
  <path d="M340 306 V328 H318" stroke="#2E2D2D" stroke-width="2.5" fill="none" stroke-linecap="round"/>

  <!-- Thumbnail strip -->
  <rect x="44" y="286" width="62" height="46" rx="6" stroke="#2E2D2D" stroke-width="2" fill="#C026D3" fill-opacity="0.08"/>
  <circle cx="88" cy="300" r="5" fill="#7C3AED" opacity="0.24"/>
  <path d="M54 320 L68 304 L80 314 L92 300 L98 320 Z" stroke="#2E2D2D" stroke-width="1.8" fill="#A855F7" fill-opacity="0.08" stroke-linejoin="round"/>

  <!-- Search loupe -->
  <circle cx="332" cy="184" r="24" stroke="#2E2D2D" stroke-width="3" fill="#A855F7" fill-opacity="0.08"/>
  <line x1="348" y1="200" x2="368" y2="220" stroke="#2E2D2D" stroke-width="6" stroke-linecap="round"/>
  <line x1="348" y1="200" x2="366" y2="218" stroke="#7C3AED" stroke-width="2.5" stroke-linecap="round" opacity="0.18"/>

  <!-- Decorative accents -->
  <circle cx="50" cy="140" r="3" fill="#7C3AED" opacity="0.24"/>
  <circle cx="350" cy="108" r="2.5" fill="#A855F7" opacity="0.2"/>
  <circle cx="124" cy="346" r="2.5" fill="#C026D3" opacity="0.2"/>
  <line x1="304" y1="336" x2="330" y2="336" stroke="#2E2D2D" stroke-width="1.5" stroke-linecap="round" opacity="0.12"/>
</svg>
