<svg xmlns="http://www.w3.org/2000/svg" viewBox="0 0 400 400" fill="none">
  <path d="M203 73 L303 108 V188 C303 260 237 307 203 322 C169 307 103 260 103 188 V108 Z" fill="#000" opacity="0.08" transform="translate(3,3)"/>
  <path d="M200 70 L300 105 V185 C300 257 234 304 200 319 C166 304 100 257 100 185 V105 Z" stroke="#2E2D2D" stroke-width="3.5" fill="#7C3AED" fill-opacity="0.12" stroke-linejoin="round"/>
  <path d="M128 124 L200 98 L272 124 V186 C272 236 226 273 200 287 C174 273 128 236 128 186 Z" stroke="#2E2D2D" stroke-width="2.5" fill="white" fill-opacity="0.34" stroke-linejoin="round"/>
  <circle cx="200" cy="190" r="42" stroke="#2E2D2D" stroke-width="3" fill="#A855F7" fill-opacity="0.14"/>
  <path d="M180 190 L194 204 L222 176" stroke="#2E2D2D" stroke-width="4" fill="none" stroke-linecap="round" stroke-linejoin="round"/>
  <path d="M92 280 Q128 252 158 282" stroke="#C026D3" stroke-width="2" stroke-dasharray="5 4" fill="none" opacity="0.28"/>
  <path d="M242 88 Q276 64 312 94" stroke="#7C3AED" stroke-width="2" stroke-dasharray="5 4" fill="none" opacity="0.28"/>
  <path d="M60 166 Q84 136 120 144 Q104 178 66 182" stroke="#2E2D2D" stroke-width="2.5" fill="#C026D3" fill-opacity="0.08" stroke-linejoin="round"/>
  <rect x="300" y="214" width="44" height="62" rx="6" stroke="#2E2D2D" stroke-width="2.5" fill="#A855F7" fill-opacity="0.08"/>
  <line x1="312" y1="230" x2="334" y2="230" stroke="#2E2D2D" stroke-width="1.8" stroke-linecap="round" opacity="0.2"/>
  <line x1="312" y1="242" x2="330" y2="242" stroke="#2E2D2D" stroke-width="1.8" stroke-linecap="round" opacity="0.16"/>
  <path d="M312 256 L320 264 L334 250" stroke="#2E2D2D" stroke-width="2" fill="none" stroke-linecap="round" stroke-linejoin="round" opacity="0.24"/>
  <circle cx="58" cy="150" r="3" fill="#7C3AED" opacity="0.24"/>
  <circle cx="344" cy="148" r="2.5" fill="#A855F7" opacity="0.2"/>
  <circle cx="82" cy="328" r="2.5" fill="#C026D3" opacity="0.2"/>
  <line x1="318" y1="316" x2="340" y2="316" stroke="#2E2D2D" stroke-width="1.5" stroke-linecap="round" opacity="0.12"/>
</svg>
