<svg xmlns="http://www.w3.org/2000/svg" viewBox="0 0 400 400" fill="none">
  <!-- Padlock shadow -->
  <rect x="113" y="153" width="170" height="142" rx="14" fill="#000" opacity="0.08"/>
  <!-- Shackle shadow -->
  <path d="M146 157 L146 113 C146 73 170 51 198 51 C226 51 250 73 250 113 L250 157 L232 157 L232 121 C232 94 217 78 198 78 C179 78 164 94 164 121 L164 157 Z" fill="#000" opacity="0.08"/>
  <!-- Shackle -->
  <path d="M143 154 L143 110 C143 70 167 48 195 48 C223 48 247 70 247 110 L247 154 L229 154 L229 118 C229 91 214 75 195 75 C176 75 161 91 161 118 L161 154 Z" stroke="#2E2D2D" stroke-width="3.5" fill="#A855F7" fill-opacity="0.16" stroke-linejoin="round"/>
  <!-- Shackle inner highlight -->
  <path d="M171 154 L171 123 C171 103 181 90 195 90 C209 90 219 103 219 123 L219 154" stroke="#C026D3" stroke-width="2.5" fill="none" stroke-linecap="round" opacity="0.22"/>
  <!-- Padlock body -->
  <rect x="110" y="150" width="170" height="142" rx="14" stroke="#2E2D2D" stroke-width="3.5" fill="#7C3AED" fill-opacity="0.14"/>
  <!-- Face plate -->
  <rect x="128" y="170" width="134" height="104" rx="8" stroke="#2E2D2D" stroke-width="2" fill="white" fill-opacity="0.34"/>
  <!-- Keyhole -->
  <circle cx="195" cy="215" r="15" stroke="#2E2D2D" stroke-width="3" fill="#2E2D2D" fill-opacity="0.15"/>
  <path d="M195 230 L189 256 L201 256 Z" stroke="#2E2D2D" stroke-width="2" fill="#2E2D2D" fill-opacity="0.15" stroke-linejoin="round"/>

  <!-- Shield badge -->
  <path d="M52 84 L52 112 C52 130 66 142 78 148 C90 142 104 130 104 112 L104 84 L78 74 Z" stroke="#2E2D2D" stroke-width="2.5" fill="#A855F7" fill-opacity="0.12"/>
  <polyline points="66,112 74,120 90,102" stroke="#2E2D2D" stroke-width="2.5" fill="none" stroke-linecap="round" stroke-linejoin="round" opacity="0.42"/>

  <!-- Secure card -->
  <rect x="300" y="82" width="62" height="78" rx="8" stroke="#2E2D2D" stroke-width="2" fill="#C026D3" fill-opacity="0.1"/>
  <line x1="314" y1="100" x2="348" y2="100" stroke="#2E2D2D" stroke-width="1.8" stroke-linecap="round" opacity="0.24"/>
  <line x1="314" y1="112" x2="344" y2="112" stroke="#2E2D2D" stroke-width="1.8" stroke-linecap="round" opacity="0.2"/>
  <rect x="322" y="124" width="18" height="14" rx="3" fill="#7C3AED" fill-opacity="0.16" stroke="#2E2D2D" stroke-width="1.5"/>
  <path d="M326 124 L326 120 C326 116 329 114 331 114 C333 114 336 116 336 120 L336 124" stroke="#2E2D2D" stroke-width="1.5" fill="none"/>

  <!-- Status line -->
  <path d="M306 242 Q330 230 350 242 Q332 258 308 252" stroke="#7C3AED" stroke-width="2" fill="none" opacity="0.35"/>

  <!-- Balaclava -->
  <path d="M134 318 Q144 292 172 286 H214 Q242 292 252 318 V350 Q238 362 214 366 H172 Q148 362 134 350 Z" stroke="#2E2D2D" stroke-width="2.8" fill="#C026D3" fill-opacity="0.1" stroke-linejoin="round"/>
  <path d="M160 320 Q176 308 193 308 Q210 308 226 320" stroke="#2E2D2D" stroke-width="2.2" fill="none" opacity="0.18" stroke-linecap="round"/>
  <rect x="158" y="326" width="22" height="14" rx="7" fill="white" fill-opacity="0.28" stroke="#2E2D2D" stroke-width="1.8"/>
  <rect x="206" y="326" width="22" height="14" rx="7" fill="white" fill-opacity="0.28" stroke="#2E2D2D" stroke-width="1.8"/>
  <path d="M174 348 Q193 356 212 348" stroke="#2E2D2D" stroke-width="2" fill="none" stroke-linecap="round"/>

  <!-- Decorative dots -->
  <circle cx="42" cy="212" r="3" fill="#7C3AED" opacity="0.24"/>
  <circle cx="368" cy="190" r="2.5" fill="#A855F7" opacity="0.22"/>
  <circle cx="56" cy="306" r="2.5" fill="#C026D3" opacity="0.2"/>
  <circle cx="354" cy="330" r="2" fill="#7C3AED" opacity="0.18"/>
  <!-- Decorative lines -->
  <line x1="26" y1="180" x2="42" y2="180" stroke="#2E2D2D" stroke-width="1.5" stroke-linecap="round" opacity="0.12"/>
  <line x1="316" y1="320" x2="340" y2="320" stroke="#2E2D2D" stroke-width="1.5" stroke-linecap="round" opacity="0.12"/>
</svg>
