<svg xmlns="http://www.w3.org/2000/svg" viewBox="0 0 400 400" fill="none">
  <rect x="73" y="138" width="154" height="102" rx="8" fill="#000" opacity="0.08" transform="translate(3,3)"/>
  <rect x="70" y="135" width="154" height="102" rx="8" stroke="#2E2D2D" stroke-width="3.5" fill="#7C3AED" fill-opacity="0.12"/>
  <path d="M224 165 H282 L320 205 V237 H224 Z" fill="#000" opacity="0.08" transform="translate(3,3)"/>
  <path d="M221 162 H279 L317 202 V234 H221 Z" stroke="#2E2D2D" stroke-width="3.5" fill="#A855F7" fill-opacity="0.12" stroke-linejoin="round"/>
  <line x1="221" y1="186" x2="291" y2="186" stroke="#2E2D2D" stroke-width="2" opacity="0.18"/>
  <rect x="95" y="160" width="54" height="38" rx="6" stroke="#2E2D2D" stroke-width="2.5" fill="white" fill-opacity="0.34"/>
  <line x1="108" y1="172" x2="136" y2="172" stroke="#2E2D2D" stroke-width="2" stroke-linecap="round" opacity="0.18"/>
  <line x1="108" y1="182" x2="128" y2="182" stroke="#2E2D2D" stroke-width="2" stroke-linecap="round" opacity="0.14"/>
  <circle cx="122" cy="248" r="24" stroke="#2E2D2D" stroke-width="3" fill="#C026D3" fill-opacity="0.12"/>
  <circle cx="122" cy="248" r="10" stroke="#2E2D2D" stroke-width="2" fill="white" fill-opacity="0.28"/>
  <circle cx="266" cy="248" r="24" stroke="#2E2D2D" stroke-width="3" fill="#7C3AED" fill-opacity="0.14"/>
  <circle cx="266" cy="248" r="10" stroke="#2E2D2D" stroke-width="2" fill="white" fill-opacity="0.28"/>
  <path d="M58 300 Q120 332 184 300" stroke="#7C3AED" stroke-width="2" stroke-dasharray="5 4" fill="none" opacity="0.3"/>
  <circle cx="58" cy="300" r="12" stroke="#2E2D2D" stroke-width="2" fill="#A855F7" fill-opacity="0.12"/>
  <circle cx="184" cy="300" r="12" stroke="#2E2D2D" stroke-width="2" fill="#C026D3" fill-opacity="0.12"/>
  <rect x="286" y="112" width="56" height="42" rx="6" stroke="#2E2D2D" stroke-width="2" fill="#C026D3" fill-opacity="0.08"/>
  <line x1="298" y1="126" x2="330" y2="126" stroke="#2E2D2D" stroke-width="1.8" stroke-linecap="round" opacity="0.2"/>
  <line x1="298" y1="138" x2="322" y2="138" stroke="#2E2D2D" stroke-width="1.8" stroke-linecap="round" opacity="0.16"/>
  <path d="M210 74 L236 86 L296 86 L320 94 L296 102 L236 102 L210 114 L218 94 Z" stroke="#2E2D2D" stroke-width="2.5" fill="#A855F7" fill-opacity="0.12" stroke-linejoin="round"/>
  <line x1="244" y1="86" x2="244" y2="74" stroke="#2E2D2D" stroke-width="1.8" stroke-linecap="round" opacity="0.18"/>
  <path d="M54 108 Q82 86 114 98" stroke="#A855F7" stroke-width="2" fill="none" opacity="0.2"/>
  <path d="M188 300 Q232 286 270 300" stroke="#C026D3" stroke-width="2" stroke-dasharray="5 4" fill="none" opacity="0.24"/>
  <circle cx="50" cy="166" r="3" fill="#7C3AED" opacity="0.24"/>
  <circle cx="346" cy="182" r="2.5" fill="#A855F7" opacity="0.2"/>
  <circle cx="330" cy="314" r="2.5" fill="#C026D3" opacity="0.2"/>
  <line x1="38" y1="276" x2="56" y2="276" stroke="#2E2D2D" stroke-width="1.5" stroke-linecap="round" opacity="0.12"/>
</svg>
