<svg xmlns="http://www.w3.org/2000/svg" viewBox="0 0 400 400" fill="none">
  <!-- Main bubble shadow -->
  <path d="M56 98 Q56 70 84 70 H244 Q272 70 272 98 V200 Q272 228 244 228 H148 L106 274 L116 228 H84 Q56 228 56 200 Z" fill="#000" opacity="0.08" transform="translate(3,3)"/>
  <!-- Main bubble -->
  <path d="M53 95 Q53 67 81 67 H241 Q269 67 269 95 V197 Q269 225 241 225 H145 L103 271 L113 225 H81 Q53 225 53 197 Z" stroke="#2E2D2D" stroke-width="3.5" fill="#7C3AED" fill-opacity="0.12"/>
  <line x1="88" y1="108" x2="218" y2="108" stroke="#2E2D2D" stroke-width="2" stroke-linecap="round" opacity="0.18"/>
  <line x1="88" y1="128" x2="222" y2="128" stroke="#2E2D2D" stroke-width="2" stroke-linecap="round" opacity="0.2"/>
  <line x1="88" y1="146" x2="206" y2="146" stroke="#2E2D2D" stroke-width="2" stroke-linecap="round" opacity="0.16"/>
  <!-- Typing dots -->
  <circle cx="102" cy="186" r="7" fill="#A855F7" opacity="0.34"/>
  <circle cx="128" cy="186" r="7" fill="#7C3AED" opacity="0.34"/>
  <circle cx="154" cy="186" r="7" fill="#C026D3" opacity="0.3"/>

  <!-- Reply bubble -->
  <path d="M218 214 Q218 194 238 194 H334 Q354 194 354 214 V286 Q354 306 334 306 H288 L310 338 L274 306 H238 Q218 306 218 286 Z" fill="#000" opacity="0.08" transform="translate(3,3)"/>
  <path d="M215 211 Q215 191 235 191 H331 Q351 191 351 211 V283 Q351 303 331 303 H285 L307 335 L271 303 H235 Q215 303 215 283 Z" stroke="#2E2D2D" stroke-width="2.5" fill="#C026D3" fill-opacity="0.1"/>
  <line x1="242" y1="222" x2="320" y2="222" stroke="#2E2D2D" stroke-width="1.8" stroke-linecap="round" opacity="0.18"/>
  <line x1="242" y1="238" x2="312" y2="238" stroke="#2E2D2D" stroke-width="1.8" stroke-linecap="round" opacity="0.16"/>
  <line x1="242" y1="254" x2="298" y2="254" stroke="#2E2D2D" stroke-width="1.8" stroke-linecap="round" opacity="0.14"/>

  <!-- Notification badge -->
  <circle cx="296" cy="96" r="18" fill="#000" opacity="0.08" transform="translate(2,2)"/>
  <circle cx="294" cy="94" r="18" stroke="#2E2D2D" stroke-width="2.5" fill="#A855F7" fill-opacity="0.14"/>
  <text x="294" y="100" text-anchor="middle" fill="#2E2D2D" font-size="14" font-weight="bold" opacity="0.55">3</text>

  <!-- Send accent -->
  <path d="M320 140 L344 128 L336 152 L324 148 L314 164 Z" stroke="#2E2D2D" stroke-width="2.5" fill="#7C3AED" fill-opacity="0.1" stroke-linejoin="round"/>

  <!-- Decorative accents -->
  <circle cx="42" cy="150" r="3" fill="#7C3AED" opacity="0.24"/>
  <circle cx="362" cy="170" r="2.5" fill="#A855F7" opacity="0.2"/>
  <circle cx="178" cy="334" r="2.5" fill="#C026D3" opacity="0.2"/>
  <line x1="320" y1="342" x2="344" y2="342" stroke="#2E2D2D" stroke-width="1.5" stroke-linecap="round" opacity="0.12"/>
</svg>
