<svg xmlns="http://www.w3.org/2000/svg" viewBox="0 0 400 400" fill="none">
  <!-- Shadow -->
  <ellipse cx="203" cy="350" rx="110" ry="14" fill="#000" opacity="0.06"/>
  <!-- Palette body shadow -->
  <path d="M203,83 C283,83 353,133 353,203 C353,243 333,268 303,268 C283,268 273,253 273,238 C273,223 283,213 283,198 C283,183 268,173 248,183 C228,193 203,323 123,303 C63,288 53,203 103,133 C133,93 163,83 203,83 Z" fill="#000" opacity="0.07" transform="translate(3,3)"/>
  <!-- Palette body -->
  <path d="M200,80 C280,80 350,130 350,200 C350,240 330,265 300,265 C280,265 270,250 270,235 C270,220 280,210 280,195 C280,180 265,170 245,180 C225,190 200,320 120,300 C60,285 50,200 100,130 C130,90 160,80 200,80 Z" fill="#7C3AED" fill-opacity="0.1" stroke="#2E2D2D" stroke-width="3" stroke-linejoin="round"/>
  <!-- Inner palette detail -->
  <path d="M200,100 C260,100 320,140 320,200 C320,225 310,240 295,240 C282,240 276,230 278,218 C280,200 260,195 248,200" stroke="#2E2D2D" stroke-width="1.5" fill="none" opacity="0.15"/>
  <!-- Color blob 1 (purple) -->
  <circle cx="160" cy="130" r="22" fill="#7C3AED" fill-opacity="0.35" stroke="#2E2D2D" stroke-width="2.5"/>
  <circle cx="158" cy="128" r="8" fill="#7C3AED" fill-opacity="0.2"/>
  <!-- Color blob 2 (magenta) -->
  <circle cx="230" cy="120" r="18" fill="#C026D3" fill-opacity="0.3" stroke="#2E2D2D" stroke-width="2.5"/>
  <circle cx="228" cy="118" r="6" fill="#C026D3" fill-opacity="0.15"/>
  <!-- Color blob 3 (light purple) -->
  <circle cx="280" cy="160" r="16" fill="#A855F7" fill-opacity="0.25" stroke="#2E2D2D" stroke-width="2.5"/>
  <circle cx="278" cy="158" r="5" fill="#A855F7" fill-opacity="0.15"/>
  <!-- Color blob 4 (dark) -->
  <circle cx="130" cy="190" r="15" fill="#2E2D2D" fill-opacity="0.15" stroke="#2E2D2D" stroke-width="2.5"/>
  <!-- Thumb hole -->
  <ellipse cx="170" cy="260" rx="28" ry="22" fill="white" fill-opacity="0.5" stroke="#2E2D2D" stroke-width="2.5"/>
  <ellipse cx="170" cy="260" rx="18" ry="14" fill="#7C3AED" fill-opacity="0.05" stroke="#2E2D2D" stroke-width="1"/>
  <!-- Paintbrush -->
  <line x1="270" y1="310" x2="340" y2="120" stroke="#2E2D2D" stroke-width="4" stroke-linecap="round"/>
  <!-- Brush handle -->
  <line x1="300" y1="230" x2="340" y2="120" stroke="#C026D3" stroke-width="6" stroke-linecap="round" opacity="0.15"/>
  <!-- Brush ferrule -->
  <rect x="265" y="295" width="16" height="22" rx="2" fill="#2E2D2D" fill-opacity="0.2" stroke="#2E2D2D" stroke-width="1.5" transform="rotate(-70,273,306)"/>
  <!-- Brush bristles -->
  <path d="M255,320 Q248,340 252,355 Q260,365 270,355 Q275,340 268,320" fill="#7C3AED" fill-opacity="0.3" stroke="#2E2D2D" stroke-width="2" stroke-linejoin="round"/>
  <!-- Paint drip from brush -->
  <circle cx="260" cy="362" r="4" fill="#7C3AED" fill-opacity="0.25" stroke="#2E2D2D" stroke-width="1"/>
  <!-- Paint splash decorative -->
  <circle cx="55" cy="310" r="5" fill="#C026D3" opacity="0.2"/>
  <circle cx="65" cy="325" r="3" fill="#7C3AED" opacity="0.15"/>
  <circle cx="48" cy="322" r="2" fill="#A855F7" opacity="0.2"/>
  <!-- Decorative dots -->
  <circle cx="45" cy="80" r="3" fill="#7C3AED" opacity="0.25"/>
  <circle cx="360" cy="300" r="2.5" fill="#A855F7" opacity="0.2"/>
  <circle cx="350" cy="60" r="2" fill="#C026D3" opacity="0.15"/>
</svg>