<svg xmlns="http://www.w3.org/2000/svg" viewBox="0 0 400 400" fill="none">
  <!-- Phone body shadow -->
  <path d="M98 174 Q98 144 126 144 H274 Q302 144 302 174 V264 Q302 296 274 304 H126 Q98 296 98 264 Z" fill="#000" opacity="0.08" transform="translate(3,3)"/>
  <!-- Phone body -->
  <path d="M95 171 Q95 141 123 141 H271 Q299 141 299 171 V261 Q299 293 271 301 H123 Q95 293 95 261 Z" stroke="#2E2D2D" stroke-width="3.5" fill="#7C3AED" fill-opacity="0.12" stroke-linejoin="round"/>

  <!-- Handset -->
  <path d="M126 130 Q144 100 170 100 H226 Q252 100 270 130 L282 150 Q286 158 280 164 Q274 170 264 170 H132 Q122 170 116 164 Q110 158 114 150 Z" stroke="#2E2D2D" stroke-width="3.5" fill="#A855F7" fill-opacity="0.14" stroke-linejoin="round"/>
  <rect x="142" y="122" width="38" height="14" rx="7" fill="white" fill-opacity="0.28"/>
  <rect x="220" y="122" width="38" height="14" rx="7" fill="white" fill-opacity="0.28"/>

  <!-- Dial -->
  <circle cx="197" cy="220" r="56" stroke="#2E2D2D" stroke-width="3.5" fill="white" fill-opacity="0.34"/>
  <circle cx="197" cy="220" r="18" stroke="#2E2D2D" stroke-width="2.5" fill="#C026D3" fill-opacity="0.14"/>
  <circle cx="197" cy="176" r="7" fill="#A855F7" fill-opacity="0.22" stroke="#2E2D2D" stroke-width="1.8"/>
  <circle cx="226" cy="186" r="7" fill="#7C3AED" fill-opacity="0.22" stroke="#2E2D2D" stroke-width="1.8"/>
  <circle cx="241" cy="212" r="7" fill="#A855F7" fill-opacity="0.22" stroke="#2E2D2D" stroke-width="1.8"/>
  <circle cx="234" cy="241" r="7" fill="#C026D3" fill-opacity="0.22" stroke="#2E2D2D" stroke-width="1.8"/>
  <circle cx="210" cy="259" r="7" fill="#7C3AED" fill-opacity="0.22" stroke="#2E2D2D" stroke-width="1.8"/>
  <circle cx="183" cy="260" r="7" fill="#A855F7" fill-opacity="0.22" stroke="#2E2D2D" stroke-width="1.8"/>
  <circle cx="160" cy="244" r="7" fill="#C026D3" fill-opacity="0.22" stroke="#2E2D2D" stroke-width="1.8"/>
  <circle cx="152" cy="216" r="7" fill="#7C3AED" fill-opacity="0.22" stroke="#2E2D2D" stroke-width="1.8"/>
  <circle cx="166" cy="190" r="7" fill="#A855F7" fill-opacity="0.22" stroke="#2E2D2D" stroke-width="1.8"/>

  <!-- Base details -->
  <rect x="150" y="282" width="94" height="12" rx="6" fill="#2E2D2D" opacity="0.14"/>
  <line x1="122" y1="284" x2="140" y2="284" stroke="#2E2D2D" stroke-width="2" stroke-linecap="round" opacity="0.14"/>
  <line x1="255" y1="284" x2="274" y2="284" stroke="#2E2D2D" stroke-width="2" stroke-linecap="round" opacity="0.14"/>

  <!-- Sound waves -->
  <path d="M260 92 Q304 72 334 106" stroke="#2E2D2D" stroke-width="3" fill="none" opacity="0.18" stroke-linecap="round"/>
  <path d="M272 76 Q326 48 362 90" stroke="#7C3AED" stroke-width="2.5" fill="none" opacity="0.28" stroke-linecap="round"/>
  <path d="M286 60 Q342 28 382 74" stroke="#C026D3" stroke-width="2.5" fill="none" opacity="0.24" stroke-linecap="round"/>

  <!-- Music notes -->
  <path d="M74 108 V72 L108 66 V102" stroke="#2E2D2D" stroke-width="2.5" fill="none" stroke-linecap="round" stroke-linejoin="round"/>
  <circle cx="74" cy="114" r="8" stroke="#2E2D2D" stroke-width="2" fill="#A855F7" fill-opacity="0.14"/>
  <circle cx="108" cy="108" r="8" stroke="#2E2D2D" stroke-width="2" fill="#C026D3" fill-opacity="0.14"/>
  <path d="M126 140 V114 L150 108 V136" stroke="#2E2D2D" stroke-width="2.5" fill="none" stroke-linecap="round" stroke-linejoin="round"/>
  <circle cx="126" cy="146" r="7" stroke="#2E2D2D" stroke-width="2" fill="#7C3AED" fill-opacity="0.14"/>

  <!-- Decorative accents -->
  <circle cx="48" cy="214" r="3" fill="#7C3AED" opacity="0.24"/>
  <circle cx="350" cy="330" r="2.5" fill="#A855F7" opacity="0.2"/>
  <circle cx="164" cy="52" r="2.5" fill="#C026D3" opacity="0.2"/>
  <line x1="298" y1="332" x2="326" y2="332" stroke="#2E2D2D" stroke-width="1.5" stroke-linecap="round" opacity="0.12"/>
</svg>
