<svg xmlns="http://www.w3.org/2000/svg" viewBox="0 0 400 400" fill="none">
  <!-- Shadow -->
  <ellipse cx="203" cy="355" rx="120" ry="14" fill="#000" opacity="0.06"/>
  <!-- Bottom-left piece shadow -->
  <path d="M73,203 L73,313 L183,313 L183,273 C172,273 163,264 163,253 C163,242 172,233 183,233 L183,203 Z" fill="#000" opacity="0.07" transform="translate(3,3)"/>
  <!-- Top-left piece -->
  <path d="M70,80 L180,80 L180,120 C169,120 160,129 160,140 C160,151 169,160 180,160 L180,200 L140,200 C140,189 131,180 120,180 C109,180 100,189 100,200 L70,200 Z" fill="#7C3AED" fill-opacity="0.2" stroke="#2E2D2D" stroke-width="3" stroke-linejoin="round"/>
  <!-- Top-right piece -->
  <path d="M180,80 L180,120 C191,120 200,129 200,140 C200,151 191,160 180,160 L180,200 L220,200 C220,211 229,220 240,220 C251,220 260,211 260,200 L290,200 L290,140 C279,140 270,131 270,120 C270,109 279,100 290,100 L290,80 Z" fill="#A855F7" fill-opacity="0.15" stroke="#2E2D2D" stroke-width="3" stroke-linejoin="round"/>
  <!-- Bottom-left piece -->
  <path d="M70,200 L100,200 C100,211 109,220 120,220 C131,220 140,211 140,200 L180,200 L180,260 C169,260 160,269 160,280 C160,291 169,300 180,300 L180,320 L70,320 Z" fill="#C026D3" fill-opacity="0.15" stroke="#2E2D2D" stroke-width="3" stroke-linejoin="round"/>
  <!-- Bottom-right piece (floating, being placed) -->
  <g transform="translate(12,-8) rotate(5, 235, 260)">
    <path d="M180,200 L220,200 C220,211 229,220 240,220 C251,220 260,211 260,200 L290,200 L290,320 L180,320 L180,300 C191,300 200,291 200,280 C200,269 191,260 180,260 Z" fill="#7C3AED" fill-opacity="0.1" stroke="#2E2D2D" stroke-width="3" stroke-linejoin="round" stroke-dasharray="8,4"/>
  </g>
  <!-- Movement arrow for floating piece -->
  <path d="M310,230 Q320,250 305,270" stroke="#7C3AED" stroke-width="2" fill="none" opacity="0.4" stroke-linecap="round"/>
  <polygon points="303,265 310,272 300,274" fill="#7C3AED" opacity="0.4"/>
  <!-- Hand placing the piece -->
  <path d="M290,145 C305,135 318,130 328,128 C338,126 342,133 336,140 L330,145 C342,140 348,148 340,154 C352,150 355,158 347,163 C358,160 360,168 350,173 L318,190 C300,200 288,195 278,188 Z" stroke="#2E2D2D" stroke-width="3" fill="#C026D3" fill-opacity="0.14" stroke-linejoin="round"/>
  <!-- Finger detail -->
  <path d="M325,162 Q330,155 335,150" stroke="#2E2D2D" stroke-width="1.5" fill="none" opacity="0.3"/>
  <!-- Decorative dots -->
  <circle cx="40" cy="60" r="3" fill="#7C3AED" opacity="0.25"/>
  <circle cx="55" cy="350" r="2.5" fill="#A855F7" opacity="0.2"/>
  <circle cx="350" cy="60" r="2" fill="#C026D3" opacity="0.2"/>
  <circle cx="370" cy="350" r="3" fill="#7C3AED" opacity="0.15"/>
  <!-- Small scattered shapes -->
  <rect x="330" y="330" width="8" height="8" rx="1" fill="#7C3AED" opacity="0.15" transform="rotate(15,334,334)"/>
  <circle cx="50" cy="140" r="4" stroke="#A855F7" stroke-width="1.5" fill="none" opacity="0.2"/>
</svg>