<svg xmlns="http://www.w3.org/2000/svg" viewBox="0 0 400 400" fill="none">
  <!-- Browser card shadow -->
  <rect x="73" y="53" width="238" height="266" rx="12" fill="#000" opacity="0.08"/>
  <!-- Browser card -->
  <rect x="70" y="50" width="238" height="266" rx="12" stroke="#2E2D2D" stroke-width="3.5" fill="white" fill-opacity="0.55"/>
  <!-- Browser top bar -->
  <rect x="70" y="50" width="238" height="30" rx="12" fill="#2E2D2D" fill-opacity="0.06"/>
  <line x1="70" y1="80" x2="308" y2="80" stroke="#2E2D2D" stroke-width="1.5" opacity="0.2"/>
  <circle cx="88" cy="65" r="4" fill="#C026D3" fill-opacity="0.3"/>
  <circle cx="100" cy="65" r="4" fill="#A855F7" fill-opacity="0.3"/>
  <circle cx="112" cy="65" r="4" fill="#7C3AED" fill-opacity="0.3"/>
  <!-- Search field -->
  <rect x="128" y="58" width="160" height="14" rx="7" stroke="#2E2D2D" stroke-width="1.5" fill="#7C3AED" fill-opacity="0.08"/>
  <circle cx="140" cy="65" r="3.5" stroke="#2E2D2D" stroke-width="1.2" opacity="0.35"/>
  <line x1="142.5" y1="67.5" x2="145.5" y2="70.5" stroke="#2E2D2D" stroke-width="1.2" stroke-linecap="round" opacity="0.35"/>
  <line x1="151" y1="65" x2="193" y2="65" stroke="#2E2D2D" stroke-width="1.5" stroke-linecap="round" opacity="0.24"/>

  <!-- Highlighted result -->
  <rect x="92" y="98" width="194" height="64" rx="8" fill="#7C3AED" fill-opacity="0.16" stroke="#2E2D2D" stroke-width="2.5"/>
  <rect x="106" y="110" width="74" height="8" rx="4" fill="#7C3AED" fill-opacity="0.38"/>
  <line x1="106" y1="129" x2="246" y2="129" stroke="#2E2D2D" stroke-width="2" stroke-linecap="round" opacity="0.34"/>
  <line x1="106" y1="140" x2="232" y2="140" stroke="#2E2D2D" stroke-width="1.5" stroke-linecap="round" opacity="0.24"/>
  <line x1="106" y1="150" x2="214" y2="150" stroke="#2E2D2D" stroke-width="1.5" stroke-linecap="round" opacity="0.18"/>
  <!-- Signal markers -->
  <circle cx="258" cy="116" r="8" fill="#A855F7" fill-opacity="0.16" stroke="#2E2D2D" stroke-width="1.5"/>
  <path d="M258 112V120" stroke="#2E2D2D" stroke-width="1.5" stroke-linecap="round"/>
  <path d="M254 116H262" stroke="#2E2D2D" stroke-width="1.5" stroke-linecap="round"/>

  <!-- Secondary results -->
  <rect x="92" y="176" width="194" height="42" rx="6" fill="#2E2D2D" fill-opacity="0.04" stroke="#2E2D2D" stroke-width="1.5" opacity="0.42"/>
  <line x1="106" y1="190" x2="226" y2="190" stroke="#2E2D2D" stroke-width="2" stroke-linecap="round" opacity="0.24"/>
  <line x1="106" y1="201" x2="246" y2="201" stroke="#2E2D2D" stroke-width="1.5" stroke-linecap="round" opacity="0.16"/>
  <rect x="92" y="230" width="194" height="42" rx="6" fill="#2E2D2D" fill-opacity="0.03" stroke="#2E2D2D" stroke-width="1.5" opacity="0.34"/>
  <line x1="106" y1="244" x2="218" y2="244" stroke="#2E2D2D" stroke-width="2" stroke-linecap="round" opacity="0.18"/>
  <line x1="106" y1="255" x2="232" y2="255" stroke="#2E2D2D" stroke-width="1.5" stroke-linecap="round" opacity="0.12"/>

  <!-- Magnifier shadow -->
  <circle cx="283" cy="251" r="71" fill="#000" opacity="0.08"/>
  <!-- Magnifier lens -->
  <circle cx="280" cy="248" r="71" stroke="#2E2D2D" stroke-width="4" fill="#A855F7" fill-opacity="0.10"/>
  <circle cx="280" cy="248" r="50" stroke="#2E2D2D" stroke-width="2" fill="white" fill-opacity="0.32"/>
  <!-- Handle -->
  <line x1="330" y1="298" x2="372" y2="340" stroke="#2E2D2D" stroke-width="16" stroke-linecap="round"/>
  <line x1="331" y1="299" x2="369" y2="337" stroke="#7C3AED" stroke-width="6" stroke-linecap="round" opacity="0.16"/>

  <!-- Focus target inside lens -->
  <rect x="246" y="216" width="68" height="44" rx="6" stroke="#2E2D2D" stroke-width="2.5" fill="#C026D3" fill-opacity="0.12"/>
  <line x1="258" y1="228" x2="302" y2="228" stroke="#2E2D2D" stroke-width="2" stroke-linecap="round" opacity="0.34"/>
  <line x1="258" y1="239" x2="292" y2="239" stroke="#2E2D2D" stroke-width="1.5" stroke-linecap="round" opacity="0.24"/>
  <line x1="258" y1="249" x2="286" y2="249" stroke="#2E2D2D" stroke-width="1.5" stroke-linecap="round" opacity="0.18"/>
  <circle cx="280" cy="238" r="23" stroke="#7C3AED" stroke-width="2.5" opacity="0.52"/>
  <path d="M280 229V247" stroke="#7C3AED" stroke-width="2.5" stroke-linecap="round" opacity="0.52"/>
  <path d="M271 238H289" stroke="#7C3AED" stroke-width="2.5" stroke-linecap="round" opacity="0.52"/>

  <!-- Orbiting audit chips -->
  <rect x="302" y="98" width="56" height="30" rx="6" fill="#000" opacity="0.08" transform="translate(3,3)"/>
  <rect x="302" y="98" width="56" height="30" rx="6" stroke="#2E2D2D" stroke-width="2" fill="#A855F7" fill-opacity="0.12"/>
  <line x1="313" y1="110" x2="348" y2="110" stroke="#2E2D2D" stroke-width="1.5" stroke-linecap="round" opacity="0.28"/>
  <line x1="313" y1="118" x2="338" y2="118" stroke="#2E2D2D" stroke-width="1.5" stroke-linecap="round" opacity="0.18"/>

  <rect x="26" y="282" width="62" height="34" rx="6" fill="#000" opacity="0.08" transform="translate(3,3)"/>
  <rect x="26" y="282" width="62" height="34" rx="6" stroke="#2E2D2D" stroke-width="2" fill="#7C3AED" fill-opacity="0.12"/>
  <line x1="38" y1="296" x2="74" y2="296" stroke="#2E2D2D" stroke-width="1.5" stroke-linecap="round" opacity="0.3"/>
  <line x1="38" y1="305" x2="66" y2="305" stroke="#2E2D2D" stroke-width="1.5" stroke-linecap="round" opacity="0.18"/>

  <!-- Search rays -->
  <path d="M236 171 Q244 163 255 162" stroke="#2E2D2D" stroke-width="2" fill="none" opacity="0.18" stroke-linecap="round"/>
  <path d="M315 180 Q327 178 336 184" stroke="#2E2D2D" stroke-width="2" fill="none" opacity="0.18" stroke-linecap="round"/>
  <path d="M246 311 Q252 320 252 331" stroke="#2E2D2D" stroke-width="2" fill="none" opacity="0.14" stroke-linecap="round"/>

  <!-- Top-right sparkle -->
  <path d="M334 48L338 60L350 64L338 68L334 80L330 68L318 64L330 60Z" fill="#C026D3" fill-opacity="0.18" stroke="#2E2D2D" stroke-width="1.5" stroke-linejoin="round"/>
  <!-- Decorative dots -->
  <circle cx="48" cy="118" r="3" fill="#7C3AED" opacity="0.26"/>
  <circle cx="38" cy="144" r="2" fill="#A855F7" opacity="0.2"/>
  <circle cx="364" cy="214" r="2.5" fill="#7C3AED" opacity="0.24"/>
  <circle cx="332" cy="364" r="3" fill="#C026D3" opacity="0.18"/>
  <!-- Decorative line -->
  <line x1="30" y1="224" x2="48" y2="224" stroke="#2E2D2D" stroke-width="1.5" stroke-linecap="round" opacity="0.12"/>
</svg>
