<svg xmlns="http://www.w3.org/2000/svg" viewBox="0 0 400 400" fill="none">
  <!-- Panel shadow -->
  <rect x="63" y="73" width="274" height="224" rx="14" fill="#000" opacity="0.08"/>
  <!-- Panel -->
  <rect x="60" y="70" width="274" height="224" rx="14" stroke="#2E2D2D" stroke-width="3.5" fill="#7C3AED" fill-opacity="0.1"/>
  <!-- Panel header -->
  <rect x="60" y="70" width="274" height="30" rx="14" fill="#2E2D2D" opacity="0.06"/>
  <circle cx="82" cy="85" r="4" fill="#7C3AED" opacity="0.35"/>
  <circle cx="96" cy="85" r="4" fill="#A855F7" opacity="0.28"/>
  <circle cx="110" cy="85" r="4" fill="#C026D3" opacity="0.24"/>

  <!-- Main gear -->
  <circle cx="155" cy="184" r="48" stroke="#2E2D2D" stroke-width="3.5" fill="#A855F7" fill-opacity="0.16"/>
  <circle cx="155" cy="184" r="21" stroke="#2E2D2D" stroke-width="2.5" fill="white" fill-opacity="0.34"/>
  <line x1="155" y1="116" x2="155" y2="132" stroke="#2E2D2D" stroke-width="8" stroke-linecap="round"/>
  <line x1="155" y1="236" x2="155" y2="252" stroke="#2E2D2D" stroke-width="8" stroke-linecap="round"/>
  <line x1="87" y1="184" x2="103" y2="184" stroke="#2E2D2D" stroke-width="8" stroke-linecap="round"/>
  <line x1="207" y1="184" x2="223" y2="184" stroke="#2E2D2D" stroke-width="8" stroke-linecap="round"/>
  <line x1="108" y1="137" x2="120" y2="149" stroke="#2E2D2D" stroke-width="7" stroke-linecap="round"/>
  <line x1="190" y1="219" x2="202" y2="231" stroke="#2E2D2D" stroke-width="7" stroke-linecap="round"/>
  <line x1="108" y1="231" x2="120" y2="219" stroke="#2E2D2D" stroke-width="7" stroke-linecap="round"/>
  <line x1="190" y1="149" x2="202" y2="137" stroke="#2E2D2D" stroke-width="7" stroke-linecap="round"/>

  <!-- Secondary gear -->
  <circle cx="232" cy="228" r="28" stroke="#2E2D2D" stroke-width="3" fill="#C026D3" fill-opacity="0.14"/>
  <circle cx="232" cy="228" r="11" stroke="#2E2D2D" stroke-width="2" fill="white" fill-opacity="0.32"/>
  <line x1="232" y1="188" x2="232" y2="198" stroke="#2E2D2D" stroke-width="6" stroke-linecap="round"/>
  <line x1="232" y1="258" x2="232" y2="268" stroke="#2E2D2D" stroke-width="6" stroke-linecap="round"/>
  <line x1="192" y1="228" x2="202" y2="228" stroke="#2E2D2D" stroke-width="6" stroke-linecap="round"/>
  <line x1="262" y1="228" x2="272" y2="228" stroke="#2E2D2D" stroke-width="6" stroke-linecap="round"/>
  <line x1="205" y1="201" x2="212" y2="208" stroke="#2E2D2D" stroke-width="5" stroke-linecap="round"/>
  <line x1="252" y1="248" x2="259" y2="255" stroke="#2E2D2D" stroke-width="5" stroke-linecap="round"/>
  <line x1="205" y1="255" x2="212" y2="248" stroke="#2E2D2D" stroke-width="5" stroke-linecap="round"/>
  <line x1="252" y1="208" x2="259" y2="201" stroke="#2E2D2D" stroke-width="5" stroke-linecap="round"/>

  <!-- Toggle track 1 -->
  <rect x="258" y="126" width="52" height="24" rx="12" stroke="#2E2D2D" stroke-width="2.5" fill="#7C3AED" fill-opacity="0.14"/>
  <circle cx="292" cy="138" r="10" stroke="#2E2D2D" stroke-width="2" fill="#7C3AED" fill-opacity="0.35"/>
  <!-- Toggle track 2 -->
  <rect x="258" y="164" width="52" height="24" rx="12" stroke="#2E2D2D" stroke-width="2.5" fill="#A855F7" fill-opacity="0.1"/>
  <circle cx="276" cy="176" r="10" stroke="#2E2D2D" stroke-width="2" fill="white" fill-opacity="0.3"/>
  <!-- Toggle track 3 -->
  <rect x="258" y="202" width="52" height="24" rx="12" stroke="#2E2D2D" stroke-width="2.5" fill="#C026D3" fill-opacity="0.1"/>
  <circle cx="292" cy="214" r="10" stroke="#2E2D2D" stroke-width="2" fill="#C026D3" fill-opacity="0.3"/>

  <!-- Settings lines -->
  <line x1="256" y1="248" x2="306" y2="248" stroke="#2E2D2D" stroke-width="2" stroke-linecap="round" opacity="0.2"/>
  <line x1="256" y1="260" x2="296" y2="260" stroke="#2E2D2D" stroke-width="1.8" stroke-linecap="round" opacity="0.16"/>

  <!-- Light bulb -->
  <path d="M178 322 C178 300 194 286 214 286 C234 286 250 300 250 322 C250 336 242 344 234 350 H194 C186 344 178 336 178 322 Z" stroke="#2E2D2D" stroke-width="3" fill="#C026D3" fill-opacity="0.1" stroke-linejoin="round"/>
  <rect x="198" y="350" width="32" height="18" rx="8" stroke="#2E2D2D" stroke-width="2.2" fill="#A855F7" fill-opacity="0.12"/>
  <path d="M202 322 Q214 308 226 322" stroke="#2E2D2D" stroke-width="2.2" fill="none" stroke-linecap="round"/>
  <line x1="214" y1="300" x2="214" y2="290" stroke="#2E2D2D" stroke-width="2" stroke-linecap="round" opacity="0.18"/>
  <line x1="188" y1="310" x2="180" y2="304" stroke="#2E2D2D" stroke-width="1.8" stroke-linecap="round" opacity="0.16"/>
  <line x1="240" y1="310" x2="248" y2="304" stroke="#2E2D2D" stroke-width="1.8" stroke-linecap="round" opacity="0.16"/>

  <!-- Decorative dots -->
  <circle cx="46" cy="132" r="3" fill="#7C3AED" opacity="0.24"/>
  <circle cx="356" cy="120" r="2.5" fill="#A855F7" opacity="0.22"/>
  <circle cx="48" cy="320" r="2.5" fill="#C026D3" opacity="0.2"/>
  <circle cx="338" cy="334" r="2" fill="#7C3AED" opacity="0.18"/>
  <!-- Decorative lines -->
  <line x1="38" y1="226" x2="58" y2="226" stroke="#2E2D2D" stroke-width="1.5" stroke-linecap="round" opacity="0.12"/>
  <line x1="310" y1="330" x2="334" y2="330" stroke="#2E2D2D" stroke-width="1.5" stroke-linecap="round" opacity="0.12"/>
</svg>
