<svg xmlns="http://www.w3.org/2000/svg" viewBox="0 0 400 400" fill="none">
  <!-- Main star shadow -->
  <polygon points="200,35 230,135 340,135 252,195 280,295 200,240 120,295 148,195 60,135 170,135" fill="#000" opacity="0.08" transform="translate(4,4)"/>
  <!-- Main star fill -->
  <polygon points="200,32 230,132 340,132 252,192 280,292 200,237 120,292 148,192 60,132 170,132" fill="#7C3AED" fill-opacity="0.12"/>
  <!-- Main star outline -->
  <polygon points="200,32 230,132 340,132 252,192 280,292 200,237 120,292 148,192 60,132 170,132" stroke="#2E2D2D" stroke-width="3.5" fill="none"/>
  <!-- Star inner highlight -->
  <polygon points="200,72 218,142 290,142 232,182 254,252 200,212 146,252 168,182 110,142 182,142" fill="#A855F7" fill-opacity="0.08"/>
  <!-- Star shine line -->
  <path d="M170 105 Q180 90 195 82" stroke="#2E2D2D" stroke-width="2" fill="none" opacity="0.2" stroke-linecap="round"/>
  <!-- Person standing below reaching up -->
  <!-- Person head -->
  <circle cx="200" cy="310" r="14" stroke="#2E2D2D" stroke-width="2.5" fill="#C026D3" fill-opacity="0.14"/>
  <!-- Person body -->
  <line x1="200" y1="324" x2="200" y2="358" stroke="#2E2D2D" stroke-width="3" stroke-linecap="round"/>
  <!-- Person left arm reaching up -->
  <path d="M200 332 L172 305 L158 280" stroke="#2E2D2D" stroke-width="2.5" stroke-linecap="round" fill="none"/>
  <!-- Person right arm reaching up -->
  <path d="M200 332 L228 305 L242 280" stroke="#2E2D2D" stroke-width="2.5" stroke-linecap="round" fill="none"/>
  <!-- Person left leg -->
  <line x1="200" y1="358" x2="183" y2="385" stroke="#2E2D2D" stroke-width="2.5" stroke-linecap="round"/>
  <!-- Person right leg -->
  <line x1="200" y1="358" x2="217" y2="385" stroke="#2E2D2D" stroke-width="2.5" stroke-linecap="round"/>
  <!-- Smaller star top-left -->
  <polygon points="60,45 65,58 80,58 68,67 72,80 60,72 48,80 52,67 40,58 55,58" fill="#000" opacity="0.08" transform="translate(3,3)"/>
  <polygon points="58,42 63,55 78,55 66,64 70,77 58,69 46,77 50,64 38,55 53,55" stroke="#2E2D2D" stroke-width="2" fill="#A855F7" fill-opacity="0.16"/>
  <!-- Smaller star top-right -->
  <polygon points="340,60 344,70 355,70 346,77 349,87 340,81 331,87 334,77 325,70 336,70" fill="#000" opacity="0.08" transform="translate(3,3)"/>
  <polygon points="338,57 342,67 353,67 344,74 347,84 338,78 329,84 332,74 323,67 334,67" stroke="#2E2D2D" stroke-width="2" fill="#7C3AED" fill-opacity="0.16"/>
  <!-- Smaller star bottom-left -->
  <polygon points="48,290 51,298 60,298 53,303 56,311 48,306 40,311 43,303 36,298 45,298" stroke="#2E2D2D" stroke-width="1.5" fill="#C026D3" fill-opacity="0.14"/>
  <!-- Smaller star bottom-right -->
  <polygon points="358,250 361,258 370,258 363,263 366,271 358,266 350,271 353,263 346,258 355,258" stroke="#2E2D2D" stroke-width="1.5" fill="#A855F7" fill-opacity="0.14"/>
  <!-- Ribbon / medal left -->
  <path d="M42 160 L55 160 L55 210 L48 198 L42 210 Z" fill="#000" opacity="0.08" transform="translate(3,3)"/>
  <path d="M40 157 L53 157 L53 207 L46 195 L40 207 Z" stroke="#2E2D2D" stroke-width="2" fill="#7C3AED" fill-opacity="0.16"/>
  <!-- Medal circle at ribbon bottom -->
  <circle cx="47" cy="222" r="15" fill="#000" opacity="0.08" transform="translate(3,3)"/>
  <circle cx="46" cy="220" r="15" stroke="#2E2D2D" stroke-width="2" fill="#C026D3" fill-opacity="0.15"/>
  <!-- Medal star inside -->
  <polygon points="46,212 48,217 53,217 49,220 51,225 46,222 41,225 43,220 39,217 44,217" fill="#2E2D2D" opacity="0.25"/>
  <!-- Ribbon / medal right -->
  <path d="M348 175 L365 175 L365 218 L356 208 L348 218 Z" stroke="#2E2D2D" stroke-width="2" fill="#A855F7" fill-opacity="0.14"/>
  <!-- Sparkle effects (4-pointed) -->
  <!-- Sparkle 1 -->
  <path d="M315 130 L318 122 L321 130 L329 133 L321 136 L318 144 L315 136 L307 133 Z" fill="#2E2D2D" opacity="0.18"/>
  <!-- Sparkle 2 -->
  <path d="M85 205 L87 200 L89 205 L94 207 L89 209 L87 214 L85 209 L80 207 Z" fill="#2E2D2D" opacity="0.15"/>
  <!-- Sparkle 3 -->
  <path d="M280 340 L282 336 L284 340 L288 342 L284 344 L282 348 L280 344 L276 342 Z" fill="#2E2D2D" opacity="0.15"/>
  <!-- Sparkle 4 small -->
  <path d="M120 340 L121 337 L122 340 L125 341 L122 342 L121 345 L120 342 L117 341 Z" fill="#2E2D2D" opacity="0.12"/>
  <!-- Trophy cup right side -->
  <path d="M330 310 L340 310 L338 335 Q337 340 334 340 Q331 340 330 335 Z" fill="#000" opacity="0.08" transform="translate(3,3)"/>
  <path d="M328 307 L338 307 L336 332 Q335 337 332 337 Q329 337 328 332 Z" stroke="#2E2D2D" stroke-width="2" fill="#7C3AED" fill-opacity="0.14"/>
  <!-- Trophy handles -->
  <path d="M328 312 Q320 312 320 320 Q320 325 328 325" stroke="#2E2D2D" stroke-width="1.5" fill="none" opacity="0.3"/>
  <path d="M338 312 Q346 312 346 320 Q346 325 338 325" stroke="#2E2D2D" stroke-width="1.5" fill="none" opacity="0.3"/>
  <!-- Trophy base -->
  <line x1="325" y1="342" x2="342" y2="342" stroke="#2E2D2D" stroke-width="2" stroke-linecap="round" opacity="0.3"/>
  <!-- Achievement podium step -->
  <rect x="150" y="378" width="100" height="14" rx="3" stroke="#2E2D2D" stroke-width="2" fill="#A855F7" fill-opacity="0.10"/>
  <line x1="160" y1="385" x2="240" y2="385" stroke="#2E2D2D" stroke-width="1" opacity="0.15"/>
  <!-- Number 1 on podium -->
  <text x="200" y="390" text-anchor="middle" font-family="Arial, sans-serif" font-size="10" font-weight="bold" fill="#2E2D2D" opacity="0.2">1</text>
  <!-- Confetti-like tiny shapes -->
  <rect x="95" y="85" width="6" height="6" rx="1" fill="#C026D3" opacity="0.18" transform="rotate(30 98 88)"/>
  <rect x="295" y="205" width="5" height="5" rx="1" fill="#7C3AED" opacity="0.16" transform="rotate(-20 297 207)"/>
  <rect x="75" y="260" width="4" height="4" rx="1" fill="#A855F7" opacity="0.14" transform="rotate(45 77 262)"/>
  <!-- Sparkle 5 near person -->
  <path d="M245 310 L247 305 L249 310 L254 312 L249 314 L247 319 L245 314 L240 312 Z" fill="#2E2D2D" opacity="0.12"/>
  <!-- Decorative dots -->
  <circle cx="370" cy="310" r="2.5" fill="#7C3AED" opacity="0.28"/>
  <circle cx="25" cy="340" r="2" fill="#A855F7" opacity="0.25"/>
  <circle cx="385" cy="95" r="2" fill="#C026D3" opacity="0.22"/>
  <circle cx="15" cy="110" r="3" fill="#7C3AED" opacity="0.25"/>
  <circle cx="310" cy="380" r="2" fill="#C026D3" opacity="0.2"/>
  <circle cx="95" cy="380" r="2.5" fill="#7C3AED" opacity="0.22"/>
  <!-- Decorative lines -->
  <line x1="350" y1="350" x2="370" y2="350" stroke="#2E2D2D" stroke-width="1.5" stroke-linecap="round" opacity="0.15"/>
  <line x1="20" y1="365" x2="40" y2="365" stroke="#2E2D2D" stroke-width="1.5" stroke-linecap="round" opacity="0.12"/>
  <line x1="355" y1="358" x2="375" y2="358" stroke="#2E2D2D" stroke-width="1.5" stroke-linecap="round" opacity="0.10"/>
  <line x1="75" y1="155" x2="90" y2="155" stroke="#2E2D2D" stroke-width="1.5" stroke-linecap="round" opacity="0.12"/>
</svg>