<svg xmlns="http://www.w3.org/2000/svg" viewBox="0 0 400 400" fill="none">
  <path d="M201 104 L259 306 H141 Z" fill="#000" opacity="0.08" transform="translate(3,3)"/>
  <path d="M198 101 L256 303 H138 Z" stroke="#2E2D2D" stroke-width="3.5" fill="#7C3AED" fill-opacity="0.12" stroke-linejoin="round"/>
  <line x1="198" y1="128" x2="167" y2="302" stroke="#2E2D2D" stroke-width="2"/>
  <line x1="198" y1="128" x2="229" y2="302" stroke="#2E2D2D" stroke-width="2"/>
  <line x1="160" y1="220" x2="236" y2="220" stroke="#2E2D2D" stroke-width="2" opacity="0.18"/>
  <line x1="152" y1="260" x2="244" y2="260" stroke="#2E2D2D" stroke-width="2" opacity="0.14"/>
  <circle cx="198" cy="88" r="16" stroke="#2E2D2D" stroke-width="2.5" fill="#A855F7" fill-opacity="0.14"/>
  <path d="M116 168 Q198 92 280 168" stroke="#2E2D2D" stroke-width="3.5" fill="none" opacity="0.2" stroke-linecap="round"/>
  <path d="M136 200 Q198 142 260 200" stroke="#7C3AED" stroke-width="3" fill="none" opacity="0.28" stroke-linecap="round"/>
  <path d="M156 232 Q198 192 240 232" stroke="#C026D3" stroke-width="2.5" fill="none" opacity="0.26" stroke-linecap="round"/>
  <circle cx="116" cy="168" r="4" fill="#7C3AED" opacity="0.28"/>
  <circle cx="280" cy="168" r="4" fill="#7C3AED" opacity="0.28"/>
  <circle cx="136" cy="200" r="4" fill="#A855F7" opacity="0.24"/>
  <circle cx="260" cy="200" r="4" fill="#A855F7" opacity="0.24"/>
  <circle cx="156" cy="232" r="4" fill="#C026D3" opacity="0.2"/>
  <circle cx="240" cy="232" r="4" fill="#C026D3" opacity="0.2"/>
  <ellipse cx="198" cy="324" rx="74" ry="12" stroke="#2E2D2D" stroke-width="3" fill="#2E2D2D" fill-opacity="0.05"/>
  <rect x="58" y="254" width="46" height="72" rx="8" stroke="#2E2D2D" stroke-width="2.5" fill="#A855F7" fill-opacity="0.08"/>
  <circle cx="81" cy="310" r="3" fill="#2E2D2D" opacity="0.18"/>
  <line x1="68" y1="268" x2="94" y2="268" stroke="#2E2D2D" stroke-width="1.8" stroke-linecap="round" opacity="0.2"/>
  <line x1="68" y1="278" x2="88" y2="278" stroke="#2E2D2D" stroke-width="1.8" stroke-linecap="round" opacity="0.16"/>
  <circle cx="324" cy="118" r="18" stroke="#2E2D2D" stroke-width="2.5" fill="#C026D3" fill-opacity="0.08"/>
  <path d="M316 118 H332" stroke="#2E2D2D" stroke-width="2" stroke-linecap="round" opacity="0.2"/>
  <path d="M324 110 V126" stroke="#2E2D2D" stroke-width="2" stroke-linecap="round" opacity="0.2"/>
  <circle cx="54" cy="194" r="3" fill="#7C3AED" opacity="0.24"/>
  <circle cx="344" cy="220" r="2.5" fill="#A855F7" opacity="0.2"/>
  <circle cx="84" cy="320" r="2.5" fill="#C026D3" opacity="0.2"/>
  <line x1="320" y1="314" x2="344" y2="314" stroke="#2E2D2D" stroke-width="1.5" stroke-linecap="round" opacity="0.12"/>
</svg>
