<svg xmlns="http://www.w3.org/2000/svg" id="flag-icons-tr" viewBox="0 0 640 480">
  <g fill-rule="evenodd">
    <path fill="#e30a17" d="M0 0h640v480H0z"/>
    <path fill="#fff" d="M407 247.5c0 66.2-54.6 119.9-122 119.9s-122-53.7-122-119.9S217.6 127.6 285 127.6s122 53.7 122 119.9z"/>
    <path fill="#e30a17" d="M413 247.5c0 53-43.6 95.9-97.5 95.9s-97.5-42.9-97.5-95.9 43.6-95.9 97.5-95.9 97.5 42.9 97.5 95.9z"/>
    <path fill="#fff" d="m430.7 191.5-1 44.3-41.3 14.1 41.8 12.5-1 43.3 26.2-34.4 42.3 12.5-24.5-35.7 26.5-34.2-41.3 14.2z"/>
  </g>
</svg>
