<svg width="156" height="30" viewBox="0 0 156 30" fill="none" xmlns="http://www.w3.org/2000/svg">
<path d="M34 30H31L20 0H23L34 30ZM68 30H65L54 0H57L68 30ZM102 30H99L88 0H91L102 30ZM136 30H133L122 0H125L136 30ZM10 21.4932L16.5 5H20L11.748 25L8.25 24.9922L0 5H3.5L10 21.4932ZM44 21.4932L50.5 5H54L45.748 25L42.25 24.9922L34 5H37.5L44 21.4932ZM78 5C83.5228 5 88 9.47715 88 15C88 20.5228 83.5228 25 78 25H68V5H78ZM156 8H147.5V25H144.5V8H136V5H156V8ZM106.444 6.68555C108.368 5.40021 110.678 4.82108 112.98 5.04785C115.283 5.27467 117.435 6.29285 119.071 7.92871L116.95 10.0498C115.805 8.90476 114.298 8.193 112.687 8.03418C111.075 7.87545 109.458 8.28006 108.111 9.17969C106.765 10.0794 105.772 11.4182 105.302 12.9678C104.832 14.5175 104.913 16.1825 105.533 17.6787C106.153 19.1749 107.272 20.4104 108.7 21.1738C110.128 21.9371 111.777 22.1811 113.365 21.8652C114.954 21.5493 116.384 20.6923 117.411 19.4404C118.116 18.581 118.603 17.5721 118.838 16.5H112V13.5H122V15C122 17.3134 121.198 19.5554 119.73 21.3438C118.263 23.1321 116.22 24.3562 113.951 24.8076C111.682 25.259 109.326 24.9099 107.286 23.8193C105.246 22.7288 103.646 20.9646 102.761 18.8271C101.875 16.6898 101.759 14.3115 102.431 12.0977C103.102 9.88375 104.521 7.97089 106.444 6.68555ZM71 22H78C81.866 22 85 18.866 85 15C85 11.134 81.866 8 78 8H71V22Z" fill="#E0E6EE"/>
</svg>
